<svg width="316" height="201" viewBox="0 0 316 201" fill="none" xmlns="http://www.w3.org/2000/svg">
<path fill-rule="evenodd" clip-rule="evenodd" d="M161.111 80.5102C173.76 79.5041 185.827 84.2176 195.936 91.564C208.966 101.033 220.009 114.574 227.484 128.843C228.28 129.455 229.063 130.083 229.841 130.717C234.001 134.106 238.066 137.686 241.669 141.67C243.68 143.894 248.956 149.302 246.665 152.714C246.179 153.438 245.381 153.854 244.581 154.14C242.34 154.943 240.003 155.35 237.792 156.289C235.063 157.447 232.233 159.07 230.485 161.544C229.987 162.248 229.858 163.079 229.189 163.389C228.48 163.718 227.144 163.589 226.369 163.665C224.811 163.818 223.254 163.971 221.696 164.123C218.036 164.482 214.21 164.522 210.63 165.405L194.161 169.472C190.792 170.304 186.92 170.762 183.726 172.129C178.959 174.169 174.411 177.156 169.849 179.618C167.644 180.808 165.438 181.999 163.232 183.189C162.155 183.771 161.418 183.778 160.156 183.876L151.046 184.576C149.577 184.689 148.871 185.281 148.679 183.811L146.561 167.644L145.442 159.095C145.375 158.586 145.395 156.068 144.978 155.764C144.717 155.573 143.183 155.984 142.9 156.018L138.765 156.525C135.787 156.889 132.81 157.254 129.832 157.619C129.59 157.648 128.251 157.633 128.101 157.831C127.925 158.062 128.26 159.391 128.29 159.677C128.606 162.679 128.922 165.681 129.238 168.683C129.275 169.031 129.697 170.646 129.475 170.931C129.32 171.13 128.198 171.154 127.97 171.191C125.097 171.66 122.225 172.129 119.352 172.598C117.295 172.934 114.607 172.917 112.662 173.69C111.545 174.134 110.44 175.27 109.475 175.98L95.4656 186.289C93.3408 187.852 90.4769 187.454 87.8893 187.651L58.04 189.926C58.0648 188.996 58.0898 188.066 58.1145 187.136C58.2459 182.213 58.3769 177.289 58.5082 172.365L58.6802 165.925C58.691 165.518 58.5282 164.325 58.7946 164.024C59.1487 163.624 60.7312 163.451 61.2224 163.305C62.87 162.818 64.5172 162.33 66.1644 161.843C70.9974 160.412 75.8297 158.981 80.6624 157.551C85.4388 156.138 90.2146 154.724 94.9907 153.31C96.6251 152.826 98.2591 152.342 99.8931 151.859C100.271 151.747 101.589 151.598 101.851 151.279C102.182 150.877 102.034 149.161 102.087 148.651C102.346 146.164 102.716 143.687 103.166 141.227C106.413 123.483 114.002 105.459 128.074 93.6212C137.376 85.7961 149.044 81.4699 161.111 80.5102ZM163.342 116.094C162.09 114.623 159.986 112.225 157.774 112.623C155.976 112.947 154.996 115.176 154.37 116.657C151.851 122.612 151.07 129.439 150.286 135.803C149.795 139.796 149.399 143.808 149.146 147.823C158.119 147.133 167.092 146.443 176.065 145.753C175.641 142.894 175.302 140.008 174.792 137.163C174.536 135.737 173.829 134.453 173.225 133.135C170.522 127.242 167.572 121.061 163.342 116.094Z" fill="#FF5678"/>
<path fill-rule="evenodd" clip-rule="evenodd" d="M287.897 0L288.116 0.00379136C294.071 0.162217 299.322 3.99388 303.395 8.04889C305.408 10.0539 307.245 12.4123 308.109 15.1567C309.107 18.3269 308.779 21.8139 308.019 24.9957C306.342 32.027 304.292 39.0945 301.987 45.9471C300.852 49.318 299.207 52.6233 298.351 56.0734C297.645 58.9159 300.618 60.9863 300.731 63.9073C300.846 66.8541 298.863 69.6225 296.139 70.6756C294.979 71.1242 293.575 70.7494 292.505 71.2091C291.527 71.6292 291.184 72.8692 290.996 73.8211C290.74 75.1193 290.786 76.4165 290.859 77.7262C290.904 78.5275 290.704 79.8352 291.095 80.5498C291.364 81.0406 291.853 81.2011 292.274 81.5369C292.849 81.9952 293.233 82.5657 293.737 83.0924C294.568 83.9617 295.368 84.4326 295.594 85.7006C295.714 85.4126 295.834 85.1245 295.954 84.8367C296.574 85.9704 297.033 86.5141 296.444 87.5902C298.272 87.4108 299.356 90.7276 299.835 91.9855C300.713 94.2874 301.316 96.6794 302.195 98.9826C303.401 102.141 304.986 105.257 305.755 108.561C306.401 111.338 306.913 114.191 307.487 116.987C307.811 118.562 308.093 120.161 308.685 121.663C308.915 122.245 309.342 122.638 309.607 123.157C309.969 123.869 309.827 124.244 309.845 125.023C309.875 126.412 310.751 127.313 311.027 128.662C311.321 130.103 311.561 131.561 311.858 133.005C312.456 135.914 313.564 138.818 313.831 141.765C314.141 145.186 314.805 148.566 315.139 151.988C315.432 154.979 314.935 158.189 315.559 161.082C316.113 163.65 315.427 165.998 315.182 168.547C315.12 169.194 316.117 173.048 314.515 172.308C314.816 173.216 315.238 173.649 315.26 174.646C315.281 175.578 315.041 176.537 314.845 177.44C314.466 179.187 314.213 181.091 313.47 182.727C312.631 184.578 311.351 184.8 309.611 185.435C308.433 185.865 306.311 187.399 305.383 185.758C304.83 187.443 303.749 186.278 302.538 186.184C302.546 186.185 301.845 186.444 301.713 186.462C301.288 186.519 300.784 186.318 300.36 186.283C299.304 186.195 298.267 186.337 297.234 186.551C294.852 187.044 292.548 187.727 290.132 188.07C285.411 188.742 280.785 188.425 276.058 188.719C266.806 189.294 257.401 188.811 248.143 188.562C247.149 188.535 246.078 188.674 245.097 188.522C244.04 188.357 243.809 187.857 242.986 187.356C241.616 186.523 240.097 187.333 238.677 187.637C234.506 188.53 230.151 188.596 225.947 189.459C217.406 191.213 209.537 194.674 201.356 197.594C197.81 198.86 193.647 200.909 189.823 200.998C185.188 201.099 186.282 196.533 187.134 193.599C184.456 194.31 180.251 197.558 177.529 195.673C174.285 193.426 178.412 189.692 178.606 187.052C172.809 188.255 166.232 190.894 160.347 188.749C159.215 188.336 158.23 187.464 157.014 187.322C155.75 187.174 154.414 187.621 153.137 187.613C150.226 187.594 147.4 187.207 144.491 187.565C138.004 188.364 131.609 188.802 125.069 188.974C118.486 189.147 111.902 189.537 105.315 189.521C101.972 189.513 98.5672 189.116 95.2308 189.294C93.9207 189.364 91.1012 190.315 90.1808 188.984C89.2566 190.092 88.4716 189.351 87.2861 189.474C87.5058 189.452 86.6687 189.936 86.5427 189.982C85.9195 190.214 85.337 190.144 84.6863 190.137C82.9531 190.119 81.334 190.93 79.6096 190.852C79.1736 190.832 78.8439 190.705 78.4739 190.556C78.3862 190.52 78.4072 190.143 78.2667 190.111C77.4231 189.923 77.6411 190.439 77.1056 190.7C76.5118 190.988 75.6334 190.521 75.9712 191.409C74.3602 191.338 72.8339 191.881 71.3681 190.926C72.0611 192.457 69.6403 191.185 69.0076 191.16C67.9562 191.118 67.0354 191.644 65.9867 191.765C64.7291 191.91 63.4655 191.326 62.235 191.682C61.2709 191.961 60.9408 192.632 59.9375 192.289C59.0851 191.998 58.5526 191.365 58.1389 190.673C57.5682 189.719 57.4951 189.293 56.1187 189.276C55.098 189.264 54.072 189.483 53.0415 189.481C51.8608 189.479 50.5633 189.354 49.4854 189.915C48.3243 190.52 47.6422 191.44 46.3545 191.914C40.5639 194.043 34.2072 193.479 28.1654 193.443C25.6164 193.428 23.7457 193.662 23.0301 190.755C22.4255 188.298 22.1831 185.729 21.6063 183.252C20.8995 180.217 20.1226 177.401 18.5543 174.688C17.0331 172.057 15.7532 169.339 14.4286 166.606C11.6737 160.921 7.83902 156.085 3.56357 151.465C1.93937 149.71 0.0778703 147.755 0.00227979 145.228C-0.0531352 143.045 0.908249 140.784 2.16922 139.046C3.29512 137.494 5.15019 135.743 7.24865 136.105C8.51233 136.323 9.34067 137.343 10.2838 138.107C11.3146 138.943 12.4374 139.512 13.6798 139.968C16.5768 141.03 19.0062 142.193 21.5149 144.027C24.0534 145.883 26.4264 147.962 28.6217 150.213C32.8359 154.534 37.154 159.023 39.5754 164.618C40.5297 166.823 41.1393 168.948 41.79 171.234C42.4291 173.478 44.1691 172.86 46.1257 172.537C48.5102 172.144 50.9065 171.933 53.3069 171.684C54.2104 171.59 55.4843 171.562 56.0283 170.709C56.6281 169.767 55.9409 168.548 55.8864 167.571C55.8573 167.049 56.0303 166.665 56.0736 166.156C56.1234 165.577 55.9524 165.049 55.9518 164.473C55.9511 163.234 56.531 162.13 57.4947 161.38C59.298 159.975 61.9283 159.138 64.0633 158.365C66.9782 157.309 70.1017 156.791 73.1037 156.037C76.4837 155.189 79.8841 154.425 83.2825 153.654C86.6216 152.897 89.9557 152.119 93.3307 151.536C95.3103 151.194 97.4578 151.319 99.3769 150.694C101.416 150.03 101.078 147.978 101.072 146.16C101.062 143.157 101.434 140.066 101.874 137.097C102.809 130.787 105.038 124.611 107.064 118.58C109.016 112.772 111.434 107.197 115.426 102.484C119.312 97.895 124.081 93.7424 129.028 90.3326C134.183 86.7795 139.92 84.2125 145.301 81.0406C144.125 80.1412 142.722 79.3738 142.046 77.9886C141.283 76.425 141.606 74.5554 141.639 72.8841C141.675 70.9979 141.733 69.3422 142.407 67.5454C142.775 66.5613 144.2 64.6947 143.982 63.6247C143.616 61.8278 139.685 60.5154 138.238 59.7761C135.968 58.6163 133.693 57.4383 131.601 55.9742C129.593 54.5697 127.705 52.8792 126.488 50.7232C126.143 50.1115 125.859 49.469 125.639 48.8021C125.394 48.058 125.565 47.8045 124.821 47.75C123.634 47.6627 121.854 48.8542 120.854 49.3806C115.697 52.0945 110.033 55.7467 103.948 55.5044C101.74 55.4167 99.2577 54.7231 98.4771 52.4205C97.4494 49.3891 99.5952 46.2575 101.478 44.068C97.8055 44.6451 91.0332 46.4491 88.1351 43.1723C86.2039 40.9888 87.6605 37.5231 89.28 35.6298C91.4197 33.1288 94.4701 31.6062 97.2879 30.0148C93.8303 28.6966 90.0027 27.8537 86.9622 25.648C84.054 23.5387 84.4135 20.2981 86.7103 17.81C89.1659 15.1503 93.4596 13.7881 96.8367 12.8006C100.979 11.5894 105.094 11.6866 109.362 11.7678C117.023 11.9134 123.603 14.7373 129.886 19.0066C133.208 21.2642 136.483 23.7005 139.429 26.4347C142.193 28.9989 145.141 31.3834 147.864 33.9755C150.503 36.4869 152.578 39.5985 155.363 41.9448C157.731 43.9397 160.327 46.7673 163.335 47.6528C166.525 48.5919 169.396 50.145 172.613 51.0695C176.262 52.1179 179.397 53.871 182.778 55.5436C196.971 62.5631 212.206 67.1314 227.169 72.1709C234.822 74.7483 242.526 76.5651 250.339 78.5336C254.263 79.522 257.906 80.0495 261.955 79.8707C262.889 79.8298 263.78 79.8054 264.701 79.935C265.376 80.0298 265.889 80.2851 266.493 79.8816C267.36 79.302 267.686 77.7936 268.203 76.9348C265.322 76.0414 262.501 75.075 261.186 72.1221C260.358 70.2613 259.928 68.0911 259.565 66.0945C259.37 65.02 259.365 63.9358 259.199 62.8607C259.107 62.2669 258.825 61.6464 258.847 61.0398C258.782 61.3773 256.635 60.2673 256.323 60.0611C255.122 59.2653 254.903 57.6611 254.913 56.307C254.924 54.7776 255.386 53.0965 256.425 51.9368C256.916 51.3877 257.501 50.9761 258.216 50.7692C258.723 50.6223 259.392 50.8146 259.839 50.6666C261.823 50.0109 262.045 45.1021 262.326 43.3151C262.946 39.3775 263.564 35.6183 264.903 31.8438C267.343 24.9625 270.484 18.2748 274.225 12.0095C277.43 6.641 280.632 0.0765722 287.68 0H287.897ZM226.972 165.304C224.119 165.798 221.386 166.807 218.631 167.662C216.057 168.461 213.449 168.97 210.809 169.489C205.555 170.523 200.185 171.469 195.008 172.817C193.55 173.196 192.782 174.053 191.51 174.648C190.567 175.089 189.682 174.642 188.701 174.605C186.565 174.523 184.196 175.22 182.142 175.739C177.292 176.964 172.99 179.092 168.602 181.444C168.209 181.655 165.554 182.87 165.68 183.373C165.782 183.783 169.157 182.681 169.694 182.599C172.412 182.185 175.066 181.328 177.764 180.796C179.978 180.359 182.217 180.063 184.422 179.578C186.876 179.039 192.102 177.162 192.31 181.214C192.535 185.594 187.698 186.941 184.791 188.984C185.115 189.543 189.779 187.7 190.357 187.514C192.341 186.874 194.181 185.722 196.2 185.231C199.713 184.377 199.287 188.257 197.348 189.983C195.193 191.9 191.629 192.48 190.436 195.43C192.003 195.996 194.052 194.934 195.491 194.406C197.381 193.714 199.279 193.031 201.18 192.37C205.449 190.887 209.504 188.843 213.796 187.43C222.601 184.531 231.909 183.7 241.114 183.184C240.293 180.003 239.396 176.84 238.659 173.637C238.344 172.266 238.055 170.889 237.816 169.503C237.65 168.539 237.792 166.232 237.127 165.471C236.319 164.545 234.212 165.846 233.066 165.822C231.943 165.797 231.124 165.218 230.087 165.035C229.101 164.861 227.936 165.137 226.972 165.304ZM61.5207 183.721C61.5207 185.242 61.257 187.087 63.2576 187.265C64.8757 187.409 68.0412 187.594 69.3319 186.443C68.095 185.84 66.6891 185.735 65.3754 185.387C64.0064 185.025 62.7424 184.429 61.5207 183.721ZM94.5415 156.008C93.9329 156.013 92.9062 156.689 92.351 156.878C91.3351 157.224 90.3026 157.515 89.2654 157.79C86.1491 158.615 82.1366 158.743 80.7057 162.089C79.9915 163.758 79.4962 168.052 77.0142 168.036C74.8081 168.022 73.4869 164.838 71.9131 163.705C70.2865 162.534 67.7077 163.331 65.9536 163.84C64.1709 164.356 61.4046 165.018 61.6046 167.277C61.7485 168.902 62.0417 170.38 62.0278 172.039C62.0105 174.151 61.8321 176.259 61.8321 178.371C63.0836 176.656 64.1753 173.209 66.3926 172.519C68.6326 171.823 69.8996 175.736 70.4822 177.236C71.2043 179.095 72.1118 181.202 72.167 183.217C72.1843 183.849 71.8004 185.586 72.2401 186.106C72.6304 186.568 74.1317 186.233 74.6168 186.183C77.6191 185.87 80.6055 185.481 83.6173 185.221C85.164 185.087 85.5851 184.747 85.4338 183.083C85.3149 181.777 85.278 180.531 85.4419 179.22C86.1731 173.363 89.7796 168.006 95.8777 166.989C99.5522 166.376 103.844 166.824 107.512 167.413C108.926 167.639 110.461 168.324 111.898 168.265C112.959 168.221 112.617 168.16 112.835 167.161C112.987 166.463 113.312 165.867 113.843 165.383C114.263 165.001 114.796 165.217 115.191 164.717C115.478 164.355 115.435 163.862 115.57 163.445C115.833 162.633 116.31 161.538 117.259 161.333C118.786 161.003 120.409 163.048 121.18 164.103C121.976 165.193 122.217 168.448 123.497 168.874C124.975 169.365 126.733 167.429 127.041 166.209C127.455 164.568 126.933 162.792 126.684 161.167C126.666 161.05 126.594 159.971 126.513 159.9C126.298 159.71 124.673 159.763 124.385 159.749C122.97 159.682 121.552 159.678 120.136 159.675C114.582 159.661 109.141 159.115 103.624 158.533C104.425 159.839 105.797 161.984 104.389 163.363C103.345 164.385 101.462 163.872 100.151 164.083C98.2994 164.38 95.1779 166.137 93.4133 164.852C90.9265 163.041 93.7396 159.93 94.6631 158.218C94.8608 157.851 95.594 156.56 95.2832 156.13C95.0141 155.757 94.9356 156.005 94.5415 156.008ZM53.1255 176.136C51.8557 176.523 50.5765 176.896 49.2793 177.183C47.7577 177.52 45.3982 177.193 44.6579 178.867C44.0946 180.139 44.3742 182.193 44.8319 183.461C45.3559 184.912 46.5857 185.286 48.0373 185.397C49.7312 185.526 51.4475 185.253 53.1214 185.021C53.7812 184.93 54.4846 184.765 55.1549 184.764C55.5527 184.763 56.3556 185.127 56.7094 184.829C57.1674 184.444 56.8658 182.253 56.8299 181.728C56.7408 180.428 56.4941 179.145 56.4267 177.843C56.3786 176.908 56.7314 175.636 55.6349 175.437C54.9521 175.313 53.7189 175.955 53.1255 176.136ZM155.662 150.396C154.713 150.561 153.77 150.678 152.806 150.663C152.212 150.654 151.502 150.453 150.953 150.778C149.939 151.38 150.09 152.964 150.125 153.953C150.167 155.153 150.272 156.37 150.4 157.564C150.522 158.706 151.148 160.585 150.264 161.563C149.64 160.881 149.332 158.648 148.128 158.73C146.804 158.819 147.416 160.935 147.534 161.692C148.183 165.88 148.922 170.07 149.502 174.27C149.778 176.267 150.134 178.249 150.318 180.255C150.442 181.602 150.484 182.814 151.989 183.093C153.383 183.352 154.951 182.91 156.361 182.877C157.812 182.842 158.644 182.743 159.479 181.431C157.479 180.993 154.312 181.261 153.185 179.146C151.872 176.679 154.642 174.459 156.005 172.772C157.051 171.477 159.191 167.171 161.133 169.729C161.833 170.649 161.959 172.055 162.312 173.126C162.886 174.866 163.588 176.581 164.277 178.279C170.576 175.027 177.04 172.095 183.91 170.27C182.159 167.309 179.991 164.643 178.68 161.435C177.21 157.839 175.993 154.144 174.491 150.56C172.11 151.95 169.564 148.58 167.193 148.445C163.447 148.23 159.335 149.76 155.662 150.396ZM118.347 174.64C117.041 175.418 115.12 176.931 114.806 178.495C114.265 181.198 117.35 179.391 118.303 178.799C120.297 177.56 122.251 177.165 124.541 177.928C127.478 178.907 130.185 180.559 133.337 179.304C134.905 178.679 138.384 177.344 137.445 174.948C136.798 173.297 134.904 174.713 133.903 175.305C131.282 176.855 129.112 175.873 126.493 174.754C123.874 173.635 120.925 173.104 118.347 174.64ZM25.3381 160.765C24.2897 162.251 26.421 161.93 27.3567 162.075C29.3133 162.377 31.3285 163.937 30.7892 166.145C30.2635 168.298 28.2036 169.643 27.8113 171.903C27.4741 173.843 27.7991 176.299 29.6728 177.365C30.7252 177.963 33.0255 178.209 34.0847 177.522C35.7021 176.473 33.6933 174.91 32.6233 174.39C31.2053 173.702 30.0601 173.328 30.7618 171.519C31.6172 169.313 33.2787 167.62 33.1311 165.095C33.0092 163.004 31.9053 160.627 29.8942 159.758C28.4541 159.137 26.3201 159.372 25.3381 160.765ZM168.485 154.354C170.298 154.276 170.37 156.466 170.278 157.543C170.153 159.016 170.421 160.586 170.452 162.064C170.493 164.021 170.902 170.429 167.442 169.478C165.216 168.865 163.385 166.733 161.596 165.363C159.95 164.101 155.766 162.588 155.495 160.197C155.189 157.496 158.488 156.991 160.378 156.561C163.077 155.949 165.697 154.473 168.485 154.354ZM159.656 83.1672C156.782 83.4444 153.924 83.8713 151.189 84.8259C149.338 85.4718 146.496 85.9349 145.184 87.5198C144.05 88.8905 144.541 90.8444 144.173 92.4638C143.674 94.6547 142.162 94.3551 140.695 92.9872C138.939 91.3494 138.431 90.1636 135.988 91.7005C130.929 94.8819 126.918 99.5788 122.904 103.93C126.008 104.87 132.095 105.097 133.126 108.974C133.689 111.094 131.991 112.636 130.465 113.793C128.494 115.287 126.437 116.668 124.51 118.222C122.711 119.672 118.678 125.444 117.538 120.369C116.831 117.227 118.155 113.981 117.593 110.877C115.153 114.811 112.675 118.736 110.438 122.791C108.534 126.243 107.427 129.935 106.513 133.751C107.937 133.844 109.419 133.122 110.827 133.548C112.182 133.959 112.817 135.242 112.912 136.57C113.074 138.822 112.034 141.115 111.51 143.277C111.151 144.763 110.739 148.134 108.929 148.617C106.867 149.168 105.573 145.996 104.654 144.707C103.778 146.053 103.793 148.021 103.665 149.564C103.577 150.624 102.985 152.607 104.178 153.193C105.295 153.742 107.649 153.054 108.843 153.004C111.058 152.91 113.316 152.73 115.532 152.796C117.626 152.858 120.706 153.977 121.524 151.404C122.081 149.652 122.572 143.356 125.542 146.772C126.861 148.289 127.893 150.018 129.168 151.564C130.453 153.122 131.622 153.225 133.542 153.146C137.343 152.99 141.055 153.72 144.774 154.309C148.037 154.826 147.609 152.056 147.56 149.591C147.486 145.769 148.244 141.772 148.657 137.97C149.64 128.932 151.658 120.002 154.762 111.453C152.165 110.569 147.511 114.136 145.591 111.427C144.013 109.2 146.04 106.132 146.866 104.05C147.895 101.453 148.416 98.7393 150.095 96.4373C150.624 95.7105 151.378 94.7366 152.404 94.9814C153.284 95.1916 153.635 96.3141 154.13 96.9475C155.702 98.9576 157.71 100.465 159.108 102.658C159.962 103.999 160.627 105.432 160.905 107.007C160.981 107.44 160.885 108.326 161.189 108.69C162.134 109.815 165.111 109.799 166.433 110.489C170.95 112.846 172.537 119.707 174.291 124.033C174.785 125.251 175.275 126.473 175.538 127.764C175.713 128.627 175.705 129.725 176.173 130.499C177.195 132.189 180.37 130.68 181.928 130.418C184.54 129.979 187.139 129.561 189.761 129.193C191.361 128.968 193.689 128.388 194.908 129.806C196.172 131.275 195.445 133.59 194.811 135.166C193.775 137.739 192.452 140.198 191.36 142.747C190.488 144.781 190.054 147.401 188.379 148.968C186.928 150.326 184.527 150.716 182.819 149.61C181.844 148.98 179.341 142.879 178.681 143.151C179.873 147.864 181.621 152.669 183.468 157.166C184.035 158.547 185.009 161.364 186.442 162.113C187.63 162.734 190.325 161.561 191.54 161.333C192.692 161.117 194.967 160.182 196.069 160.867C197.405 161.698 197.567 163.916 197.717 165.292C197.829 166.313 197.627 167.074 198.868 167.024C199.743 166.988 200.626 166.562 201.465 166.347C203.414 165.85 205.437 165.521 207.421 165.2C212.009 164.459 216.596 163.72 221.183 162.961C225.126 162.308 229.018 162.311 232.58 160.441C234.386 159.493 236.457 159.204 238.38 158.57C240.287 157.941 242.188 157.533 244.184 157.297C248.548 156.781 252.793 156.276 257.105 155.392C259.465 154.908 261.82 154.401 264.168 153.859C266.257 153.377 268.277 152.611 270.356 152.138C272.086 151.744 273.507 152.04 274.248 150.076C274.779 148.669 274.656 147.091 274.792 145.617C275.416 138.884 273.058 132.113 272.576 125.418C272.419 123.249 272.371 121.074 272.208 118.907C272.134 117.914 272.179 115.023 271.021 114.488C270.915 115.282 270.997 116.618 270.095 117.012C270.536 116.819 269.957 119.165 269.926 119.401C269.803 120.337 270.11 121.339 269.948 122.258C270.077 122.581 270.021 122.824 269.78 122.988C269.616 123.121 269.497 123.289 269.422 123.492C269.411 124.147 269.603 123.761 269.612 123.987C269.703 126.24 269.322 128.576 269.485 130.884C269.657 133.323 270.202 135.717 270.615 138.123C270.987 140.283 271.387 142.447 271.697 144.616C271.914 146.139 272.075 147.887 271.256 149.273C269.7 151.904 265.197 151.618 262.574 152.048C258.215 152.764 253.849 153.409 249.474 154.017C247.794 154.25 246.094 154.783 244.395 154.81C242.579 154.838 241.608 154.105 240.463 152.765C238.157 150.066 236.67 147.001 234.75 144.065C233.671 142.416 232.773 141.981 230.957 141.478C229.27 141.01 227.917 139.779 226.544 138.756C223.662 136.605 219.939 134.267 218.047 131.1C216.056 127.768 218.862 126.662 221.548 125.752C220.894 124.015 219.612 122.62 218.556 121.125C217.355 119.426 216.267 117.661 214.974 116.026C212.339 112.692 209.707 109.376 207.15 105.98C204.964 103.078 202.755 100.329 199.965 97.9783C197.163 95.6168 194.044 93.6815 190.967 91.7046C189.36 90.6717 186.538 88.033 184.507 88.3028C182.536 88.5648 181.757 92.235 181.265 93.7776C180.7 95.5477 180.5 98.0158 179.184 99.4095C177.25 101.458 175.242 98.2315 174.318 96.7447C172.628 94.0214 170.898 91.3224 169.211 88.5966C168.442 87.3539 167.331 86.1715 166.874 84.7626C166.868 84.7457 166.655 83.5341 166.87 83.7037L166.885 83.7173L166.871 83.701C166.388 83.2227 164.605 83.1235 163.938 83.0656L163.877 83.0602C162.474 82.9279 161.055 83.0321 159.656 83.1672ZM140.816 159.531C139.2 159.521 137.589 159.709 135.981 159.841C134.568 159.956 133.273 159.74 131.863 159.655C130.119 159.551 129.256 159.733 129.657 161.535C129.95 162.846 130.301 164.593 131.647 165.147C133.465 165.896 135.915 165.795 137.853 166.078C139.275 166.287 140.694 166.475 142.11 166.712C143.051 166.87 143.534 167.034 143.974 165.968C144.343 165.075 144.105 163.882 143.98 162.959C143.883 162.251 143.941 161.005 143.606 160.375C143.107 159.435 141.799 159.537 140.816 159.531ZM216.141 141.563C218.514 143.733 220.112 146.507 221.904 149.138C222.999 150.744 225.14 153.305 223.585 155.253C222.26 156.913 219.18 156.533 217.327 156.613C214.415 156.738 212.037 158.054 209.266 158.733C202.287 160.443 208.083 148.712 209.05 146.263C209.728 144.546 210.428 142.836 211.249 141.18C211.619 140.434 212.357 138.257 213.277 137.972C214.611 137.559 215.296 140.791 216.141 141.563ZM156.176 116.898C155.066 119.018 154.886 121.953 154.36 124.269C152.753 131.35 151.813 138.562 151.074 145.779C154.75 144.321 158.63 144.22 162.511 143.863C165.323 143.605 167.905 143.309 170.718 143.429C171.197 143.449 172.576 143.692 172.971 143.285C173.502 142.738 172.859 141.211 172.702 140.636C171.85 137.51 171.475 134.281 170.506 131.174C169.519 128.007 168.318 124.843 167.04 121.781C166.106 119.541 164.823 117.356 162.558 116.258C160.576 115.296 157.406 114.546 156.176 116.898ZM141.037 130.68C142.552 132.963 144.47 134.96 145.949 137.265C146.998 138.899 148.226 141.923 145.707 142.962C144.823 143.327 143.779 143.169 142.852 143.185C141.419 143.21 140 143.333 138.565 143.299C137.207 143.267 135.863 143.102 134.509 143.031C133.655 142.987 132.583 143.053 131.831 142.562C129.816 141.248 131.274 138.564 131.922 136.847C132.612 135.022 133.542 133.297 134.44 131.568C135.063 130.369 135.994 127.926 137.41 127.438C139.087 126.859 140.338 129.626 141.037 130.68ZM214.478 104.809C217.806 108.68 220.696 112.902 223.418 117.214C224.746 119.318 226.036 121.447 227.324 123.576C228.167 124.969 228.799 126.752 229.826 128.014C232.167 130.892 232.818 124.612 233.163 123.246C234.437 118.212 236.013 113.219 237.415 108.216H235.978C230.249 108.213 224.756 108.129 219.177 106.44C217.598 105.963 216.158 104.926 214.478 104.809ZM202.376 105.785C204.188 107.124 215.79 114.982 210.91 118.015C209.9 118.642 208.25 118.358 207.108 118.448C205.646 118.563 204.161 118.705 202.716 118.964C200.846 119.299 199.028 119.885 197.149 120.181C195.655 120.417 193.676 120.692 192.341 119.762C190.139 118.227 191.476 115.213 192.203 113.262C193.236 110.489 194.215 106.778 196.778 105.127C197.375 104.742 198.106 103.37 198.747 103.245C199.753 103.048 201.641 105.242 202.376 105.785ZM266.381 40.5975C265.506 41.2667 265.467 42.6567 265.24 43.6377C264.477 46.9376 263.412 50.1497 262.78 53.4848C262.164 56.7376 261.97 59.9399 262.272 63.2364C262.474 65.4351 262.497 68.1405 263.834 70.0128C265.433 72.2531 268.6 72.1383 270.996 72.8018C273.3 73.4403 275.585 75.4175 273.072 77.473C272.178 78.2032 271.005 78.322 270.122 79.0255C269.033 79.8937 268.407 81.4496 267.944 82.7217C267.563 83.7691 267.574 83.9691 268.713 84.3391C269.233 84.508 269.758 84.6154 270.305 84.57C271.551 84.4664 272.662 83.6438 273.705 83.0257C276.365 81.4492 279.438 79.3447 282.614 79.1067C283.629 79.0309 284.783 79.4462 285.77 79.1165C286.69 78.8088 286.407 78.6206 286.567 77.7652C287.2 74.3746 287.457 71.0466 289.186 67.9793C290.039 66.4658 292.295 63.3698 293.807 65.7262C294.438 66.7103 294.667 67.1909 296.068 66.889C297.207 66.6436 298.46 65.7421 298.233 64.4256C298.021 63.1836 296.387 62.338 295.397 61.7937C294.079 61.0692 293.154 61.1528 291.719 60.9812C287.774 60.5097 290.54 54.7403 291.108 52.5755C291.466 51.215 291.884 49.4565 290.946 48.228C289.517 46.3594 286.406 46.9738 284.446 47.2388C281.736 47.6054 278.777 47.8008 276.24 46.5706C273.556 45.2694 272.412 42.3344 269.896 40.9076C268.966 40.3802 267.336 39.8656 266.381 40.5975ZM278.159 64.4314C280.024 64.4063 279.118 67.0654 278.607 67.9594C277.531 69.8449 275.227 70.5741 273.204 69.8788C271.603 69.3287 269.872 66.8988 272.379 66.496C273.581 66.303 274.771 66.3816 275.91 65.8098C276.559 65.4841 277.398 64.4415 278.159 64.4314ZM273.481 50.2916C274.64 50.995 272.662 55.4878 272.329 56.397C271.787 57.8811 271.304 58.8391 272.684 59.9829C273.643 60.7784 275.535 61.465 274.632 63.0502C273.796 64.517 270.927 63.9019 269.76 63.1843C268.065 62.1406 268.564 60.1417 268.938 58.5012C269.183 57.4265 271.418 49.0391 273.481 50.2916ZM91.0213 20.7926C94.5947 22.319 98.2486 23.6978 102.03 24.6175C105.334 25.4215 108.583 26.2884 111.988 26.0996C115.139 25.9252 115.515 29.0203 113.715 31.1637C112.737 32.3282 111.603 32.2991 110.178 32.3442C108.51 32.397 106.996 32.8597 105.387 33.2741C102.937 33.905 100.457 34.4409 98.0827 35.3316C96.8577 35.7913 95.6488 36.3319 94.5561 37.0583C93.8692 37.5153 92.3364 38.3386 93.1472 38.977C94.3191 39.8995 97.7977 38.6358 99.1924 38.5525C102.44 38.3589 105.681 38.0657 108.91 37.6592C110.491 37.4598 112.189 37.2628 113.687 36.6883C114.667 36.3126 115.752 35.3796 116.862 35.6166C119.203 36.1166 118.043 39.6263 116.98 40.7681C115.402 42.4637 113.005 43.2125 110.966 44.1759C109.541 44.8496 108.125 45.5628 106.741 46.3167C106.087 46.6728 103.041 48.0069 103.137 49.0198C103.238 50.0844 105.643 49.5475 106.238 49.4507C110.207 48.8051 113.789 47.2703 117.457 45.6996C119.062 45.0121 120.69 44.3523 122.262 43.59C123.359 43.0572 124.439 42.2454 125.651 42.0034C128.511 41.4323 128.386 44.6262 129.512 46.3516C132.858 51.4794 139.324 53.6669 144.355 56.6303C146.259 57.7511 148.074 59.0419 149.82 60.3922C151.068 61.3563 151.567 62.6833 152.96 61.4118C154.12 60.3519 154.68 58.7975 155.424 57.4495C156.291 55.8801 157.448 54.4946 158.335 52.9381C159.648 50.6385 160.041 48.4453 157.159 47.599C154.134 46.7108 151.74 45.3861 149.169 43.4962C142.86 38.8579 137.624 32.9349 131.333 28.261C125.504 23.9307 119.324 19.8671 112.017 18.7043C105.091 17.6018 97.4934 17.8733 91.0213 20.7926ZM280.053 54.1002C279.905 55.3771 279.59 58.1004 277.817 58.2023C275.662 58.3259 277.109 51.7814 278.329 51.0448C280.283 49.8654 280.178 53.0183 280.053 54.1002ZM260.007 53.5789C257.318 53.8016 256.551 56.7471 259.239 57.79L260.007 53.5789ZM269.978 50.994C269.633 52.3308 269.756 54.476 268.683 55.502C267.171 56.9478 266.513 54.826 266.524 53.6161C266.535 52.4195 267.128 49.4263 268.729 49.2686C270.097 49.1338 268.959 50.7201 269.978 50.994ZM299 21.2523C298.017 23.298 299.073 25.3169 299.662 27.3277C298.455 27.7166 296.829 27.4225 296.092 28.698C295.627 29.502 295.708 30.7125 295.847 31.5832C295.961 32.2974 296.547 33.2592 296.06 33.922C295.421 34.7896 293.838 34.3884 293.134 35.3536C292.064 36.8214 292.664 40.174 294.165 41.2789C296.275 42.831 295.016 39.022 294.887 38.3284C294.563 36.5908 296.364 36.8271 297.593 36.1254C298.253 35.7489 298.371 35.6762 298.522 34.8725C298.662 34.1322 298.588 33.5449 298.411 32.747C297.813 30.0399 298.859 30.482 301.01 29.8855C302.865 29.3706 302.716 27.8883 302.245 26.3301C301.875 25.1087 300.773 23.105 301.967 22.0638C302.441 21.6504 303.16 21.9118 303.262 21.0492C303.331 20.467 302.55 19.5124 302.14 19.1776C300.726 18.0232 299.574 20.056 299 21.2523Z" fill="#1D3557"/>
</svg>
