<svg width="240" height="172" viewBox="0 0 240 172" fill="none" xmlns="http://www.w3.org/2000/svg">
<path fill-rule="evenodd" clip-rule="evenodd" d="M102.05 72.054C99.4636 73.9293 99.8752 77.6193 100.654 80.3003C101.801 84.2479 104.085 87.9021 106.691 91.0521C111.313 96.6402 119.16 102.915 126.394 98.0089C132.835 93.6398 136.898 84.8238 138.301 77.3979C138.734 75.103 139.312 71.6836 137.275 69.9583C134.264 67.4082 128.953 67.8721 125.318 68.2004C122.924 68.4165 120.614 69.1502 118.249 68.8059C112.752 68.0049 106.635 68.7303 102.05 72.054Z" fill="#FF5678"/>
<path fill-rule="evenodd" clip-rule="evenodd" d="M213.491 101.296C208.25 107.944 199.341 108.994 191.428 108.929C186.676 108.89 181.915 108.532 177.257 107.564C174.746 107.042 172.251 106.35 169.825 105.519C168.222 104.97 165.836 104.696 165.153 102.978C163.354 98.4473 164.678 92.7645 165.419 88.1651C165.796 85.8255 166.079 83.4721 166.445 81.1309C166.68 79.6328 166.792 77.9755 167.42 76.5741C168.155 74.9324 169.083 75.2602 170.638 75.7136C172.78 76.339 174.979 76.5988 177.181 76.9351C182.556 77.7558 187.245 79.4108 192.129 81.7566C196.959 84.0756 201.644 86.3651 205.952 89.5898C208.135 91.2243 210.015 92.9982 211.768 95.081C213.121 96.6902 215.141 99.2023 213.491 101.296ZM190.583 130.823C190.541 131.539 182.328 129.378 181.247 129.135C174.156 127.545 166.924 125.733 160.229 122.859C153.98 120.177 148.474 117.108 143.556 112.342C141.264 110.121 139.203 107.781 137.23 105.29C136.241 104.041 134.89 104.186 133.788 103.13C132.796 102.179 132.035 101.437 132.345 100.015C134.823 100.668 139.4 104.773 141.969 102.7C143.433 101.519 141.402 100.284 140.464 99.6C138.702 98.3125 137.195 96.7243 135.794 95.0574C138.199 95.5239 140.439 96.4247 142.532 97.6789C143.462 98.2361 146.651 100.256 147.393 98.3304C147.85 97.1448 145.688 95.6549 145.014 94.9988C143.359 93.3885 141.572 91.5083 140.693 89.3431C142.866 88.8391 144.914 90.5182 146.393 91.8858C148.036 93.4044 150.049 94.998 151.426 96.7476C152.136 97.6499 152.291 98.7159 152.846 99.6892C153.471 100.784 154.469 101.723 155.424 102.533C157.264 104.095 159.415 105.244 161.623 106.195C166.669 108.367 172.077 109.905 177.456 110.983C180.095 111.513 182.669 111.756 185.347 111.846C187.428 111.916 188.349 112.539 189.144 114.456C191.295 119.646 190.904 125.355 190.583 130.823ZM128.817 91.2815C127.614 92.4075 126.05 93.1139 124.792 94.1963C123.685 95.1489 122.409 96.1652 121.173 96.9355C119.854 97.7576 118.869 97.1811 117.682 96.4372C116.288 95.5645 114.685 95.2106 113.249 94.4297C108.285 91.7278 102.212 85.1075 103.139 79.0287C103.531 76.4524 104.863 73.9173 107.282 72.7481C109.479 71.687 112.672 71.0977 115.022 71.9852C116.348 72.4858 117.296 73.5907 118.146 74.6772C119.136 75.9436 119.515 75.744 120.524 74.5225C122.329 72.3374 125.305 70.4203 128.248 70.4663C129.71 70.4896 131.163 70.7978 132.48 71.4047C132.659 71.4871 132.758 71.7362 132.937 71.8206C133.157 71.9243 133.518 71.7086 133.671 71.8055C134.057 72.0497 134.442 72.8124 134.665 73.1996C135.557 74.7525 137.164 77.7981 135.545 79.1058C135.544 79.1063 135.617 80.875 135.595 81.0766C135.48 82.1318 135.116 83.0028 134.646 83.9679C133.234 86.8665 131.151 89.0983 128.817 91.2815ZM131.217 115.808C130.077 116.162 128.849 112.59 129.943 112.019C130.985 111.476 132.249 115.487 131.217 115.808ZM113.312 111.536C112.917 112.886 112.75 114.417 111.785 115.516C110.9 114.467 110.813 112.531 111.671 111.453C112.16 110.838 113.743 110.062 113.312 111.536ZM149.793 87.8907C149.787 87.9249 151.165 88.5841 150.493 89.3047C149.574 90.2891 149.7 88.3731 149.793 87.8907ZM155.488 76.8919C155.473 78.2564 152.584 77.9269 152.604 76.5545C152.63 74.8654 155.505 75.4453 155.488 76.8919ZM152.04 65.4874C152.326 64.238 157.351 62.5 157.214 64.6775C157.145 65.7691 151.434 68.1436 152.04 65.4874ZM100.53 107.856C99.9664 108.533 99.1662 108.8 98.4914 109.32C97.7833 109.864 97.2773 110.571 96.659 111.211C94.9608 112.966 92.9166 114.409 91.0845 116.022C87.7165 118.986 84.4901 122.174 80.756 124.688C74.0828 129.181 66.3442 131.639 58.6622 133.79C58.0257 133.968 56.1925 134.688 55.5628 134.152C54.8837 133.574 55.2291 131.54 55.2604 130.772C55.3877 127.619 55.7553 124.429 55.7155 121.281C55.699 119.988 55.3203 118.15 55.9949 116.966C56.7482 115.645 58.8515 115.259 60.1523 114.761C64.1067 113.25 67.9159 110.7 71.409 108.339C75.7028 105.436 80.0393 102.485 84.4583 99.7757C88.7874 97.1209 93.5627 95.3431 98.3919 93.8268C98.6156 94.297 96.3113 95.8098 96.0478 96.0219C94.7845 97.039 93.4101 98.0934 92.4723 99.436C91.8083 100.387 91.1274 102.537 92.9607 102.592C93.8493 102.619 95.1632 101.76 95.9691 101.482C97.3 101.022 98.6716 100.7 100.064 100.49C98.8669 101.808 94.8098 104.175 95.5481 106.367C96.2641 108.494 100.407 106.012 101.833 106.012C101.599 106.754 101.011 107.277 100.53 107.856ZM51.5891 113.792C48.936 114.725 46.2167 115.255 43.4786 115.858C40.8688 116.432 38.4565 116.865 35.7833 116.528C32.0926 116.064 28.0083 114.536 27.5404 110.342C26.9855 105.373 30.4948 100.807 33.508 97.2417C37.1753 92.9044 41.2932 89.0267 45.7562 85.5157C50.2141 82.0078 55.0258 78.9156 60.0667 76.3049C63.9018 74.3187 68.2332 73.1129 72.2882 71.6222C73.0597 71.3387 75.1934 70.3424 75.9149 71.1682C76.4982 71.8359 75.7045 72.9483 75.4388 73.5682C74.9202 74.7769 74.8489 75.9939 74.715 77.2916C74.1172 83.0872 73.3974 88.8811 73.0663 94.7018C72.9742 96.3238 72.8116 98.0209 72.9062 99.644C72.9585 100.543 73.4264 101.688 73.1149 102.566C72.5159 104.253 69.773 105.37 68.3193 106.124C65.7171 107.474 62.9614 108.48 60.3323 109.771C57.445 111.189 54.6336 112.721 51.5891 113.792ZM88.3823 76.1338C89.1106 76.0337 90.2013 75.8353 90.8506 76.3072C91.6971 76.9223 91.4751 77.7782 90.6931 78.2245C90.0756 78.5773 88.6304 78.6737 88.0204 78.3536C86.9811 77.8087 87.1571 76.3023 88.3823 76.1338ZM92.4152 89.554C91.8267 90.5341 89.6762 91.1769 89.8636 89.3479C90.0242 87.7819 93.4991 87.7492 92.4152 89.554ZM91.6169 61.9434C92.563 62.3099 94.2797 62.6234 94.5602 63.8404C94.8212 64.9729 93.7481 64.8981 92.9735 64.5863C92.3364 64.3304 89.4986 61.9238 91.6169 61.9434ZM239.832 105.149C239.28 102.999 239.7 100.619 239.395 98.4163C239.1 96.2814 238.567 94.3197 237.804 92.308C236.113 87.8541 234.175 83.8448 231.434 79.9358C226.271 72.5747 220.281 66.0909 213.049 60.7143C205.908 55.4064 198.001 51.0927 189.626 48.0695C180.744 44.8633 171.803 43.7475 162.437 43.1329C159.64 42.9496 156.846 42.7321 154.064 42.3788C152.032 42.1207 149.483 41.8026 147.474 42.4251C146.211 42.8166 145.506 43.9175 146.881 44.6401C147.856 45.1524 149.133 45.2138 150.21 45.3499C148.909 49.4832 146.792 53.6309 143.437 56.477C140.162 59.2557 135.779 60.2083 131.646 60.913C129.404 61.2947 126.894 61.5904 124.618 61.4255C123.179 61.3218 122.056 60.6554 121.475 62.1376C121.073 63.1675 120.882 64.2975 120.351 62.7425C119.722 60.9042 119.414 60.9158 117.46 60.3936C113.463 59.3259 108.88 58.3517 105.393 56.0424C101.775 53.6466 100.517 49.7709 98.4976 46.1618C97.9982 45.2698 96.4915 43.4644 97.2613 42.4422C97.9655 41.5075 100.255 41.6007 101.303 41.5032C102.409 41.4003 103.523 41.3961 104.633 41.3529C105.276 41.3281 106.569 41.5917 106.31 40.6311C105.92 39.1833 101.738 39.369 100.7 39.3454C98.7682 39.3022 96.8102 39.3468 94.8886 39.5591C85.3608 40.6129 75.7472 42.5613 66.5273 45.1595C48.6389 50.2001 31.314 59.4882 18.2594 72.8692C5.72803 85.7138 1.75793 107.088 9.46159 123.488C13.4652 132.012 22.1535 135.513 30.5758 138.341C35.0183 139.832 39.7223 140.999 44.4449 140.718C46.711 140.582 48.8612 139.972 51.0714 139.513C52.0354 139.312 53.1323 138.992 54.1224 139.073C54.8718 139.134 55.5918 139.822 56.2948 139.456C56.7937 139.197 57.0106 138.452 57.6203 138.135C58.3526 137.754 59.2401 137.617 60.0309 137.425C62.2286 136.891 64.3566 136.025 66.5048 135.315C68.7264 134.581 70.8228 133.636 72.9543 132.68C74.0305 132.197 76.521 130.234 77.2225 131.669C77.542 132.324 77.4059 133.587 77.4838 134.274C77.6202 135.475 77.7805 136.674 77.9559 137.87C78.342 140.504 78.8042 143.126 79.2778 145.746C80.1326 150.472 81.2344 154.996 83.0764 159.442C84.5472 162.992 85.8384 167.015 88.5696 169.839C89.7618 171.072 91.3884 171.626 93.0985 171.239C95.0435 170.798 96.0117 169.032 97.1926 167.603C99.7905 164.459 104.08 162.051 108.04 161.184C112.89 160.122 117.615 161.675 122.244 162.995C127.141 164.391 132.126 165.722 136.933 167.4C141.412 168.964 146.248 171.274 151.105 171.073C155.341 170.898 159.298 167.451 162.353 164.823C165.421 162.184 169.257 158.319 173.669 158.63C175.86 158.784 177.856 159.841 179.99 160.271C182.332 160.743 184.825 160.809 187.207 160.985C190.164 161.203 196.78 160.432 197.874 156.875C198.036 156.347 198.037 155.261 197.34 155.049C196.699 154.855 196.371 155.605 195.764 155.571C194.529 155.501 193.563 153.347 192.884 152.512C190.145 149.145 186.387 146.634 183.313 143.592C179.842 140.157 176.878 135.996 174.263 131.892C175.445 131.584 176.721 132.095 177.865 132.337C179.256 132.632 180.611 132.988 181.981 133.365C183.491 133.781 185.023 134.067 186.556 134.384C187.7 134.62 189.218 134.691 190.25 135.265C191.151 135.766 191.654 136.303 192.773 136.449C193.91 136.596 195.078 136.472 196.221 136.464C199.313 136.443 202.397 136.386 205.474 136.059C216.345 134.904 227.869 130.306 234.407 121.18C236.184 118.698 237.617 115.948 238.522 113.03C239.229 110.751 240.447 107.541 239.832 105.149Z" fill="black"/>
<path fill-rule="evenodd" clip-rule="evenodd" d="M114.021 26.2202C112.086 26.8206 109.8 26.1142 108.688 24.3872C107.557 22.6313 106.783 20.5994 106.627 18.5078C106.478 16.5037 106.934 14.4746 108.116 12.8292C109.373 11.079 111.937 9.11729 114.235 9.72506C114.719 9.85326 115.157 10.1617 115.591 10.4678C116.051 10.7925 116.508 11.1146 117.012 11.2152C117.142 11.2411 117.233 11.2655 117.3 11.2834C117.391 11.3079 117.44 11.3209 117.483 11.311C117.533 11.2996 117.576 11.2584 117.667 11.17C117.719 11.1194 117.787 11.0534 117.882 10.969C118.076 10.7953 118.264 10.5338 118.448 10.278H118.448C118.571 10.106 118.693 9.93627 118.814 9.79783C119.046 9.53147 119.278 9.26227 119.51 8.9925C121.005 7.25848 122.528 5.49119 124.355 4.11969C128.14 1.27787 133.171 -0.0643492 137.866 0.00236825C140.723 0.0428194 143.401 0.88999 146.063 1.85311C146.287 1.93393 146.511 2.01415 146.737 2.09466L146.738 2.09494C148.876 2.85794 151.081 3.64493 152.793 5.17366C156.198 8.21446 157.085 13.2491 157.642 17.5563C158.245 22.2209 156.583 26.2338 154.861 30.3912V30.3918L154.86 30.3927V30.393C154.598 31.0257 154.334 31.6616 154.078 32.3035C152.257 36.8515 148.916 40.5359 144.944 43.3433C142.863 44.8138 140.563 45.7016 138.157 46.4799C137.658 46.6414 137.162 46.8142 136.666 46.9867H136.666H136.666C134.735 47.6587 132.812 48.3285 130.731 48.3253C126.759 48.3197 121.676 46.4336 119.984 42.5212C119.214 40.7397 119.964 40.4199 121.505 41.3881C121.774 41.5572 122.042 41.7281 122.31 41.8986V41.8989H122.311L122.312 41.8998C124.268 43.1454 126.211 44.3837 128.509 44.9315C133.575 46.1402 139.644 44.2677 144.087 41.7969C148.528 39.3269 151.509 35.6161 153.502 30.9959C155.512 26.3345 156.294 21.7413 155.518 16.7163C154.862 12.4577 153.554 8.56781 149.717 6.25615C141.432 1.26642 130.271 1.66846 122.904 8.15306C121.893 9.04196 120.894 9.90699 119.853 10.7561C119.191 11.2956 118.412 11.9429 118.508 12.8759C118.529 13.0817 118.658 13.439 118.803 13.8395C119.219 14.9948 119.766 16.5119 118.243 15.8095C117.615 15.5198 117.095 15.1256 116.583 14.737C115.739 14.0968 114.915 13.472 113.661 13.3566C111.517 13.1587 108.96 14.8058 108.318 16.8789C107.706 18.8571 108.797 21.5636 110.506 22.6981C111.467 23.3366 112.517 23.3053 113.602 23.2729C113.711 23.2698 113.821 23.2664 113.93 23.2638C114.014 23.2618 114.118 23.2564 114.237 23.2502C114.967 23.2115 116.242 23.1444 116.582 23.6865C117.28 24.8017 114.816 25.9737 114.021 26.2202ZM139.832 35.0447C140.195 34.3309 140.554 33.6251 140.961 32.9872C141.149 32.6912 141.457 32.4869 141.752 32.291H141.752C141.837 32.2347 141.92 32.179 142 32.1221C142.993 33.6703 142.012 35.3287 141.166 36.7568C141.068 36.9226 140.972 37.0852 140.881 37.2441C140.613 37.7103 140.353 38.1958 140.089 38.6856C139.526 39.732 138.953 40.7971 138.289 41.7335C136.669 44.0156 133.145 41.5467 133.041 39.2012C132.96 37.4058 134.232 38.1873 135.049 38.8578C135.889 39.5486 136.287 39.7206 137.168 38.9662C138.352 37.9519 139.1 36.4819 139.832 35.0447ZM130.293 28.7206C130.649 26.3657 129.037 28.1944 128.692 29.2775C128.266 30.6138 127.914 32.5014 128.558 33.8275C129.74 36.2616 133.073 35.1015 134.677 33.8084C135.429 33.2021 136.483 31.9391 136.447 30.8864C136.385 29.0549 134.974 30.153 134.106 30.8285H134.106C133.995 30.9146 133.894 30.9939 133.804 31.0593C133.769 31.0857 133.73 31.1139 133.69 31.1434C132.885 31.7381 131.285 32.9198 130.348 32.3351C129.486 31.7981 129.832 30.5226 130.103 29.5191C130.185 29.2198 130.259 28.9446 130.293 28.7206ZM135.061 19.2235C136.965 18.8446 139.416 19.0399 141.072 20.119C143.205 21.509 140.4 22.51 139.185 22.6345C137.714 22.7846 135.833 22.884 134.482 22.1623C132.567 21.1392 133.205 19.5937 135.061 19.2235ZM113.332 15.6938C111.876 15.411 109.846 16.1455 110.847 17.8761C111.595 19.1678 113.437 19.6025 114.879 19.9427C115.054 19.984 115.223 20.024 115.384 20.0638C116.986 20.4618 117.779 19.8751 117.227 18.1072C116.693 16.3962 114.901 15.9991 113.332 15.6938ZM143.718 33.7956C143.852 33.2365 144.633 31.1346 145.16 32.6776C145.241 32.9147 145.251 33.2626 145.262 33.6342C145.289 34.5731 145.319 35.6644 146.514 35.5058C147.13 35.4242 147.422 34.8056 147.693 34.2325C147.827 33.9486 147.956 33.6757 148.116 33.4846C149.745 31.5451 149.245 35.2135 148.82 36.1317C147.882 38.1551 145.256 39.5495 143.954 36.9823C143.47 36.0274 143.472 34.8221 143.718 33.7956ZM149.85 25.6383H149.85C150.606 26.5158 151.865 27.979 152.691 26.9192C153.497 25.8848 152.11 24.2818 151.418 23.4827C151.388 23.448 151.36 23.4148 151.332 23.3832C151.313 23.3602 151.292 23.3357 151.27 23.3099C150.644 22.5805 149.041 20.7103 148.226 22.1111C147.717 22.9881 148.912 24.6411 149.479 25.2216C149.58 25.3248 149.706 25.4709 149.85 25.6383ZM127.656 42.8521C126.876 41.9566 126.958 40.2971 127.4 39.2609C127.76 38.4172 128.361 39.4616 128.71 40.0663C128.795 40.2138 128.865 40.3349 128.913 40.3963C129.069 40.5973 129.293 40.7835 129.524 40.9748C130.004 41.3733 130.51 41.7935 130.477 42.4106C130.396 43.9184 128.341 43.6386 127.656 42.8521Z" fill="black"/>
<path fill-rule="evenodd" clip-rule="evenodd" d="M195.592 31.7085C194.736 31.4763 193.881 31.2441 193.031 31.005C191.052 30.4484 192.921 29.1959 194.097 29.284C195.007 29.352 195.895 29.6709 196.77 29.9845C197.156 30.1229 197.539 30.2605 197.921 30.3751C201.723 31.517 205.249 32.7657 208.801 34.5381C209.331 34.8028 211.666 36.0573 210.122 36.6127C209.311 36.9044 207.679 36.0266 206.536 35.412C206.171 35.2155 205.856 35.0461 205.634 34.95C202.408 33.5594 198.991 32.6316 195.592 31.7085ZM227.887 59.8919C215.166 51.9998 202.498 44.2697 188.11 39.7485C187.36 39.5131 187.127 38.8442 187.521 38.1816C187.935 37.4831 188.732 37.5087 189.438 37.5315L189.499 37.5335C191.36 37.5923 193.178 38.1802 194.939 38.7495L195.163 38.822C199.188 40.122 203.023 41.9254 206.803 43.8104C213.432 47.1141 219.81 51.1115 225.657 55.6566C226.88 56.6063 228.133 57.3761 229.462 58.1527C229.544 58.2011 229.63 58.2502 229.718 58.3008C230.539 58.7719 231.557 59.3558 231.853 60.2717C232.686 62.8494 228.484 60.262 227.887 59.8919ZM22.4691 57.5461C17.8202 61.1628 13.2773 64.9285 9.07443 69.0561C7.57805 70.5257 6.33097 72.2066 5.08503 73.8866C4.51451 74.6559 3.94398 75.4248 3.34986 76.173C3.28619 76.2531 3.21597 76.347 3.13951 76.449C2.66131 77.0863 1.94593 78.04 1.16542 77.9346C0.172189 77.801 -0.0285899 76.0903 0.00307742 75.3432C0.111554 72.7956 2.43825 70.3353 4.09749 68.5811C5.96398 66.6085 7.95953 64.6863 9.99744 62.8903C12.2412 60.913 14.6762 59.2133 17.1576 57.5495C18.0644 56.9415 18.957 56.2982 19.8516 55.6538C21.3602 54.567 22.873 53.4771 24.4641 52.5479C25.6577 51.8508 27.6396 51.5856 26.9901 53.6838C26.6106 54.9095 25.1202 55.8377 23.8196 56.6476C23.3156 56.9614 22.8403 57.2573 22.4691 57.5461ZM5.81787 52.5319C8.43483 51.7172 10.8613 50.4525 13.2878 49.1878C14.8689 48.3637 16.4503 47.5396 18.084 46.8403C19.2589 46.3372 20.4508 45.877 21.6424 45.4167C22.7144 45.0026 23.7861 44.5887 24.8455 44.1438C24.9453 44.1017 25.0533 44.0619 25.1645 44.0207C25.7194 43.8155 26.349 43.5824 26.4241 42.9286C26.527 42.0234 25.9985 42.0505 25.353 42.0834H25.3527C25.3112 42.0854 25.2691 42.0877 25.2265 42.0894C23.7551 42.1556 22.1993 42.8077 20.7291 43.424C20.1222 43.6787 19.5295 43.9272 18.9635 44.1256C18.4595 44.3024 17.9549 44.475 17.4506 44.6472C15.8712 45.1873 14.2964 45.726 12.756 46.3864C10.7064 47.2648 8.61335 48.1736 6.7676 49.438C6.70222 49.4829 6.634 49.5287 6.56407 49.5758C5.9529 49.9872 5.21323 50.4852 4.94886 51.1646C4.68421 51.8429 4.83004 52.8398 5.81787 52.5319Z" fill="black"/>
<path fill-rule="evenodd" clip-rule="evenodd" d="M114.164 35.0589C114.411 34.3335 117.47 26.4019 116.273 26.1628C115.004 25.9089 113.309 30.5109 112.942 31.3424C111.583 34.4131 110.779 37.7077 110.148 41.0015C109.709 43.295 109.323 45.6444 109.477 47.9891C109.595 49.791 110.34 50.0639 111.566 51.168C111.566 45.6948 112.398 40.2394 114.164 35.0589Z" fill="black"/>
</svg>
