<svg width="188" height="145" viewBox="0 0 188 145" fill="none" xmlns="http://www.w3.org/2000/svg">
<path fill-rule="evenodd" clip-rule="evenodd" d="M47.2091 86.8016C48.1624 86.1519 50.1118 83.8262 51.1332 83.2888C53.4044 82.0937 63.5223 79.7443 63.8512 79.6054C64.3523 79.3941 67.6073 78.6553 69.5038 78.1888C73.9569 77.0927 89.9154 70.0139 94.1217 68.1989C94.6587 69.6118 99.0917 75.8494 98.3313 76.4887C95.8275 78.5933 91.3397 81.2138 88.4394 82.7219C86.0937 83.9418 83.6091 84.9513 81.1008 85.7754C78.253 86.7114 76.2985 87.7148 73.4603 88.672C70.6681 89.6139 74.0051 92.5597 75.4391 93.1684C77.0475 93.8512 79.5388 94.1977 81.1823 94.7895C78.2888 99.2867 75.8587 104.745 75.3726 110.132C75.2556 111.428 74.2673 112.617 72.6597 112.229C71.8303 112.028 64.1765 111.009 62.9285 110.725C54.597 108.825 39.6404 98.8747 43.492 88.672C44.3743 89.0795 46.3889 87.3607 47.2091 86.8016Z" fill="#FF1654"/>
<path fill-rule="evenodd" clip-rule="evenodd" d="M51.8702 32.6701C52.4925 32.6176 54.1019 31.3743 53.2574 30.7454C52.4056 30.111 51.7934 32.2372 51.8702 32.6701ZM19.4479 37.4385C19.6107 37.4097 19.5396 36.5195 19.2836 36.4057C18.475 36.0468 18.4068 37.3959 18.387 37.7569C18.3625 38.2124 18.3053 39.4957 19.2885 39.1439C19.8465 38.9442 19.5002 37.7799 19.4479 37.4385ZM67.178 41.5978C67.1561 42.3925 68.7616 43.9207 69.3601 43.0041C69.8636 42.2339 67.2192 40.0158 67.178 41.5978ZM10.4136 23.6744C10.8788 24.8611 13.1794 23.244 13.2649 22.3735C13.4403 20.591 10.3895 22.4885 10.4136 23.6744ZM29.6071 28.7905C30.6785 28.7025 32.0882 27.3404 33.1214 26.8316C33.8205 26.4873 35.723 26.0769 35.9298 25.295C36.1099 24.6157 32.8821 26.0697 32.6064 26.199C31.3403 26.7922 30.1987 27.4684 29.6071 28.7905ZM110.036 19.3979C110.89 18.7375 111.928 18.3116 113.023 18.3396C113.57 18.3535 114.71 18.6955 114.753 17.7501C114.823 16.213 109.995 18.0876 109.241 18.3892C109.506 18.7257 109.771 19.0618 110.036 19.3979ZM56.7641 79.304C56.1377 78.2637 55.011 77.6622 54.1636 76.7748C54.4742 78.2321 53.774 79.5282 53.2929 80.8585C54.4503 80.3403 55.607 79.8223 56.7641 79.304ZM165.557 101.482C165.902 100.326 166.248 99.1771 166.651 98.0393C167.103 96.7652 167.328 96.6551 166.247 95.7643C165.349 97.4601 164.452 99.156 163.555 100.852C164.193 101.124 164.86 101.388 165.557 101.482ZM72.6908 17.8389C71.5029 16.4998 65.9351 16.4157 66.624 19.3711C66.8645 20.4031 68.2334 19.3068 69.0908 19.0663C69.9418 18.8274 72.3517 18.7957 72.6908 17.8389ZM72.4866 36.7978C72.3427 36.456 72.0552 35.2225 71.6284 35.1253C71.2127 35.0305 69.5723 36.3243 69.2639 36.5217C67.7258 37.5073 66.2264 38.5677 64.7275 39.6125C65.3015 39.6125 65.8226 39.4081 66.3931 39.4038C67.071 39.3979 67.5571 39.6764 68.2181 39.5176C69.6382 39.1766 71.2864 37.6029 72.4866 36.7978ZM74.0256 6.24208C74.1589 5.62958 81.1201 7.46825 81.9567 7.80494C82.4124 7.98806 84.7643 9.21051 84.2589 7.36808C83.9712 6.31872 81.2537 5.51879 80.3828 5.23119C78.1688 4.50042 75.8345 3.98062 73.4772 4.10117C73.0194 4.12441 69.5525 4.32447 71.0001 5.71797C71.499 6.19788 73.2871 6.04661 74.0256 6.24208ZM75.5495 90.3968C76.8465 91.0349 78.1706 91.5229 79.5262 92.0219C80.1284 92.2437 81.0666 92.824 81.7309 92.6782C82.275 92.5585 82.4494 91.7299 82.7353 91.1753C83.7803 89.1461 85.0283 87.5091 86.5756 85.836C85.8571 85.3121 82.2099 87.6235 81.3074 87.9647C80.4038 88.3063 79.5516 88.6504 78.6672 89.0585C77.8347 89.4428 76.192 89.7865 75.5495 90.3968ZM98.5133 73.0994C100.403 72.244 102.195 70.7273 103.745 69.3693C105.525 67.8101 107.121 66.176 108.424 64.1582C107.64 64.1982 105.909 66.7203 105.889 63.9744C105.879 62.5737 107.799 61.194 108.395 59.8947C106.913 59.058 105.554 64.0577 103.854 62.8459C102.215 61.6781 104.8 57.6632 105.298 56.3964C104.337 55.7571 98.8627 62.913 98.0702 63.8286C97.5746 64.4018 96.4026 65.1648 96.1228 65.8333C95.9562 66.2315 95.9324 67.4944 96.013 67.8605C96.1806 68.626 97.0299 69.5428 97.408 70.2557C97.8866 71.1582 98.3034 72.096 98.5133 73.0994ZM176.654 98.899C175.02 96.5918 176.708 95.5856 178.037 93.6707C179.1 92.1389 180.078 90.4505 180.752 88.7398C182.437 84.4614 183.958 80.4838 184.79 75.958C183.645 76.4809 182.929 78.4708 182.356 79.5193C181.585 80.929 180.908 82.4085 180.051 83.7743C178.449 86.33 176.875 89.0563 174.837 91.2715C173.913 92.2755 173.132 93.4049 172.066 94.3094C171.579 94.7227 170.648 95.0619 170.289 95.5787C169.951 96.0665 170.329 96.3783 170.201 96.961C170.069 97.5589 169.464 98.1964 169.204 98.772C168.864 99.5281 168.546 100.286 168.166 101.025C167.751 101.832 167.638 102.253 167.526 103.041C167.403 103.903 167.778 103.992 167.026 104.786C168.389 105.388 169.753 105.989 171.116 106.59C171.576 106.793 172.037 106.996 172.497 107.199C172.594 107.017 172.691 106.835 172.788 106.653C173.162 106.289 173.507 105.392 173.721 104.911C174.617 102.905 175.629 100.891 176.654 98.899ZM44.9868 89.2137C41.1152 99.4066 54.72 107.989 63.0948 109.887C64.2548 110.15 65.3868 110.494 66.5415 110.776C67.8005 111.084 68.9184 111.023 70.1752 111.152C71.1749 111.254 71.6515 112.026 72.5936 112.239C74.1679 112.595 74.0718 111.412 74.1845 110.144C74.6625 104.769 77.4057 99.5828 80.3091 95.0976C78.9829 94.6231 77.6687 94.1052 76.3595 93.5858C75.2391 93.1411 73.5237 91.891 72.3192 91.8249C71.4285 91.7763 70.0711 92.5369 69.2059 92.8707C67.7652 93.4267 66.3202 93.9002 64.8186 94.2794C62.1927 94.9424 59.2708 95.8461 56.5536 95.9146C55.7702 95.9344 53.6213 96.2992 53.0577 95.8151C51.9829 94.892 53.4747 94.1226 54.3745 93.793C59.7375 91.8292 65.4317 90.9942 70.8098 88.9807C73.5774 87.9445 76.3164 86.7873 79.1013 85.7664C81.502 84.8866 84.0163 84.1076 86.3363 83.0252C89.4002 81.5963 92.4771 79.8162 95.1301 77.7189C95.6612 77.2993 96.7738 76.6759 97.1377 76.0679C97.4582 75.5325 97.4182 76.0664 97.3517 75.4173C97.3039 74.9512 96.7334 74.3192 96.4988 73.8788C95.6244 72.2365 94.8342 70.5495 94.17 68.8114C89.938 70.6267 85.9118 73.0973 81.7421 75.0371C77.5452 76.9898 72.8111 78.3672 68.3212 79.4658C66.4102 79.9333 64.2133 80.0812 62.4608 81.0051C61.7161 81.3976 60.98 81.8517 60.1825 82.0788C59.9468 82.5306 59.7151 82.6192 59.4866 82.3444C59.3435 82.1837 59.1585 82.1159 58.9314 82.1408C58.4436 82.2235 57.946 82.4539 57.4898 82.6309C55.1807 83.526 52.9695 84.647 50.7773 85.7909C49.7382 86.3326 48.6724 86.8664 47.678 87.4853C47.145 87.8171 46.6675 88.1515 46.2313 88.6071C45.7084 89.1533 45.8329 89.6023 44.9868 89.2137ZM132.106 28.6946C133.084 28.7105 133.976 28.1804 134.996 28.21C136.6 28.2564 137.87 29.5003 138.801 30.6999C140.644 33.0734 140.174 35.9367 139.249 38.593C138.806 39.8624 138.198 41.081 137.438 42.1922C136.765 43.176 135.563 44.1065 135.094 45.2018C134.32 47.0082 135.881 46.2401 136.838 45.8543C138.04 45.3688 139.167 44.7654 140.188 43.9525C144.737 40.3298 148.197 35.2943 149.356 29.5113C149.921 26.6899 149.878 23.3914 147.912 21.0886C146.115 18.9828 143.014 18.2949 140.362 18.6853C137.496 19.1075 134.898 20.3216 132.564 21.8843C131.886 22.3384 131.266 22.8342 130.629 23.342C129.794 24.0083 129.294 24.0256 129.503 25.0698C129.658 25.8461 130.081 26.6507 130.353 27.3955C130.863 28.7907 130.677 29.1518 132.106 28.6946ZM135.225 52.7481L135.027 53.0865C136.392 53.1514 137.663 51.9475 138.826 51.3599C140.336 50.596 141.677 49.554 143.001 48.5019C145.335 46.646 147.7 44.5545 149.438 42.1181C153.333 36.6567 156.871 29.7325 155.808 22.808C154.663 15.3452 148.135 12.4724 141.18 13.4603C138.046 13.9055 135.247 15.3049 132.442 16.7257C131.028 17.4418 129.835 18.371 128.539 19.2703C127.867 19.7372 127.254 19.7979 127.21 20.6142C127.177 21.2295 128.24 22.6208 128.528 23.1782C132.05 19.5853 135.846 16.613 141.165 16.4292C147.492 16.2107 151.234 22.2106 151.206 27.956C151.179 33.5906 148.749 39.0106 144.875 43.06C143.114 44.9004 141.436 46.3771 139.274 47.7202C138.196 48.3898 137.401 48.9909 136.196 49.4354C135.344 49.75 135.433 49.5843 135.215 50.3732C135.031 51.0428 135.219 52.0529 135.225 52.7481ZM100.841 129.3C100.759 130.316 100.553 131.315 100.323 132.306C100.241 132.661 99.776 133.784 99.8575 134.184C99.992 134.845 99.8129 134.42 100.392 134.765C100.996 135.125 101.699 135.103 102.361 135.212C102.769 135.28 104.264 135.984 104.516 135.873C104.956 135.678 104.942 134.993 105.424 134.722C106.082 134.351 107.051 134.668 107.671 134.958C109.329 135.731 110.468 137.332 112.073 138.209C114.922 139.765 118.303 140.626 121.481 140.982C123.204 141.174 124.966 141.512 126.666 141.109C128.006 140.791 129.748 140.82 130.476 139.383C124.003 137.602 114.123 135.424 111.564 127.996C110.173 129.257 107.848 128.578 106.166 128.404C104.317 128.212 102.664 128.257 100.972 127.413C100.848 128.076 100.81 128.626 100.841 129.3ZM43.5297 83.2931C46.5768 83.477 49.4656 82.0351 51.3407 79.6022C51.8024 79.0029 52.2757 78.3913 52.5528 77.6814C52.613 77.5015 52.6728 77.3214 52.7329 77.1415C53.0238 76.6447 52.8964 76.4103 52.351 76.4383C52.0437 76.0168 51.2645 75.8751 51.4863 75.1112C51.6531 74.535 52.2691 74.5256 52.8045 74.3443C52.5379 73.8963 52.3784 73.6715 51.9968 73.2731C51.005 74.1652 49.2051 75.9164 48.5082 73.8667C48.1733 72.8827 48.7626 71.9422 48.6166 70.9932C48.5566 70.6005 48.059 69.5978 47.7705 69.3631C46.2344 68.1125 44.022 68.6301 42.3922 69.3662C41.2689 69.8736 41.0272 70.1117 40.844 71.2748C40.658 72.4574 40.4852 73.6397 40.2788 74.8188C40.9528 74.4676 41.0756 73.7089 41.5152 73.1625C41.6797 73.4622 41.8445 73.7624 42.0097 74.0621C42.2417 73.9321 42.4583 73.9388 42.6592 74.083C42.9845 74.583 42.7799 75.3246 42.6799 75.8488C43.7645 75.7477 44.2229 76.9577 43.1295 77.4478C41.9969 77.9554 41.486 76.5714 41.4476 75.675C41.0249 76.1798 40.5908 75.9096 40.2962 76.1689C40.0019 76.4283 39.886 76.9688 39.7812 77.5607C39.6091 78.5332 39.1686 79.9364 39.5762 80.912C40.1812 82.3612 42.1102 83.1152 43.5297 83.2931ZM131.826 36.7488C130.818 38.1509 129.099 39.9864 128.739 41.6803C129.85 41.0288 132.198 37.893 132.803 40.3909C133.15 41.8247 131.369 43.5331 130.931 44.9214C132.683 44.3452 133.93 42.5406 135.023 41.1478C136.416 39.372 137.839 37.0312 138.195 34.7731C138.482 32.9458 137.215 31.2426 135.331 31.0636C134.369 30.9721 133.365 31.1248 132.435 31.348C132.011 31.4495 131.379 31.5757 131.001 31.8027C130.526 32.088 130.461 32.7557 130.013 32.2003C129.419 33.3207 128.824 34.441 128.23 35.561C128.822 35.3464 130.029 34.4353 130.675 34.5295C131.619 34.6673 131.813 36.0386 131.826 36.7488ZM37.4236 9.32006C34.7804 9.39798 32.0176 9.96084 29.5152 10.7976C28.8939 11.0055 26.2723 11.7451 26.8244 12.8173C27.1893 13.526 29.1567 12.5246 29.7515 12.3576C32.3006 11.6417 34.9252 11.1697 37.5362 10.7388C38.1683 10.6346 40.3129 10.6449 40.4236 9.81617C40.5592 8.80501 38.1702 9.31891 37.4236 9.32006ZM109.362 124.65C107.929 124.825 106.553 124.76 105.119 124.584C103.912 124.436 102.683 123.942 101.483 123.942C101.483 125.228 101.395 125.236 102.752 125.511C103.698 125.703 104.658 125.811 105.615 125.945C107.299 126.18 109.169 126.841 110.874 126.502C110.833 126.278 110.702 124.772 110.525 124.623C110.426 124.539 109.506 124.651 109.362 124.65ZM86.2062 29.5413C86.6069 29.7966 87.5277 30.8145 88.0049 30.8324C87.8346 29.6541 86.5199 27.6024 85.0101 28.3305C84.6401 28.5092 83.863 29.3982 84.2146 29.7905C84.4022 30.0002 85.7154 29.5428 86.2062 29.5413ZM72.2379 40.0244C72.2524 39.819 72.2673 39.6135 72.2824 39.4083C71.7285 39.734 71.0426 39.8882 70.6489 40.4129C71.1216 40.6224 71.5939 40.8321 72.0668 41.0418C72.1238 40.7027 72.181 40.3635 72.2379 40.0244ZM115.868 71.3097C118.486 72.2263 120.885 73.4506 122.812 75.5286C124.477 77.3257 125.26 80.4918 125.666 82.8473C126.672 88.6761 124.731 94.0787 123.451 99.6547C122.802 102.483 121.833 105.205 120.925 107.961C120.133 110.367 119.453 112.887 118.359 115.175C117.432 117.115 116.247 119.027 115.431 121.04C114.992 122.123 114.28 125.84 112.614 124.672C112.159 125.861 112.049 125.76 112.535 126.586C112.887 127.184 114.08 128.014 114.644 128.501C116.144 129.799 118.045 130.868 119.806 131.777C123.031 133.441 126.488 134.687 129.809 136.204C131.277 136.875 132.87 137.668 132.54 139.589C132.264 141.199 131.332 142.42 129.879 143.137C128.515 143.809 126.563 144.329 125.062 144.54C124.172 144.665 123.968 144.294 123.242 144.166C122.434 144.024 121.491 144.299 120.657 144.292C116.915 144.26 113.639 143.318 110.615 141.148C109.534 140.373 107.944 138.269 106.53 138.269C105.807 138.269 105.959 138.709 105.323 138.966C104.539 139.284 103.187 138.684 102.415 138.543C100.772 138.243 99.1003 137.939 98.0059 136.523C96.8226 134.993 97.2432 133.098 97.7517 131.399C98.3248 129.484 99.2892 127.541 99.699 125.597C99.7989 125.124 99.8907 124.243 99.7895 123.762C99.6318 123.015 98.8782 122.57 98.8555 121.762C98.8486 121.516 99.2004 121.191 99.262 120.938C99.3978 120.38 99.3768 119.802 99.4327 119.235C99.5326 118.223 99.7633 117.253 99.9226 116.253C100.284 113.977 100.998 111.947 101.689 109.755C102.359 107.627 102.997 106.043 104.293 104.201C104.963 103.246 107.207 99.8464 106.112 98.8679C104.612 101.814 102.858 104.111 100.563 106.457C98.8071 108.251 97.0907 110.662 94.8934 111.94C92.4777 113.345 89.5255 114.171 86.8578 114.914C85.589 115.267 84.5362 116.05 83.1683 116.195C81.6859 116.352 80.1772 116.167 78.7252 115.836C78.3166 115.743 77.1378 115.115 76.7681 115.155C76.2233 115.215 75.4396 116.186 74.8417 116.364C73.3865 116.798 72.3927 115.969 71.2889 115.203C70.0909 114.371 69.7285 114.164 68.3461 114.064C66.653 113.942 65.0064 113.345 63.3411 112.979C60.413 112.337 57.9241 111.035 55.2628 109.672C52.212 108.11 49.6025 105.956 47.3029 103.412C43.9226 99.6706 39.2148 89.3046 44.7369 85.6751C41.486 85.2337 38.5087 83.8139 38.1124 80.1347C37.9053 78.2094 38.2951 76.0767 38.7793 74.2208C39.0002 73.3734 39.2636 72.5313 39.516 71.6927C39.7061 71.4095 39.8067 71.0998 39.8171 70.7629C39.9337 70.3265 39.7657 70.109 39.3126 70.1111C38.4564 69.11 37.8126 68.2262 37.6397 66.8047C37.5852 66.3542 37.5364 65.6637 37.8569 65.2806C38.0052 65.1266 38.1842 65.0237 38.3931 64.9721C38.895 65.0009 39.0367 64.7536 38.8187 64.2307C39.0623 63.4899 38.7008 62.9126 39.6191 62.6035C39.9133 62.666 40.2063 62.7346 40.4981 62.8087C40.8706 62.9786 41.1127 62.8555 41.2254 62.4408C42.0904 62.1022 41.6914 61.6017 42.8667 62.0373C43.5779 62.3009 44.2546 62.7548 44.7726 63.3077C45.4223 62.8906 43.9446 60.3127 43.8954 59.4902C43.7784 57.5515 44.58 55.9486 45.6228 54.3561C47.6498 51.2615 50.479 48.6005 53.2691 46.2062C58.6131 41.6209 64.2272 37.2558 70.2614 33.6026C67.7721 31.8738 64.8639 31.4052 61.9019 32.2087C59.1713 32.9494 56.9579 34.2948 54.4444 35.4716C52.1158 36.5613 49.6441 37.0091 48.9017 34.0351C48.0698 30.7038 50.7239 29.467 53.1045 27.9732C52.5101 27.5299 50.5532 27.8468 49.813 27.8993C48.1644 28.0159 46.5876 28.3881 44.9856 28.7172C44.2172 28.8749 43.5113 28.8393 42.7501 28.9939C41.6185 29.2236 40.4369 29.4809 39.292 29.8082C36.5681 30.5872 33.8644 31.7694 31.5108 33.3625C29.4764 34.7388 28.0651 36.682 26.4261 38.4717C24.5569 40.5124 22.7658 42.5204 19.9948 43.2673C18.6971 43.6173 17.1749 43.9348 16.2551 42.7758C15.3991 41.6981 15.3513 40.3993 15.3795 39.0816C15.4414 36.1709 16.8474 33.0258 18.4829 30.6474C20.2584 28.0657 22.6363 26.5871 24.883 24.5091C21.6356 24.7413 18.4972 26.453 15.5108 27.6363C14.8823 27.8854 14.2479 28.1653 13.6159 28.3956C12.9421 28.6415 12.4957 28.491 11.8501 28.6035C10.3769 28.8606 9.1113 29.4815 7.67821 28.4916C4.96688 26.619 7.68331 22.8095 9.55012 21.6405C12.1503 20.0125 14.7955 18.6418 17.6601 17.4806C16.1093 15.7985 17.4336 13.3979 18.8631 12.2046C20.6716 10.6947 22.9747 9.82938 25.154 9.02108C26.8773 8.38177 28.57 7.76796 30.3604 7.38323C32.2426 6.97894 34.4433 6.36117 36.3531 6.42042C38.1442 6.476 39.7324 6.16045 41.5464 6.10997C43.0558 6.06801 44.5686 6.10432 46.0778 6.0652C50.1382 5.96028 54.2136 6.23416 58.182 6.52617C55.0379 -2.66812 75.7481 0.171262 80.1666 1.37222C84.1819 2.46374 88.7827 3.7299 92.1555 6.31978C93.5844 7.4167 94.9414 8.66386 96.2092 9.94363C98.0796 11.8318 99.115 14.3046 100.104 16.7453C102.614 15.5161 105.013 14.1765 107.759 13.5669C110.371 12.9871 113.048 12.2012 115.675 11.7632C117.673 11.4301 120.574 11.2041 122.255 12.6149C124.081 14.1473 125.033 16.5319 126.123 18.574C131.358 13.6063 137.198 9.98218 144.662 10.2232C151.967 10.4591 156.77 16.7667 157.655 23.6017C158.631 31.1334 155.276 39.0032 150.728 44.8357C148.689 47.4513 146.579 49.9775 143.834 51.9289C142.473 52.8962 141.037 53.9559 139.545 54.7112C138.8 55.0877 137.987 55.4279 137.206 55.7177C136.853 55.8485 136.49 55.9796 136.123 56.0685C135.076 56.3225 135.279 55.9833 134.89 56.8999C134.574 57.6442 134.613 58.9246 134.478 59.7414C134.323 60.6749 134.231 61.6213 134.005 62.5422C133.614 64.1384 133.207 65.6953 132.717 67.2541C131.79 70.204 130.542 73.1772 129.013 75.8682C130.31 76.4311 132.125 76.4879 133.511 76.6586C135.01 76.843 136.511 77.2309 138.069 77.6665C141.19 78.539 143.979 79.2757 146.946 80.5821C150.027 81.9383 152.773 83.9634 155.74 85.5753C158.468 87.0575 161.225 88.914 163.759 90.6933C164.362 91.1165 164.735 91.4845 165.215 92.0207C165.706 92.5683 165.862 92.6755 166.449 93.15C166.713 93.3638 167.482 94.443 167.784 94.4826C168.325 94.5543 168.242 94.1506 168.667 93.587C169.553 92.4105 170.79 91.499 171.67 90.2926C172.404 89.2866 173.17 88.2681 173.955 87.403C175.854 85.3096 177.428 82.9892 178.778 80.4798C179.481 79.1732 180.221 77.9299 180.984 76.6968C181.744 75.4692 183.095 73.849 184.608 73.9214C184.486 73.2964 184.1 73.1923 184.767 72.8101C185.196 72.5638 186.033 72.9607 186.364 73.2107C187.242 73.8731 187.279 75.1578 187.224 76.123C187.082 78.6102 186.561 81.0654 185.836 83.4172C184.964 86.2444 183.871 88.7386 182.678 91.4369C181.729 93.5864 180.55 96.4289 178.187 97.4098C179.774 99.6755 179.012 101.522 177.951 103.927C177.176 105.685 176.153 107.502 174.593 108.666C172.836 109.978 170.929 108.865 169.091 107.998C167.98 107.474 164.585 106.238 165.275 104.626C164.427 104.513 163.894 103.897 163.122 103.708C162.304 103.507 162.445 103.839 161.58 103.963C160.917 104.059 159.925 103.465 159.301 103.252C158.258 102.898 157.218 102.534 156.177 102.175C153.246 101.165 150.364 100.171 147.404 99.3627C141.896 97.8578 136.321 97.0041 130.833 95.6603C129.732 95.391 128.639 95.1311 127.493 94.9153C127.257 94.8707 126.029 94.8023 125.88 94.5491C125.619 94.1054 126.422 91.6225 126.491 91.1165C126.943 87.7948 126.795 84.1584 126.158 80.8747C125.893 79.5095 124.711 77.7418 124.722 76.4093C124.729 75.5153 125.521 74.5393 125.986 73.7295C127.136 71.7274 128.342 69.5643 129.194 67.4807C130.499 64.2934 131.298 60.6956 131.874 57.2819C132.174 55.5022 132.523 53.5731 132.605 51.7727C132.668 50.4004 132.555 48.9611 132.754 47.5556C131.995 47.6277 130.92 48.0212 130.236 47.6C129.372 47.0685 129.14 45.5507 129.25 44.6443C126.292 45.1605 126.391 42.3556 126.574 40.162C121.228 40.162 128.074 32.2183 128.93 30.5125C129.323 29.7282 129.311 30.609 129.137 29.3962C129.061 28.863 128.697 28.2721 128.491 27.7819C128.041 26.7117 127.556 25.6579 127.037 24.6196C125.941 22.4266 124.699 20.3077 123.344 18.2646C122.124 19.1147 121.024 20.1209 120.006 21.2005C120.659 19.4914 122.656 17.3742 121.802 15.4336C121.01 13.6347 118.367 13.7594 116.805 14.0883C112.563 14.9827 108.494 16.2854 104.453 17.7938C105.705 18.5117 107.621 17.9571 108.865 17.4083C110.406 16.7283 112.062 16.0151 113.722 15.6549C115.17 15.3409 117.071 15.4481 116.653 17.3981C116.314 18.9781 114.768 20.4997 113.749 21.6811C111.502 24.2839 108.685 26.2988 105.918 28.3121C102.943 30.4763 100.077 32.8278 97.0646 34.9293C91.6195 38.7284 85.7648 42.0301 80.139 45.5762C77.2156 47.4188 73.9031 48.9016 70.7327 50.2673C67.2451 51.7695 63.9013 53.3779 60.2831 54.5644C58.2737 55.2235 56.2821 55.7658 54.3076 56.5158C53.07 56.9857 50.9148 57.9272 50.097 56.532C48.4363 53.6982 54.4462 49.9716 56.0932 48.2391C57.2293 49.3425 51.6266 53.4542 52.0652 55.0608C52.4096 56.3233 53.7424 54.693 54.386 54.349C55.4259 53.7928 56.6576 53.5132 57.7028 52.8786C59.8466 51.5771 62.3883 50.0761 62.8777 47.3856C62.5372 47.0262 62.5414 46.6944 62.8906 46.3901C63.046 46.2053 63.1693 46.0024 63.2602 45.781C63.4127 45.3582 63.474 44.8287 63.5557 44.3803C63.797 43.0553 63.1912 41.8147 63.7574 40.5179C60.4534 43.0212 57.2777 45.849 54.1413 48.559C51.3283 50.9899 48.3928 54.173 47.359 57.8002C47.2267 58.2649 47.0066 58.7921 47.0307 59.2826C47.0777 60.2455 47.1738 60.0379 47.9495 60.3474C48.7255 60.6572 49.8552 60.6304 50.6895 60.6633C51.1651 60.6817 53.2891 60.1781 52.8668 61.2218C52.6234 61.8235 51.151 61.8008 50.6238 61.8564C49.3007 61.996 48.5831 61.8527 49.21 63.2869C49.491 63.9297 50.0602 64.3652 50.5068 64.8626C51.7497 66.2468 52.4247 68.3698 53.4024 69.9959C54.5162 71.8485 55.7408 73.6103 57.0416 75.3356C57.5785 76.0474 58.296 77.3855 59.0402 77.8935C59.7351 78.3678 58.9175 78.3286 60.0718 78.1359C60.5749 78.0522 61.0309 77.7249 61.5121 77.6077C64.3898 76.9067 67.3476 76.1165 70.3235 75.2511C74.1299 74.1442 78.1245 73.2005 81.7562 71.6066C85.0095 70.1783 88.2387 68.478 91.5262 67.0315C92.4863 66.6095 93.4451 66.3295 94.1912 65.5526C95.0919 64.615 95.8376 63.3874 96.6682 62.3795C98.081 60.6649 99.3831 58.9212 100.904 57.2964C102.036 56.0874 104.042 53.8401 105.639 53.3574C108.673 52.4408 107.049 57.0626 106.657 58.2308C107.37 58.3927 107.745 57.4778 108.582 57.741C109.584 58.0562 109.688 59.3892 109.813 60.2245C109.847 60.4471 109.546 60.863 109.637 61.0615C109.668 61.1291 110.322 61.5158 110.448 61.6951C110.906 62.3462 110.816 63.1381 110.643 63.8403C109.745 67.4779 106.553 70.134 104.206 72.8172C105.256 72.6185 106.034 72.02 107.026 71.7234C107.956 71.445 108.892 71.4595 109.829 71.3797C110.811 71.2962 111.754 70.9287 112.759 70.9101C113.813 70.8905 114.823 71.1906 115.868 71.3097Z" fill="#1D3557"/>
<path fill-rule="evenodd" clip-rule="evenodd" d="M4.84669 38.5916C4.26782 38.97 4.10465 39.3412 4.08466 40.2141C4.07666 40.572 4.10134 41.9076 4.60169 41.8572C5.07122 41.81 4.84669 39.0508 4.84669 38.5916ZM1.8564 40.7668C2.12613 37.9692 3.14964 35.1247 5.55741 33.3815C6.15286 32.9505 6.82646 32.9658 7.47907 32.6938C7.87127 32.5305 8.49092 31.7709 8.93619 31.8608C10.5753 32.1924 8.68163 34.3702 8.40432 34.9432C7.54496 36.7182 7.60299 38.2778 7.62865 40.1927C7.64819 41.6479 7.95058 44.1012 7.21691 45.4184C6.43485 46.821 4.73859 45.9101 3.79175 45.0801C2.59678 44.032 1.69427 42.3632 1.8564 40.7668Z" fill="#1D3557"/>
<path fill-rule="evenodd" clip-rule="evenodd" d="M30.6303 49.0341C30.6303 50.5952 31.8973 49.5383 31.8522 48.4279C31.7858 46.7932 30.5711 47.7998 30.6303 49.0341ZM37.3663 40.4039C35.9796 41.6511 34.9099 42.3508 34.6426 44.2686C34.4402 45.7212 34.6414 47.1599 34.6499 48.6231C34.6644 51.0758 32.6838 53.6543 30.5525 50.8428C28.9978 48.7922 29.5555 45.5676 30.8233 43.5066C31.4885 42.4254 32.4382 41.3556 33.5353 40.6818C34.3604 40.1746 36.6816 39.1767 37.3663 40.4039Z" fill="#1D3557"/>
<path fill-rule="evenodd" clip-rule="evenodd" d="M17.9994 78.2041C17.8387 78.5845 17.4612 80.1375 18.2314 79.7863C18.9111 79.476 18.4707 78.4465 17.9994 78.2041ZM13.9306 73.4091C13.8117 72.8252 13.8601 69.1641 14.8686 69.4387C15.6607 69.6539 15.7915 71.5279 16.1142 72.1801C17.3158 74.6089 20.0738 76.1214 21.0249 78.6282C22.0865 81.4276 18.8768 81.5146 17.1737 80.3809C15.1571 79.0386 13.9904 75.7518 13.9306 73.4091Z" fill="#1D3557"/>
<path fill-rule="evenodd" clip-rule="evenodd" d="M11.4584 58.3978C11.896 57.8069 11.9403 57.4912 11.6908 56.9685C11.3718 57.3154 11.4284 57.8112 11.4584 58.3978ZM11.7751 61.041C9.49352 61.2965 9.37932 57.092 9.76999 55.6484C10.0812 54.4986 10.7501 53.2633 11.4388 52.3265C11.5779 52.1374 12.8969 50.4388 13.1554 50.4347C14.1478 50.419 13.8752 51.5401 13.768 51.9575C13.4309 53.2725 13.2973 54.3714 13.388 55.8293C13.4854 57.3893 14.2242 61.0929 11.7751 61.041Z" fill="#1D3557"/>
<path fill-rule="evenodd" clip-rule="evenodd" d="M115.366 24.6288C112.104 27.3647 109.007 30.3266 105.459 32.7197C103.724 33.8909 101.909 34.927 100.177 36.1172C99.2948 36.7234 98.3948 37.2662 97.4161 37.7117C96.5516 38.1054 95.9864 38.1566 96.7037 37.2223C97.1831 36.5981 98.2578 36.1632 98.911 35.7194C99.916 35.036 100.865 34.2781 101.923 33.6719C103.786 32.6025 105.639 31.7392 107.357 30.4279C108.882 29.2642 110.455 28.1281 111.911 26.8914C112.535 26.3611 114.604 23.9264 115.366 24.6288Z" fill="#1D3557"/>
<path fill-rule="evenodd" clip-rule="evenodd" d="M115.432 34.5078C116.899 35.7628 113.229 39.2009 112.391 39.9801C111.509 40.8019 110.537 41.5349 109.577 42.2629C109.239 42.5193 107.395 44.2351 106.927 44.0967C106.003 43.8233 107.216 42.7101 107.531 42.4199C108.55 41.4798 109.592 40.5675 110.589 39.6021C111.488 38.7323 112.461 37.9267 113.331 37.0287C114.035 36.3012 114.627 35.0685 115.432 34.5078Z" fill="#1D3557"/>
<path fill-rule="evenodd" clip-rule="evenodd" d="M6.73801 85.0967C6.35496 84.2091 5.66893 85.1945 6.01672 85.6378C6.34565 86.0574 6.68903 85.2672 6.73801 85.0967ZM4.49194 83.3439C4.6973 82.0387 5.17187 81.3135 6.39628 82.4275C7.23764 83.193 8.92979 85.3699 8.76922 86.5566C8.55845 88.1131 6.84405 87.6715 5.95534 86.8576C5.0444 86.0233 4.64225 84.5012 4.49194 83.3439Z" fill="#1D3557"/>
<path fill-rule="evenodd" clip-rule="evenodd" d="M7.17511 109.031C5.67518 108.917 4.39553 107.766 3.75857 106.416C3.22264 105.281 2.71537 103.452 4.59821 104.048C5.82534 104.437 10.5559 109.214 7.17511 109.031Z" fill="#1D3557"/>
<path fill-rule="evenodd" clip-rule="evenodd" d="M25.3529 101.633C24.1937 101.897 23.0472 101.133 22.3344 100.272C21.8909 99.7361 20.8587 97.8566 21.3788 97.0829C22.1036 96.0038 23.1981 98.1728 23.5756 98.6023C24.1678 99.2746 26.1043 100.561 25.3529 101.633Z" fill="#1D3557"/>
<path fill-rule="evenodd" clip-rule="evenodd" d="M26.3968 72.2826C25.4882 71.861 24.6447 71.3534 24.2792 70.3463C24.0468 69.705 23.8516 67.7817 24.8836 67.7905C26.0773 67.8011 28.8105 72.0901 26.3968 72.2826Z" fill="#1D3557"/>
<path fill-rule="evenodd" clip-rule="evenodd" d="M20.0266 52.2728C21.2431 52.2508 21.5312 52.9217 21.7003 53.8857C21.8153 54.5399 22.3725 56.7609 21.7938 57.2158C20.9669 57.8659 19.6513 56.3764 19.3854 55.7916C18.8374 54.5877 19.5951 53.4036 20.0266 52.2728Z" fill="#1D3557"/>
<path fill-rule="evenodd" clip-rule="evenodd" d="M40.9312 118.866C41.5235 119.135 42.8712 119.733 42.3562 120.66C41.8178 121.63 40.2719 120.688 39.6944 120.264C39.4527 120.086 37.9168 118.925 37.9811 118.536C38.1165 117.708 40.2337 118.788 40.9312 118.866Z" fill="#1D3557"/>
<path fill-rule="evenodd" clip-rule="evenodd" d="M1.90434 58.2974C2.30912 59.3109 2.76477 62.7932 0.633208 60.9128C-0.017274 60.3388 -0.115448 59.6221 0.108669 58.8342C0.432736 57.6923 0.90435 57.9188 1.90434 58.2974Z" fill="#1D3557"/>
<path fill-rule="evenodd" clip-rule="evenodd" d="M114.864 45.3298C114.391 44.3655 115.557 43.7435 116.18 43.1219C116.586 42.716 118.296 40.5143 118.856 40.6386C120.009 40.8945 115.43 44.8998 114.864 45.3298Z" fill="#1D3557"/>
<path fill-rule="evenodd" clip-rule="evenodd" d="M20.0113 115.18C21.1235 115.001 21.383 116.237 22.0995 116.775C22.4068 117.006 23.4617 117.209 23.2495 117.7C22.6921 118.987 19.9568 116.045 20.0113 115.18Z" fill="#1D3557"/>
<path fill-rule="evenodd" clip-rule="evenodd" d="M29.4031 86.0025C30.1676 85.6825 32.374 87.4014 31.7404 88.144C30.7934 89.255 29.457 86.6103 29.4031 86.0025Z" fill="#1D3557"/>
<path fill-rule="evenodd" clip-rule="evenodd" d="M45.517 110.871C44.9598 110.927 42.6081 110.187 43.4794 109.198C44.0911 108.503 45.7169 110.242 45.517 110.871Z" fill="#1D3557"/>
<path fill-rule="evenodd" clip-rule="evenodd" d="M17.356 106.122C16.8028 106.343 14.8075 105.889 15.4348 105.022C16.0324 104.197 17.3568 105.437 17.356 106.122Z" fill="#1D3557"/>
<path fill-rule="evenodd" clip-rule="evenodd" d="M33.691 109.861C34.3379 109.794 34.8051 110.184 34.9162 110.844C34.1072 110.959 33.8577 110.767 33.691 109.861Z" fill="#1D3557"/>
<path fill-rule="evenodd" clip-rule="evenodd" d="M117.817 13.985C118.09 13.9862 118.363 13.9876 118.633 13.9889C118.36 13.9874 118.088 13.9862 117.817 13.985Z" fill="#1D3557"/>
<path fill-rule="evenodd" clip-rule="evenodd" d="M113.529 70.8525C113.12 70.8529 112.712 70.8537 112.303 70.8541C112.712 70.8533 113.12 70.8529 113.529 70.8525Z" fill="#1D3557"/>
<path fill-rule="evenodd" clip-rule="evenodd" d="M57.8136 4.28796C57.7948 4.69681 57.776 5.10566 57.7568 5.51309C57.7752 5.1039 57.7944 4.69575 57.8136 4.28796Z" fill="#1D3557"/>
<path fill-rule="evenodd" clip-rule="evenodd" d="M184.342 73.712C184.473 74.1663 184.282 74.2416 183.769 73.9378C183.96 73.8625 184.151 73.7873 184.342 73.712Z" fill="#1D3557"/>
<path fill-rule="evenodd" clip-rule="evenodd" d="M172.743 109.341C172.948 109.342 173.153 109.344 173.356 109.345C173.15 109.344 172.947 109.342 172.743 109.341Z" fill="#1D3557"/>
<path fill-rule="evenodd" clip-rule="evenodd" d="M133.947 76.4736C133.605 76.7346 133.264 76.7713 132.927 76.4597C133.267 76.4646 133.607 76.4691 133.947 76.4736Z" fill="#1D3557"/>
<path fill-rule="evenodd" clip-rule="evenodd" d="M126.303 41.6544C126.295 41.9952 126.286 42.3358 126.277 42.6754C126.286 42.3342 126.295 41.9942 126.303 41.6544Z" fill="#1D3557"/>
<path fill-rule="evenodd" clip-rule="evenodd" d="M143.953 10.1481C143.612 10.1479 143.272 10.1475 142.932 10.1471C143.272 10.0196 143.613 10.0615 143.953 10.1481Z" fill="#1D3557"/>
<path fill-rule="evenodd" clip-rule="evenodd" d="M44.1047 5.99353C43.7645 6.01354 43.4239 6.03355 43.0837 6.05356C43.4239 6.03355 43.7645 6.01354 44.1047 5.99353Z" fill="#1D3557"/>
<path fill-rule="evenodd" clip-rule="evenodd" d="M52.4764 6.05831C52.2042 6.03524 51.9316 6.01196 51.6597 5.98889C51.9316 6.01196 52.2038 6.03524 52.4764 6.05831Z" fill="#1D3557"/>
<path fill-rule="evenodd" clip-rule="evenodd" d="M56.9685 6.38184C56.6963 6.48332 56.4241 6.54335 56.1517 6.38327C56.4241 6.38286 56.6963 6.38224 56.9685 6.38184Z" fill="#1D3557"/>
<path fill-rule="evenodd" clip-rule="evenodd" d="M32.6701 6.94104C32.3295 7.01026 31.9893 7.07948 31.6492 7.14809C31.9898 7.07948 32.3299 7.01026 32.6701 6.94104Z" fill="#1D3557"/>
<path fill-rule="evenodd" clip-rule="evenodd" d="M126.508 90.047C126.499 90.2516 126.49 90.456 126.481 90.6596C126.49 90.4548 126.499 90.2508 126.508 90.047Z" fill="#1D3557"/>
<path fill-rule="evenodd" clip-rule="evenodd" d="M13.9812 73.5078C13.9853 73.6441 13.9892 73.7805 13.9928 73.9161C13.9883 73.7793 13.9851 73.6435 13.9812 73.5078Z" fill="#1D3557"/>
<path fill-rule="evenodd" clip-rule="evenodd" d="M185.607 72.7751L184.586 72.7804C184.926 72.5268 185.266 72.5591 185.607 72.7751Z" fill="#1D3557"/>
<path fill-rule="evenodd" clip-rule="evenodd" d="M115.775 71.3291C115.502 71.2842 115.23 71.2393 114.958 71.1943C115.23 71.2393 115.502 71.2842 115.775 71.3291Z" fill="#1D3557"/>
<path fill-rule="evenodd" clip-rule="evenodd" d="M41.0418 118.835C40.7014 118.769 40.3613 118.702 40.0209 118.636L41.0418 118.835Z" fill="#1D3557"/>
<path fill-rule="evenodd" clip-rule="evenodd" d="M109.761 60.2356C109.754 60.0312 109.748 59.8268 109.742 59.623C109.748 59.8274 109.754 60.0316 109.761 60.2356Z" fill="#1D3557"/>
<path fill-rule="evenodd" clip-rule="evenodd" d="M45.1256 6.06119C44.9214 6.03607 44.717 6.01095 44.5131 5.98584C44.717 6.01095 44.9214 6.03607 45.1256 6.06119Z" fill="#1D3557"/>
<path fill-rule="evenodd" clip-rule="evenodd" d="M78.6124 1.01166C78.4083 0.949787 78.2039 0.887919 77.9999 0.82605C78.2041 0.887919 78.4083 0.949787 78.6124 1.01166Z" fill="#1D3557"/>
<path fill-rule="evenodd" clip-rule="evenodd" d="M102.911 138.733C103.047 138.742 103.184 138.75 103.319 138.758C103.182 138.75 103.046 138.742 102.911 138.733Z" fill="#1D3557"/>
<path fill-rule="evenodd" clip-rule="evenodd" d="M9.18848 29.0886C9.39348 29.0939 9.59849 29.0994 9.80104 29.105C9.59502 29.0994 9.39175 29.0939 9.18848 29.0886Z" fill="#1D3557"/>
<path fill-rule="evenodd" clip-rule="evenodd" d="M146.199 10.3475C145.858 10.3236 145.518 10.2997 145.178 10.2756C145.518 10.2997 145.858 10.3236 146.199 10.3475Z" fill="#1D3557"/>
<path fill-rule="evenodd" clip-rule="evenodd" d="M38.5915 9.39148C38.114 9.3923 37.637 9.39311 37.1622 9.39393C37.6408 9.39311 38.1162 9.3923 38.5915 9.39148Z" fill="#1D3557"/>
<path fill-rule="evenodd" clip-rule="evenodd" d="M135.061 51.4554C135.067 51.7962 135.074 52.137 135.08 52.4764C135.074 52.1354 135.068 51.7952 135.061 51.4554Z" fill="#1D3557"/>
<path fill-rule="evenodd" clip-rule="evenodd" d="M110.057 124.561C109.784 124.557 109.512 124.553 109.241 124.548C109.514 124.552 109.786 124.557 110.057 124.561Z" fill="#1D3557"/>
<path fill-rule="evenodd" clip-rule="evenodd" d="M139.052 16.3746C139.461 16.3293 139.869 16.284 140.277 16.2386C139.885 16.5854 139.462 16.3546 139.052 16.3746Z" fill="#1D3557"/>
<path fill-rule="evenodd" clip-rule="evenodd" d="M107.811 124.668C107.607 124.66 107.402 124.653 107.199 124.645C107.404 124.653 107.608 124.661 107.811 124.668Z" fill="#1D3557"/>
<path fill-rule="evenodd" clip-rule="evenodd" d="M100.751 128.23C100.762 128.571 100.772 128.912 100.782 129.251C100.772 128.91 100.762 128.57 100.751 128.23Z" fill="#1D3557"/>
<path fill-rule="evenodd" clip-rule="evenodd" d="M131.906 28.9127C132.178 28.8873 132.45 28.862 132.722 28.8369C132.474 29.0284 132.182 28.9163 131.906 28.9127Z" fill="#1D3557"/>
<path fill-rule="evenodd" clip-rule="evenodd" d="M42.6753 83.2339C42.9475 83.2841 43.2201 83.3339 43.492 83.3838C43.2199 83.3339 42.9475 83.2841 42.6753 83.2339Z" fill="#1D3557"/>
<path fill-rule="evenodd" clip-rule="evenodd" d="M85.1465 29.5061C85.4863 29.2165 85.8266 29.248 86.1674 29.5028C85.827 29.5036 85.4869 29.5049 85.1465 29.5061Z" fill="#1D3557"/>
<path fill-rule="evenodd" clip-rule="evenodd" d="M72.3698 39.8167C72.3796 39.6805 72.3891 39.5443 72.3996 39.4083C72.3902 39.5447 72.38 39.6807 72.3698 39.8167Z" fill="#1D3557"/>
<path fill-rule="evenodd" clip-rule="evenodd" d="M131.799 35.9371C131.802 36.2099 131.805 36.4825 131.808 36.7539C131.805 36.4805 131.802 36.2089 131.799 35.9371Z" fill="#1D3557"/>
<path fill-rule="evenodd" clip-rule="evenodd" d="M41.7123 78.6188C42.1603 78.7707 43.0614 79.2295 43.5835 79.1687C44.0015 79.1199 44.3459 78.6119 44.749 78.6125C45.8343 78.6139 45.6329 79.8685 45.1086 80.5419C43.6905 82.3636 40.5217 80.3883 41.7123 78.6188Z" fill="#1D3557"/>
<path fill-rule="evenodd" clip-rule="evenodd" d="M46.1418 72.0784C47.6217 72.4605 46.8846 75.7158 45.6405 75.9396C44.1757 76.2034 43.9204 73.5563 44.2098 72.5995C44.9636 73.0475 44.4968 74.6455 45.4469 74.2038C46.0511 73.9227 45.9592 72.6228 46.1418 72.0784Z" fill="#1D3557"/>
</svg>
