<svg width="42" height="42" viewBox="0 0 42 42" fill="none" xmlns="http://www.w3.org/2000/svg">
<path fill-rule="evenodd" clip-rule="evenodd" d="M28.6364 15.2727C28.6364 17.298 27.8318 19.2403 26.3997 20.6724C24.9676 22.1045 23.0253 22.9091 21 22.9091C18.9747 22.9091 17.0324 22.1045 15.6003 20.6724C14.1682 19.2403 13.3636 17.298 13.3636 15.2727C13.3636 13.2474 14.1682 11.3051 15.6003 9.87299C17.0324 8.4409 18.9747 7.63635 21 7.63635C23.0253 7.63635 24.9676 8.4409 26.3997 9.87299C27.8318 11.3051 28.6364 13.2474 28.6364 15.2727ZM24.8182 15.2727C24.8182 16.2854 24.4159 17.2565 23.6999 17.9726C22.9838 18.6886 22.0127 19.0909 21 19.0909C19.9874 19.0909 19.0162 18.6886 18.3001 17.9726C17.5841 17.2565 17.1818 16.2854 17.1818 15.2727C17.1818 14.2601 17.5841 13.2889 18.3001 12.5729C19.0162 11.8568 19.9874 11.4545 21 11.4545C22.0127 11.4545 22.9838 11.8568 23.6999 12.5729C24.4159 13.2889 24.8182 14.2601 24.8182 15.2727Z" fill="#1D3557"/>
<path fill-rule="evenodd" clip-rule="evenodd" d="M21 0C9.40227 0 0 9.40227 0 21C0 32.5977 9.40227 42 21 42C32.5977 42 42 32.5977 42 21C42 9.40227 32.5977 0 21 0ZM3.81818 21C3.81818 24.99 5.17936 28.6631 7.46073 31.5802C9.06289 29.4762 11.1298 27.7711 13.5 26.598C15.8702 25.425 18.4795 24.8159 21.1241 24.8182C23.7344 24.8157 26.3109 25.4091 28.6572 26.5531C31.0035 27.6972 33.0578 29.3617 34.6634 31.4198C36.3175 29.2503 37.4312 26.7181 37.9124 24.0328C38.3936 21.3474 38.2285 18.586 37.4306 15.9772C36.6327 13.3683 35.2251 10.9869 33.3241 9.03007C31.4232 7.07323 29.0836 5.59719 26.4989 4.72406C23.9143 3.85094 21.1588 3.60584 18.4606 4.00904C15.7625 4.41224 13.1991 5.45216 10.9826 7.04274C8.76606 8.63332 6.96018 10.7288 5.71435 13.1559C4.46851 15.583 3.81853 18.2718 3.81818 21ZM21 38.1818C17.0557 38.1877 13.2305 36.8308 10.1716 34.3407C11.4029 32.5781 13.0416 31.139 14.9485 30.1459C16.8555 29.1527 18.974 28.6348 21.1241 28.6364C23.2473 28.6347 25.3403 29.1395 27.2292 30.1091C29.1182 31.0786 30.7485 32.4848 31.9849 34.2109C28.9023 36.7819 25.014 38.1875 21 38.1818Z" fill="#1D3557"/>
</svg>
