<svg width="58" height="30" viewBox="0 0 58 30" fill="none" xmlns="http://www.w3.org/2000/svg">
<path d="M52.4375 1.0076e-06C51.6743 0.000197537 50.9227 0.186744 50.248 0.543433C49.5733 0.900122 48.9958 1.41616 48.5659 2.04673C48.1359 2.67729 47.8664 3.4033 47.7808 4.16169C47.6952 4.92007 47.7961 5.68789 48.0746 6.39844L38.211 16.2621C37.1114 15.8293 35.8886 15.8293 34.7891 16.2621L27.7379 9.21094C28.0171 8.50023 28.1185 7.73208 28.0332 6.97327C27.9479 6.21447 27.6785 5.48799 27.2485 4.85702C26.8184 4.22604 26.2408 3.70968 25.5657 3.35282C24.8906 2.99596 24.1386 2.80943 23.375 2.80943C22.6114 2.80943 21.8594 2.99596 21.1843 3.35282C20.5093 3.70968 19.9316 4.22604 19.5016 4.85702C19.0715 5.48799 18.8022 6.21447 18.7169 6.97327C18.6316 7.73208 18.7329 8.50023 19.0121 9.21094L7.27346 20.9496C6.27095 20.5563 5.1636 20.5203 4.13761 20.8474C3.11162 21.1746 2.22956 21.845 1.63975 22.746C1.04993 23.647 0.788336 24.7236 0.898944 25.7948C1.00955 26.866 1.48562 27.8665 2.24709 28.6279C3.00856 29.3894 4.00901 29.8655 5.0802 29.9761C6.15139 30.0867 7.228 29.8251 8.129 29.2353C9.03001 28.6455 9.70045 27.7634 10.0276 26.7374C10.3548 25.7114 10.3187 24.6041 9.92541 23.6016L21.6641 11.8629C22.7636 12.2957 23.9864 12.2957 25.086 11.8629L32.1371 18.9141C31.8579 19.6248 31.7566 20.3929 31.8419 21.1517C31.9272 21.9105 32.1965 22.637 32.6266 23.268C33.0566 23.899 33.6343 24.4153 34.3093 24.7722C34.9844 25.129 35.7364 25.3156 36.5 25.3156C37.2636 25.3156 38.0156 25.129 38.6907 24.7722C39.3658 24.4153 39.9434 23.899 40.3735 23.268C40.8035 22.637 41.0729 21.9105 41.1582 21.1517C41.2435 20.3929 41.1421 19.6248 40.8629 18.9141L50.7266 9.05039C51.3684 9.30255 52.058 9.40998 52.7462 9.36503C53.4343 9.32007 54.1041 9.12384 54.7077 8.79031C55.3113 8.45679 55.8338 7.99419 56.2381 7.43552C56.6424 6.87684 56.9184 6.23584 57.0465 5.55823C57.1746 4.88062 57.1516 4.18309 56.9792 3.51539C56.8067 2.84768 56.4891 2.22625 56.0489 1.6954C55.6087 1.16456 55.0568 0.737375 54.4326 0.444318C53.8083 0.151261 53.1271 -0.00045112 52.4375 1.0076e-06Z" fill="#1D3557"/>
</svg>
