<svg width="217" height="155" viewBox="0 0 217 155" fill="none" xmlns="http://www.w3.org/2000/svg">
<path fill-rule="evenodd" clip-rule="evenodd" d="M113.629 58.1562C113.46 57.9133 113.16 58.2022 113.286 58.3776C113.4 58.3039 113.515 58.2301 113.629 58.1562ZM118.273 59.5058C118.084 59.4119 118.02 59.5598 117.946 59.7303C117.924 59.7803 117.901 59.8323 117.874 59.8808C118.044 59.9739 118.122 59.8103 118.201 59.6446C118.224 59.5966 118.248 59.5481 118.273 59.5058ZM115.003 53.6775C114.624 53.194 114.596 53.3563 114.564 53.9073C114.638 53.869 114.711 53.8307 114.784 53.7922C114.857 53.7541 114.93 53.7158 115.003 53.6775ZM166.818 27.5276C166.34 27.7511 166.289 27.9134 166.675 28.1868C166.721 27.9741 166.755 27.8182 166.818 27.5276ZM113.461 50.0723C113.574 50.4417 114.036 50.5213 114.036 50.0723H113.461ZM149.237 31.0338C149.513 31.1214 149.653 31.1663 149.777 31.1379C149.906 31.1085 150.017 30.9998 150.244 30.7776C150.132 30.8062 150.032 30.8318 149.936 30.8561C149.859 30.8758 149.784 30.8946 149.709 30.9139C149.564 30.9507 149.416 30.9883 149.237 31.0338ZM136.467 68.9032C136.304 68.6734 136.141 68.4438 135.978 68.214C135.923 68.3828 135.868 68.5519 135.813 68.7208L135.813 68.7218L135.772 68.8465C136.004 68.8653 136.235 68.8841 136.467 68.9032ZM169.465 21.8798C169.4 22.1867 169.368 22.3384 169.429 22.4251C169.488 22.51 169.636 22.5326 169.929 22.5777L169.709 22.2474L169.682 22.2059C169.615 22.1052 169.544 21.9998 169.465 21.8798ZM166.881 22.8397C166.861 22.7398 166.841 22.6397 166.821 22.5398L166.817 22.5246C166.798 22.4298 166.779 22.335 166.76 22.24C166.725 22.3925 166.593 22.3843 166.464 22.376C166.354 22.3691 166.246 22.3623 166.205 22.4581C166.001 22.9325 166.648 22.8682 166.881 22.8397ZM117.68 58.2381C117.539 57.9573 117.507 57.9355 117.198 57.8767C117.278 58.1569 117.277 58.3757 117.277 58.656V58.7142C117.782 58.6427 117.941 58.6059 117.951 58.0682L117.68 58.2381ZM116.206 59.2299C116.139 59.4785 115.95 59.4184 115.789 59.367C115.643 59.3205 115.52 59.2813 115.531 59.4855C115.524 59.3674 116.111 60.1432 116.078 60.1182C116.373 60.3406 116.545 60.3196 116.879 60.0644C116.402 60.0465 116.347 59.8082 116.273 59.4883C116.254 59.4068 116.234 59.3198 116.206 59.2299ZM170.564 22.6073C170.459 22.8464 170.355 23.0857 170.251 23.3249L170.228 23.3778C170.132 23.5993 170.036 23.8208 169.939 24.0422C169.896 24.1427 169.862 24.2313 169.832 24.3079C169.694 24.6706 169.656 24.769 169.151 24.6101C169.168 24.5805 169.21 24.5219 169.261 24.4484V24.4482C169.418 24.2271 169.669 23.8714 169.641 23.7637C169.615 23.6624 169.365 23.5371 169.14 23.4237C169 23.3534 168.87 23.2878 168.806 23.2351C168.623 23.0828 168.557 22.944 168.486 22.7971C168.445 22.7108 168.402 22.6213 168.333 22.5248C168.407 22.2827 168.349 22.1695 168.16 22.1858C168.106 22.332 168.052 22.478 167.997 22.624L167.994 22.6333L167.952 22.7468C167.962 22.9717 168.073 23.0576 168.204 23.1585C168.305 23.2362 168.417 23.3225 168.503 23.4878L168.52 23.5193C168.645 23.7586 168.681 23.8276 168.661 23.8712C168.653 23.8888 168.636 23.9021 168.611 23.9209C168.561 23.9601 168.48 24.0225 168.389 24.1945C168.305 24.353 168.247 24.5267 168.19 24.6956C168.082 25.017 167.98 25.3215 167.717 25.473C167.933 25.5676 168.148 25.6622 168.363 25.7566C167.86 26.3084 168.906 26.0397 169.079 25.9861L169.079 25.9872L169.078 25.9883C168.901 26.3632 168.725 26.7379 168.548 27.1129C168.156 26.8935 167.911 26.5285 167.667 26.1654C167.581 26.0378 167.496 25.9102 167.404 25.7894C167.135 26.2887 166.866 26.7883 166.598 27.2879C166.72 27.2767 166.843 27.2653 166.965 27.254C167.11 27.2407 167.255 27.2274 167.4 27.2138C167.391 27.2299 167.367 27.2669 167.336 27.3158L167.335 27.316C167.227 27.4838 167.027 27.7919 167.049 27.8751C167.103 28.0729 167.318 28.1311 167.528 28.188C167.784 28.2574 168.033 28.3249 167.978 28.6394C167.965 28.7128 167.15 29.5353 167.01 29.6146C167.096 29.6534 167.172 29.6805 167.237 29.7039C167.483 29.7913 167.574 29.8239 167.458 30.2059C167.268 30.091 167.077 29.9758 166.887 29.8607C166.851 29.9249 166.815 29.9885 166.778 30.0524L166.777 30.0527C166.646 30.2786 166.515 30.5061 166.434 30.7545C166.454 30.963 166.417 31.1604 166.322 31.347C166.21 31.514 166.084 31.6697 165.943 31.814C165.832 32.1071 165.796 33.7068 165.931 33.9677C166.23 33.5811 166.899 34.2635 165.77 34.2635C165.676 34.2635 165.6 34.2599 165.539 34.2567C165.28 34.2438 165.273 34.2434 165.12 34.5949C164.971 34.9366 164.891 35.2347 165.312 35.2675C165.058 35.769 165.051 36.178 165.044 36.6643C165.042 36.7832 165.04 36.9068 165.034 37.0373C165.016 37.4544 164.922 37.8694 164.828 38.2807C164.801 38.4009 164.774 38.5207 164.748 38.6402C164.798 38.5683 164.848 38.4963 164.899 38.4242C164.949 38.3522 164.999 38.2803 165.049 38.2081C165.271 38.681 165.172 39.0928 165.058 39.566C165.034 39.6694 165.008 39.7761 164.985 39.8867C164.824 39.6741 164.744 39.8013 164.66 39.9354C164.597 40.0349 164.532 40.1381 164.43 40.1089C164.141 40.0264 164.151 39.9568 164.166 39.8474C164.176 39.7716 164.19 39.6768 164.108 39.5454C164.071 39.4849 164.042 39.4337 164.017 39.3888C163.928 39.2285 163.884 39.1506 163.635 39.0177C163.332 38.8563 162.866 38.8061 162.45 38.7615C162.285 38.7437 162.129 38.727 161.993 38.7043C161.2 38.5721 160.405 38.5376 159.602 38.5027L159.571 38.5012C156.526 38.3692 153.491 38.3353 150.447 38.5027C147.646 38.6567 144.777 39.0494 142.03 39.5814C141.835 39.6193 141.639 39.6572 141.444 39.6948C138.724 40.2196 136.057 40.734 133.414 41.6278C133.171 41.7103 132.927 41.8326 132.683 41.9547V41.9549C132.38 42.1073 132.076 42.2596 131.772 42.3347C131.559 42.3878 131.344 42.4187 131.129 42.4501C130.821 42.4945 130.51 42.5394 130.192 42.6498C129.475 42.8986 128.745 43.1143 128.014 43.3299C127.424 43.504 126.834 43.6784 126.25 43.8701C125.877 43.993 125.495 44.1105 125.111 44.2288C124.048 44.5559 122.965 44.889 121.982 45.3593C121.687 45.5005 121.406 45.667 121.125 45.8335C120.851 45.9956 120.578 46.1579 120.291 46.2967C120.171 46.3551 120.033 46.4123 119.887 46.4723C119.37 46.6865 118.759 46.9391 118.533 47.4178C118.42 47.6569 118.44 47.8302 118.51 48.078C118.639 48.5367 118.744 48.5266 119.059 48.4959C119.085 48.4931 119.113 48.4906 119.143 48.4878C119.477 48.4584 119.873 48.2836 120.25 48.1177C120.471 48.02 120.686 47.9254 120.877 47.8651C122.289 47.4203 123.717 47.0642 125.153 46.7079C126.237 46.4389 127.323 46.0826 128.406 45.7271C129.9 45.237 131.389 44.7482 132.864 44.4911C133.622 44.3591 134.36 44.113 135.099 43.8667C135.831 43.6225 136.565 43.3779 137.32 43.2436C137.428 43.2243 137.603 43.161 137.8 43.0901C138.207 42.9431 138.705 42.763 138.889 42.8737C138.938 42.9029 139.033 43.146 139.11 43.3411C139.148 43.4374 139.181 43.522 139.202 43.5631C139.426 44.0108 139.683 44.4431 139.983 44.8441C140.649 45.7318 141.482 46.4927 142.307 47.2468L142.307 47.247C142.606 47.52 142.904 47.7921 143.193 48.0689C144.103 48.9426 144.926 49.8825 145.752 50.8258V50.826C146.051 51.1677 146.351 51.5101 146.655 51.8497C146.709 51.7873 146.763 51.7247 146.817 51.6622L146.953 51.504C146.857 52.2467 147.361 52.7988 147.827 53.3089C147.846 53.3305 147.866 53.3519 147.886 53.3735C147.906 53.3959 147.926 53.4183 147.947 53.4405C148.533 54.0914 149.005 54.7031 149.467 55.4452C149.73 55.8669 150.044 56.2525 150.354 56.6338C150.492 56.8026 150.629 56.9709 150.76 57.141C151.006 57.4584 151.203 57.8139 151.402 58.1713C151.545 58.4286 151.688 58.6867 151.85 58.9326C152.19 59.447 152.527 59.965 152.864 60.483C153.411 61.3249 153.959 62.1665 154.515 62.9911C154.938 63.618 155.272 64.3235 155.606 65.0372C155.686 65.2082 155.815 65.4329 155.956 65.6784V65.6786C156.281 66.2472 156.671 66.9279 156.671 67.3115C156.652 67.4016 156.704 67.6433 156.759 67.8962C156.869 68.3983 156.988 68.9442 156.573 68.4368C156.545 68.4804 156.517 68.524 156.489 68.5676L156.448 68.6315C156.42 68.674 156.393 68.7165 156.365 68.7589C156.335 68.8056 156.304 68.8524 156.274 68.8989C156.445 68.8274 156.615 68.7559 156.786 68.6844C156.46 68.9802 156.723 69.1135 156.968 69.2373C157.112 69.3099 157.249 69.379 157.257 69.476C157.218 69.514 157.178 69.5519 157.139 69.5898L156.998 69.7254C156.851 70.0289 156.659 70.0682 156.424 69.8435C156.316 69.8501 156.244 69.8289 156.176 69.8088C156.08 69.7805 155.992 69.7544 155.823 69.8109C155.943 69.9986 156.078 70.0532 156.205 70.1038C156.368 70.1696 156.516 70.229 156.595 70.5659C156.695 70.9887 156.461 71.1442 156.152 71.3507C156.068 71.4062 155.979 71.4652 155.89 71.5342V71.5338L155.879 71.5319C155.902 71.2007 155.741 70.9569 155.45 70.8027V71.4534C155.53 71.468 155.61 71.4826 155.69 71.4972L155.692 71.4976L155.879 71.5319C155.879 71.5357 155.879 71.5397 155.878 71.5435L155.89 71.5342C155.822 71.7964 155.621 71.7481 155.381 71.6906C155.339 71.6804 155.296 71.67 155.252 71.6609C154.735 71.5545 154.176 71.3736 153.647 71.2024C153.482 71.1487 153.319 71.096 153.161 71.0467C151.731 70.6008 150.29 70.225 148.812 69.9201C146.302 69.4023 143.808 69.2881 141.293 69.1727H141.293C140.428 69.133 139.561 69.0932 138.69 69.0369C138.694 69.0183 138.699 69.0007 138.703 68.984C138.746 68.8062 138.763 68.7339 138.752 68.666C138.745 68.6194 138.724 68.5752 138.69 68.5003C138.685 68.4895 138.68 68.4781 138.674 68.4658C138.728 68.5832 138.631 68.5934 138.534 68.6035C138.385 68.619 138.234 68.6348 138.608 69.0297C137.631 69.1895 136.605 69.1763 135.586 69.1632C134.955 69.1552 134.327 69.1471 133.714 69.1799C133.73 69.1433 133.752 69.1052 133.773 69.0672C133.848 68.9326 133.925 68.7959 133.8 68.7019C133.256 69.4887 131.799 69.47 130.555 69.454C130.063 69.4478 129.604 69.4419 129.249 69.4863C128.819 69.5403 128.393 69.623 127.967 69.7055C127.662 69.7648 127.357 69.824 127.05 69.8725C126.999 69.8807 126.948 69.8888 126.896 69.8966C126.587 69.9449 126.277 69.9933 125.974 70.075C125.864 70.1048 125.728 70.166 125.586 70.2305C125.309 70.3556 125.005 70.4931 124.802 70.4381C125.113 69.8113 124.961 69.9925 124.815 70.1677C124.749 70.2462 124.684 70.3234 124.662 70.3266C124.62 70.3329 124.571 70.3408 124.518 70.3494C124.305 70.3839 124.019 70.4301 123.774 70.4301C123.918 69.8507 124.105 69.2902 124.292 68.7299C124.558 67.9313 124.824 67.1333 124.966 66.2827C124.984 66.1731 125.006 66.0555 125.03 65.9321V65.9319C125.198 65.0394 125.423 63.8495 124.639 63.2877C124.25 63.0093 123.665 62.9041 123.157 62.8129H123.156C123.025 62.7894 122.899 62.7668 122.783 62.7422C122.59 62.7016 122.352 62.6741 122.099 62.6449C121.54 62.5806 120.91 62.5078 120.539 62.2663C120.38 62.1633 120.269 62.0634 120.162 61.9678C119.985 61.8089 119.821 61.6618 119.476 61.531C119.35 61.4832 119.238 61.4356 119.133 61.3914C118.709 61.2115 118.418 61.0882 117.902 61.2447C117.944 61.1925 117.988 61.1423 118.031 61.0937C118.258 60.838 118.448 60.6243 118.017 60.3429C117.933 60.2883 117.817 60.2849 117.703 60.2813C117.531 60.276 117.364 60.271 117.32 60.0907C117.04 60.2881 117.014 60.4578 116.98 60.6796C116.968 60.7604 116.954 60.8482 116.927 60.9468C116.936 61.103 116.977 61.2519 117.05 61.3933L116.792 61.4974L116.445 61.637C116.521 61.4314 116.418 61.4216 116.306 61.4111C116.231 61.4041 116.152 61.3967 116.122 61.3283C116.039 61.1411 116.054 60.8808 116.067 60.6465C116.072 60.5642 116.076 60.4851 116.076 60.4136C115.66 60.545 115.225 60.7075 115.043 61.1404C114.64 60.9 114.683 60.837 114.848 60.5949C114.891 60.5312 114.943 60.4553 114.997 60.3605C114.569 60.2593 114.479 60.4794 114.414 60.8336C114.252 60.7835 114.09 60.7335 113.928 60.6836L113.923 60.6819L113.737 60.6245C114.246 60.6209 114.368 60.2236 114.38 59.7919C114.295 59.8196 114.21 59.8473 114.124 59.8751L114.122 59.8759C114.01 59.9123 113.898 59.9487 113.786 59.9851L113.664 60.6116C113.381 60.8518 112.685 60.4792 112.363 60.3071L112.362 60.3069C112.331 60.2898 112.302 60.2748 112.278 60.2623L112.196 60.2197C111.342 59.7777 111.03 59.6165 111.155 58.5689C111.2 58.196 111.266 57.8223 111.333 57.448C111.429 56.9137 111.525 56.3784 111.556 55.8428C111.608 54.9505 111.522 54.0036 111.44 53.1007C111.429 52.9803 111.418 52.8607 111.408 52.742C111.344 52.0205 111.267 51.3025 111.189 50.5854V50.5852C111.056 49.3639 110.924 48.1442 110.863 46.9101C110.849 46.6262 110.834 46.3422 110.82 46.058L110.82 46.0578C110.78 45.2813 110.741 44.5047 110.71 43.7277C110.705 43.5885 110.692 43.4471 110.68 43.3075C110.618 42.6011 110.56 41.9439 111.438 41.8813C111.31 41.4729 111.695 41.0006 112.093 40.7769C112.232 40.4602 112.384 40.4318 112.549 40.6923C112.692 40.7374 112.826 40.7162 112.949 40.6284C113.303 40.5482 113.7 40.2099 114.075 39.8912C114.313 39.6885 114.541 39.4938 114.743 39.3785C114.882 39.2998 115.065 39.2111 115.265 39.1142H115.265C115.802 38.8539 116.464 38.5329 116.729 38.1764C116.926 37.9117 116.847 37.8118 116.757 37.6992C116.686 37.6104 116.609 37.5139 116.657 37.3226C116.794 36.7673 117.272 37.4792 117.4 37.669C117.408 37.6817 117.416 37.6922 117.421 37.6996C117.478 37.6423 117.586 37.5689 117.707 37.487C117.965 37.3126 118.28 37.0998 118.275 36.922L117.773 36.8325C117.826 36.8016 117.899 36.7525 117.981 36.6977C118.177 36.5655 118.424 36.3994 118.574 36.37C118.651 36.3549 118.706 36.3389 118.746 36.3268C118.797 36.312 118.826 36.3031 118.852 36.3099C118.888 36.3192 118.916 36.36 118.985 36.4588C119.012 36.4982 119.046 36.5466 119.089 36.6059C119.118 36.5621 119.157 36.4899 119.203 36.4068V36.4066C119.321 36.1937 119.478 35.9074 119.588 35.8327C119.632 35.8035 119.8 35.78 119.949 35.7593C120.054 35.7445 120.15 35.7311 120.188 35.7178C120.451 35.6249 120.553 35.4698 120.652 35.3204C120.73 35.2009 120.807 35.0847 120.962 35.0068C121.052 34.9615 121.154 34.9776 121.25 34.9931C121.334 35.0066 121.414 35.0193 121.48 34.9905C121.599 34.9387 121.656 34.8208 121.712 34.703C121.764 34.5961 121.815 34.4893 121.913 34.4311C122.009 34.3737 122.184 34.3731 122.359 34.3725C122.508 34.372 122.656 34.3714 122.753 34.3359C122.988 34.2499 123.059 34.1681 123.159 34.0532C123.208 33.9962 123.265 33.9313 123.352 33.8534C123.563 33.6653 123.764 33.6005 123.974 33.5326C124.131 33.482 124.293 33.4298 124.469 33.3233C124.677 33.197 124.767 32.9928 124.851 32.8045C124.938 32.6086 125.017 32.4298 125.214 32.3731C125.436 32.3094 125.586 32.3635 125.708 32.4073C125.87 32.4653 125.981 32.5053 126.14 32.2311C126.166 32.1877 126.135 32.1356 126.1 32.0777C126.049 31.9911 125.99 31.8917 126.097 31.7878C126.289 31.6024 126.383 31.7698 126.471 31.9259C126.484 31.9496 126.497 31.9731 126.511 31.9951L126.511 31.9939L126.512 31.9926C126.628 31.7736 126.744 31.5546 126.86 31.3356C127.203 31.5233 127.248 31.4482 127.329 31.3134C127.381 31.2277 127.447 31.1178 127.613 31.036C127.704 30.9911 127.787 31.0104 127.873 31.03C127.965 31.0512 128.059 31.073 128.167 31.0142C128.259 30.9647 128.305 30.88 128.351 30.7962C128.382 30.7397 128.412 30.6836 128.456 30.6386C128.52 30.5734 128.576 30.5008 128.631 30.4285C128.758 30.2621 128.884 30.0971 129.111 30.0256C128.993 30.0624 129.962 30.0345 129.876 29.993C129.782 29.8546 129.687 29.7162 129.593 29.5778C129.695 29.5778 129.796 29.5799 129.894 29.5821H129.894C130.281 29.5899 130.642 29.5975 131.034 29.4758L131.042 29.4735C131.216 29.4195 131.481 29.3375 131.623 29.2287L131.635 29.2198C131.811 29.0854 131.888 29.0268 131.919 28.9496C131.944 28.8895 131.941 28.8182 131.936 28.6916C131.934 28.6254 131.931 28.5442 131.931 28.4413C132.479 28.79 133.176 28.6682 133.717 28.2638C133.838 28.1734 133.94 28.0755 134.042 27.9779C134.178 27.8476 134.313 27.7183 134.49 27.6091C134.623 27.5403 134.758 27.476 134.895 27.4163C135.067 27.2386 135.239 27.2369 135.411 27.4115C135.583 27.3653 135.632 27.3294 135.713 27.2708C135.746 27.2462 135.785 27.2176 135.841 27.1827C135.895 27.0757 135.953 26.9705 136.015 26.8675C136.217 26.8463 136.417 26.8097 136.614 26.7576C136.836 26.6982 137.032 26.6129 137.216 26.5329C137.668 26.3368 138.047 26.1721 138.552 26.4936L138.608 26.3803L138.61 26.3763C138.681 26.2301 138.753 26.0839 138.824 25.9377C139.039 26.2722 139.205 26.1436 139.426 25.972C139.517 25.9013 139.618 25.8234 139.735 25.7676C139.82 25.7267 139.919 25.7015 140.016 25.677C140.108 25.6533 140.199 25.6302 140.273 25.5943C140.359 25.6144 140.445 25.6347 140.53 25.655C140.603 25.4307 140.675 25.2064 140.747 24.9821C140.786 24.9971 140.854 25.0297 140.938 25.0693C141.17 25.1802 141.519 25.346 141.647 25.3338C141.784 25.3209 141.936 25.188 142.085 25.0574C142.208 24.9499 142.328 24.8439 142.437 24.808C142.648 24.7388 142.695 24.761 142.764 24.7936C142.816 24.8183 142.881 24.8486 143.037 24.8496C143.073 24.8498 143.107 24.8509 143.139 24.8518C143.351 24.8573 143.478 24.8606 143.687 24.6571C143.012 24.4817 143.604 24.3833 144.022 24.3139C144.107 24.2997 144.185 24.2868 144.243 24.2745C144.391 24.2438 144.519 24.2305 144.635 24.2186C144.938 24.1875 145.156 24.1651 145.424 23.86H145.039C145.32 23.6037 145.323 23.6044 145.468 23.6357C145.519 23.6465 145.588 23.6613 145.691 23.67C145.719 23.6723 145.768 23.6888 145.827 23.7089C146.034 23.7794 146.366 23.8926 146.367 23.5798C146.884 23.8847 146.89 23.8854 147.423 23.7478C147.52 23.7229 147.611 23.6748 147.703 23.6266C147.834 23.557 147.967 23.4867 148.12 23.484C148.241 23.4819 148.345 23.5068 148.446 23.5307C148.557 23.5572 148.663 23.5824 148.781 23.5695C148.903 23.5566 149.297 23.4122 149.491 23.3407C149.514 23.3325 149.533 23.3253 149.55 23.3193C149.673 23.2743 149.776 23.2045 149.878 23.1357C149.984 23.0633 150.089 22.9922 150.213 22.9531C150.355 22.9082 150.518 22.9156 150.682 22.923C150.826 22.9296 150.969 22.9361 151.101 22.9074C151.373 22.8475 151.609 22.754 151.834 22.6644C152.299 22.4797 152.719 22.3126 153.328 22.4947C153.422 21.7089 154.376 21.8568 154.928 21.9423L154.974 21.9495C155.075 21.9651 155.163 21.9873 155.245 22.0083C155.469 22.0652 155.649 22.1111 155.935 21.9755C156.073 21.9101 156.186 21.828 156.298 21.7463C156.444 21.6399 156.589 21.5341 156.789 21.4662C157.017 21.3887 157.312 21.329 157.569 21.277C157.618 21.267 157.665 21.2575 157.71 21.248C157.886 21.1926 158.065 21.1748 158.248 21.1949C158.444 21.2224 158.605 21.3111 158.734 21.4607C158.73 21.4689 158.733 21.4734 158.744 21.4725C158.74 21.4685 158.737 21.4647 158.734 21.4607C158.761 21.3946 159.189 21.0777 159.14 21.1168C159.24 21.0366 159.324 20.9913 159.397 20.9513C159.558 20.8642 159.67 20.8028 159.805 20.4617C159.691 20.4378 159.577 20.4137 159.463 20.3895C159.349 20.3656 159.235 20.3415 159.121 20.3174C159.161 20.3146 159.201 20.3119 159.239 20.3089C159.534 20.2867 159.773 20.2689 160.051 20.39C160.142 20.4302 160.261 20.5436 160.383 20.6608C160.549 20.8199 160.723 20.986 160.848 20.9863C161.24 20.9867 161.377 20.4342 161.338 20.1466C161.667 20.9128 161.948 21.0404 162.687 20.6488C162.73 20.6257 162.774 20.6028 162.817 20.5798L162.822 20.5768C162.864 20.5548 162.906 20.5328 162.947 20.5106C163.123 20.3263 163.298 20.3297 163.472 20.5209C163.575 20.5772 163.678 20.6333 163.782 20.6896L163.86 20.5592C163.958 20.3961 164.056 20.233 164.154 20.0696C164.418 20.4327 164.668 20.4505 165.098 20.3656C165.245 20.3369 165.467 20.1917 165.68 20.0518C165.9 19.9079 166.111 19.77 166.222 19.77C166.282 19.77 166.351 19.8402 166.429 19.9202C166.514 20.008 166.611 20.1077 166.722 20.1392C167.072 20.2395 167.615 19.9873 167.74 19.6525C167.806 19.7922 167.872 19.9321 167.938 20.0719C167.98 20.0336 168.021 19.9951 168.062 19.9568C168.186 19.8409 168.31 19.7247 168.434 19.6079C168.478 19.989 168.769 19.9831 169.022 19.978C169.21 19.9742 169.376 19.9708 169.409 20.1229C169.447 20.3011 168.927 20.6877 168.617 20.9179C168.535 20.9791 168.467 21.0294 168.429 21.0616C168.919 21.357 169.521 20.8411 169.965 20.4617C170.054 20.3849 170.137 20.3136 170.212 20.2558C170.439 20.5027 170.516 20.6325 170.307 20.9149C170.116 21.1744 170.028 21.1202 169.927 21.0571C169.833 20.9989 169.727 20.9334 169.517 21.0999C169.662 21.3441 169.794 21.2827 169.958 21.2059C170 21.186 170.044 21.1653 170.092 21.1483C170.033 21.4926 170.085 21.5091 170.174 21.537C170.238 21.5571 170.32 21.5832 170.394 21.7389C170.503 21.9685 170.52 22.1528 170.54 22.3754C170.546 22.4478 170.553 22.5242 170.564 22.6073ZM103.053 52.3762C103.251 52.3593 103.307 52.4505 103.357 52.5326C103.399 52.602 103.438 52.6646 103.554 52.6494C103.653 52.6365 103.732 52.5319 103.814 52.4246C103.885 52.3315 103.957 52.2363 104.045 52.198C104.444 52.0235 105.024 51.9966 105.555 51.972C105.805 51.9606 106.044 51.9494 106.249 51.9238C106.587 51.8817 106.905 51.7826 107.22 51.6847V51.6845C107.515 51.5926 107.808 51.5014 108.112 51.4589C108.37 51.4229 108.558 51.4697 108.803 51.5412C108.821 51.5465 108.838 51.5514 108.855 51.5562C109.083 51.6229 109.196 51.6557 109.264 51.7295C109.33 51.8013 109.354 51.9119 109.402 52.1301L109.404 52.139C109.654 53.2924 109.461 54.5191 109.267 55.7449C109.015 57.3507 108.762 58.9548 109.506 60.3909C105.669 60.3598 101.823 60.4364 98.0082 60.8861C98.0082 60.5488 98.0107 60.2117 98.0133 59.8746C98.0218 58.7623 98.0302 57.6511 97.9462 56.5394C97.9077 56.0309 97.8546 55.5239 97.8015 55.0167V55.0165C97.7858 54.8682 97.7704 54.7197 97.7551 54.5711C97.6754 53.7888 97.6942 53.785 98.2628 53.6682C98.2989 53.6608 98.3375 53.653 98.3783 53.6443C98.581 53.6018 98.7101 53.5104 98.8459 53.4141C98.9498 53.3404 99.058 53.2638 99.2061 53.204C99.3781 53.1343 99.4864 53.1688 99.6155 53.2099C99.679 53.23 99.7473 53.2518 99.8309 53.2634C100.157 53.3095 100.251 53.2829 100.433 53.2315C100.504 53.2114 100.588 53.1877 100.704 53.1629C100.92 53.1168 101.128 53.0859 101.33 53.0561C101.958 52.963 102.521 52.8794 103.053 52.3762ZM170.509 28.6745C170.454 28.6421 170.398 28.61 170.343 28.5776C169.687 29.9667 169.258 31.4145 168.822 32.8813C168.759 33.095 168.695 33.3092 168.631 33.5237C168.368 34.3987 168.107 35.2739 167.847 36.1495C167.799 36.3105 167.74 36.4775 167.681 36.648C167.483 37.2145 167.272 37.8203 167.38 38.3744C168.208 37.0976 168.996 35.7948 169.745 34.47C170.11 33.824 170.466 33.1729 170.814 32.5176C170.86 32.4327 170.916 32.3424 170.973 32.2493C171.099 32.047 171.233 31.8311 171.282 31.6255C171.344 31.3616 171.407 31.2835 171.39 31.2359C171.373 31.1917 171.286 31.1739 171.064 31.0584C171.241 30.8569 171.357 30.9126 171.453 30.9589C171.508 30.9852 171.557 31.0087 171.607 30.9795C171.731 30.9077 171.899 30.6851 172.032 30.5089C172.087 30.4363 172.136 30.3713 172.174 30.3284C172.07 30.299 171.9 30.267 171.701 30.2298C171.191 30.1339 170.499 30.0042 170.309 29.7958C170.005 29.4625 170.33 29.172 170.648 28.887C170.678 28.8603 170.708 28.8338 170.737 28.8072C170.661 28.763 170.585 28.7187 170.509 28.6745Z" fill="#FF5678"/>
<path fill-rule="evenodd" clip-rule="evenodd" d="M83.9208 85.0027C83.831 85.4646 83.6068 85.6822 83.8418 86.1064C84.0414 86.4668 84.6135 86.7027 84.9976 86.6115L83.9208 85.0027ZM73.5156 68.5729L71.6211 69.2223C72.1389 69.7303 72.6324 70.2644 73.2032 70.7155L73.5156 68.5729ZM104.764 70.236C103.861 69.7807 102.849 69.7293 101.858 69.6709C102.009 70.484 102.16 71.2974 102.31 72.1106C103.128 71.4857 103.947 70.8609 104.764 70.236ZM83.0684 133.186C82.8882 132.867 81.6583 130.399 81.4027 130.526C81.2671 130.593 81.2565 131.967 81.2366 132.162C81.1662 132.857 81.0955 133.552 81.025 134.247C81.7525 133.99 82.5295 133.777 83.0684 133.186ZM74.4758 113.242C74.6618 113.787 74.848 114.332 75.034 114.877C75.1225 115.137 75.1743 115.519 75.3309 115.748C75.5342 116.044 75.3808 116.219 75.6523 115.894C75.9439 115.545 76.0311 114.615 76.1576 114.187C76.3499 113.538 76.5421 112.889 76.7342 112.24C75.8284 112.232 75.2793 112.978 74.4758 113.242ZM55.4399 81.1336C54.326 81.895 53.1984 82.6502 52.2293 83.5964C53.0818 83.5433 54.2689 84.1299 55.0719 83.8544C55.4427 83.9335 55.5652 83.7928 55.4399 83.4318V82.6819V81.1336ZM71.9557 86.5192V90.9643C72.9957 90.0781 74.0903 89.255 75.0909 88.3231C74.0458 87.7218 73.001 87.1206 71.9557 86.5192ZM109.134 98.0368C108.806 100.016 108.788 102.052 108.698 104.055C108.682 104.41 108.545 104.945 108.782 105.257C109.019 105.569 109.696 105.742 110.04 105.908C111.008 106.378 111.97 106.86 112.935 107.335C111.668 104.236 110.401 101.136 109.134 98.0368ZM133.711 85.8671C136.1 84.6931 138.488 83.5192 140.876 82.345C138.535 81.3537 136.193 80.3626 133.851 79.3712C133.805 81.5365 133.758 83.702 133.711 85.8671ZM109.129 91.3943C109.565 91.4256 109.634 89.7631 109.706 89.3234C109.844 88.4888 109.985 87.6549 110.129 86.8214C110.419 85.1553 110.723 83.4917 111.043 81.8313C111.682 78.5108 112.388 75.2029 113.17 71.9132C112.33 71.7617 111.558 71.6527 110.737 71.4081C110.074 71.2104 109.284 71.3179 108.693 70.907C108.616 72.4485 109.001 74.0874 109.143 75.6289C109.308 77.4124 109.397 79.1867 109.382 80.9783C109.353 84.4504 109.221 87.9234 109.129 91.3943ZM54.1591 138.437C54.573 138.327 54.0095 132.653 53.9843 131.835C53.9124 129.466 53.8984 127.095 53.9407 124.726C51.7109 126.124 49.4292 127.412 47.0737 128.573C47.6791 129.359 48.2464 130.205 48.9163 130.936C49.6065 131.689 50.3983 132.306 51.038 133.116C52.3258 134.749 53.2079 136.602 54.1591 138.437ZM107.818 104.873C107.922 103.167 108.018 101.464 108.19 99.7624C108.263 99.0383 108.963 95.1908 107.843 95.2812C107.205 95.3326 106.087 96.2653 105.503 96.5922C104.731 97.0239 103.958 97.4543 103.182 97.8794C101.652 98.7182 100.111 99.5383 98.5747 100.367C101.656 101.869 104.737 103.371 107.818 104.873ZM101.166 69.3884C99.8895 69.2932 98.6559 69.1984 97.3971 68.9607C96.7183 68.8325 96.0395 68.8503 95.3571 68.7637C94.8683 68.7017 93.9129 68.3003 93.4576 68.4317C92.8854 68.5968 92.6776 71.4642 92.5989 72.1838C92.4721 73.3429 92.3867 74.7492 92.9044 75.8381C93.9023 77.9372 96.5911 76.2988 97.8992 75.4183C99.0205 74.6633 100.291 73.8988 101.285 72.9824C102.166 72.1705 101.375 70.4375 101.166 69.3884ZM107.784 92.2147C108.745 91.8257 108.73 91.3374 108.772 90.3314C108.823 89.1092 108.852 87.8855 108.887 86.6627C108.95 84.4837 109.008 82.3036 108.989 80.1232C108.97 77.9935 108.866 75.8671 108.622 73.7505C108.536 73.0021 108.622 71.7238 108.227 71.0854C107.867 70.5031 106.75 70.4969 106.14 70.5329C105.453 70.5733 104.896 71.2261 104.389 71.6387C103.827 72.096 102.673 72.7397 102.581 73.4215C102.478 74.1828 102.896 75.2691 103.058 76.0076C103.651 78.7028 104.372 81.3715 105.132 84.0237C105.92 86.7753 106.718 89.5546 107.784 92.2147ZM83.3552 85.7634C83.4172 85.1578 83.6425 84.6521 83.3378 84.0753C83.076 83.5793 82.6499 83.081 82.3298 82.6114C81.4135 81.2665 80.386 79.9783 79.3879 78.6935C78.4738 77.5168 77.5372 76.3525 76.5791 75.2114C76.0455 74.5759 75.4953 73.9543 74.9485 73.33C74.548 72.8732 74.1684 72.2312 73.6019 71.9921C73.1844 74.6153 72.8395 77.2499 72.5704 79.8926C72.4404 81.17 72.3283 82.4493 72.2341 83.7299C72.2075 84.0914 71.9271 85.3121 72.1063 85.6487C72.2949 86.0023 73.447 86.4754 73.7997 86.6921C74.7858 87.2981 75.552 88.2112 76.4898 87.215C77.1354 86.529 77.6553 85.562 78.3769 84.9634C78.7529 84.6515 79.1069 84.6661 79.5286 84.4809C80.0189 84.2659 80.0343 84.0588 80.6202 84.3514C81.6073 84.8442 82.207 85.5726 83.3552 85.7634ZM33.9363 99.2603C33.9363 101.076 33.8121 102.569 35.0432 104.04C36.119 105.325 37.2368 105.622 38.75 106.129C39.641 106.427 39.7032 106.152 40.4252 105.648C41.1114 105.169 41.8586 104.785 42.5353 104.291C43.9939 103.227 45.4513 102.129 46.8689 101.01C47.3454 100.633 47.2751 100.762 47.2028 100.31C47.1365 99.8985 46.8411 99.3745 46.6797 98.9831C46.3877 98.2749 46.0436 97.5895 45.6993 96.9054C45.3085 96.1292 44.9681 95.2862 44.4826 94.5626C44.2812 94.2623 44.0421 93.9906 43.807 93.7168C43.3121 93.1402 43.3296 93.1616 42.7378 93.6328C41.4883 94.628 40.3258 95.7052 38.9195 96.4833C37.2557 97.4041 35.5959 98.3312 33.9363 99.2603ZM71.6114 85.1921C71.7919 82.5848 71.9954 79.9918 72.308 77.3964C72.4686 76.0637 72.6554 74.7346 72.8372 73.4047C72.9112 72.8633 73.1969 71.9544 73.0378 71.4284C72.8814 70.9106 72.1912 70.4178 71.8124 70.0433C71.7106 69.9426 71.3977 69.52 71.2631 69.5009C71.119 69.4808 70.5767 69.878 70.4203 69.9675C69.8672 70.2847 69.324 70.6182 68.7891 70.9652C67.781 71.6193 66.8043 72.3211 65.8485 73.0493C63.8442 74.5759 61.9328 76.2188 59.9711 77.799C61.7684 79.3742 63.9807 80.5974 65.9902 81.8732C67.1784 82.6275 68.3726 83.3736 69.5824 84.0928C70.1958 84.4572 70.9072 85.0144 71.6114 85.1921ZM47.0417 131.816C45.5904 132.776 44.2044 133.789 42.563 134.405C40.929 135.018 39.3141 135.254 37.6253 135.618C36.7737 135.802 35.9732 136.003 35.1039 136.132C34.6168 136.204 33.8629 136.176 33.4187 136.382C33.0233 136.297 32.8823 136.432 32.9964 136.786C33.0006 136.896 33.0049 137.006 33.0091 137.116C33.121 138.647 34.1047 140.489 34.9628 141.733C35.4636 142.459 36.1018 143.135 36.736 143.746C37.452 144.436 37.8649 144.922 38.863 144.633C40.5454 144.146 42.0302 143.166 43.7355 142.733C45.0844 142.391 46.2048 141.675 47.5204 141.304C49.1427 140.846 50.7481 140.325 52.3929 139.943C51.6582 138.525 51.0012 137.048 50.0606 135.749C49.0959 134.416 48.0322 133.135 47.0417 131.816ZM55.9431 84.0969C58.9783 84.701 62.268 85.2602 64.9845 86.8271C66.0446 87.4387 67.3885 88.3839 67.6989 89.6486C68.0701 91.1603 66.6109 92.0966 65.3921 92.5685C63.9286 93.1349 62.3357 93.352 60.7851 93.5306C59.9643 93.6252 59.1397 93.6768 58.3151 93.7236C57.6477 93.7617 56.5159 93.615 55.9058 93.8795C55.5237 93.8033 55.3912 93.9582 55.5085 94.3444C55.5013 94.483 55.4943 94.6218 55.4873 94.7604L55.424 96.0067C55.3819 96.8366 55.3398 97.6667 55.2975 98.4966C55.2059 100.305 55.114 102.113 55.0224 103.921C56.6122 102.936 57.8934 101.525 59.4472 100.474C60.1859 99.9749 60.9193 99.4742 61.655 98.9763C61.9635 98.7677 62.152 98.475 62.4557 98.2806C62.8584 98.0226 63.2153 97.8675 63.593 97.5296C65.1356 96.15 66.851 94.9574 68.4871 93.691C69.2303 93.1154 70.0439 92.5864 70.751 91.9692C71.4916 91.3226 71.3892 90.7902 71.371 89.8606C71.352 88.8765 71.7132 87.6545 71.5456 86.7055C71.6863 86.3834 71.5782 86.183 71.2216 86.1043C70.9834 85.952 70.7453 85.7996 70.507 85.6472C70.032 85.3434 69.557 85.0395 69.0819 84.7359C67.1921 83.5275 65.3026 82.3188 63.4128 81.1103C62.4688 80.5067 61.5249 79.903 60.5807 79.2993C60.3171 79.1308 59.4571 78.3691 59.1613 78.3915C58.8596 78.4144 58.3361 79.0034 58.1099 79.1909C57.7628 79.4783 57.426 79.7807 57.051 80.0322C56.8642 80.1617 56.6691 80.2773 56.4659 80.3791C56.1411 80.4104 56.0284 80.5888 56.1272 80.914C55.8419 81.8289 55.9987 83.1358 55.9431 84.0969ZM98.0328 127.231C97.3455 124.017 96.4591 120.213 93.7783 118.027C91.0595 115.81 87.0846 116.667 84.9578 119.27C83.8926 120.574 83.2322 122.115 82.7417 123.713C82.2381 125.352 81.496 127.488 81.6319 129.222C81.6914 129.982 82.3427 130.799 82.7149 131.462C83.0989 132.147 83.3539 133.129 84.2591 132.892C85.6626 132.524 87.0901 131.679 88.4035 131.075C89.7319 130.463 91.1306 129.96 92.5081 129.369C93.4226 128.977 94.3721 128.679 95.2843 128.281C96.1493 127.904 97.2907 127.813 98.0328 127.231ZM138.645 108.093C140.562 108.779 141.559 107.681 142.908 106.444C144.186 105.273 145.57 104.146 146.747 102.873C147.96 101.56 148.92 100.009 149.853 98.4924C150.796 96.96 152.071 95.3049 152.652 93.5981C152.948 92.7299 153.074 91.768 153.26 90.8706C153.305 90.6545 153.606 89.8507 153.51 89.6689C153.378 89.419 152.541 89.3926 152.312 89.3562C150.482 89.0669 148.544 89.0525 146.709 89.3111C143.159 89.8113 140.19 91.8023 139.068 95.2835C137.753 99.3644 138.385 103.9 138.645 108.093ZM126.215 72.6961C126.186 73.4026 127.879 73.599 128.318 73.7638C129.333 74.1443 130.341 74.5461 131.326 74.9964C133.355 75.9236 135.518 76.5277 137.461 77.6488C141.648 80.0655 146.194 81.7691 150.424 84.0806C151.083 84.4409 152.371 85.3087 153.124 85.2353C153.524 85.1963 153.226 85.5184 153.486 84.8823C153.579 84.6534 153.61 84.3556 153.662 84.1104C153.819 83.3755 153.941 82.6339 154.117 81.903C154.406 80.7001 154.702 79.5841 154.824 78.3477C154.876 77.8238 154.933 77.3005 154.939 76.7736C154.945 76.2395 155.068 74.9014 154.827 74.439C154.667 74.1324 154.635 74.2376 154.236 74.151C154.007 74.1015 153.767 73.9985 153.546 73.9297C153.028 73.7685 152.509 73.6136 151.966 73.5662C151.429 73.5192 151.086 73.3559 150.583 73.2611C150.055 73.1616 149.512 73.2822 148.974 73.1434C148.393 72.9934 148.116 72.8565 147.509 72.9138C146.921 72.9693 146.751 72.8389 146.175 72.6785C145.694 72.5448 145.121 72.6383 144.62 72.5977C144.013 72.5482 143.409 72.4724 142.801 72.4244C140.072 72.2084 137.31 72.5287 134.574 72.5033C133.086 72.4896 131.63 72.7092 130.145 72.6413C128.846 72.582 127.504 72.596 126.215 72.6961ZM133.316 87.0825C131.989 87.5882 130.757 88.4097 129.526 89.1171C128.107 89.9328 126.748 90.7995 125.434 91.7777C123.225 93.4227 120.647 95.395 120.066 98.2654C119.469 101.211 122.028 103.625 124.426 104.83C127.162 106.205 130.344 106.915 133.34 107.44C133.02 100.659 133.095 93.866 133.316 87.0825ZM93.5923 103.048C92.7868 103.271 92.1048 103.747 91.3574 104.1C90.6881 104.416 90.0404 104.654 89.4152 105.061C88.3963 105.724 87.2151 106.292 86.15 106.804C83.5143 108.072 80.9554 109.647 78.346 111.053C77.6545 111.425 77.4278 111.661 77.1936 112.427C76.9392 113.26 76.6995 114.099 76.4545 114.935C76.2259 115.714 75.8612 116.548 75.9572 117.371C76.041 118.086 76.4113 118.762 76.6904 119.415C77.3933 121.058 78.1553 122.675 78.9427 124.279C79.6492 125.719 80.2939 127.247 81.2009 128.571C81.9057 124.895 82.5382 120.775 85.2706 117.974C88.0008 115.175 92.3566 115.135 94.9876 118.025C96.2375 119.398 96.9982 121.126 97.5962 122.863C97.9102 123.776 98.1212 124.706 98.3233 125.648C98.5391 126.655 98.486 127.189 99.5969 126.884C100.479 126.642 101.414 126.449 102.279 126.172C102.728 126.029 103.165 125.868 103.186 125.514C103.211 125.066 102.609 124.15 102.431 123.729C101.512 121.555 100.593 119.382 99.6735 117.208C98.6754 114.848 97.6771 112.488 96.6785 110.129C96.1804 108.951 95.6821 107.774 95.1838 106.596C94.7293 105.523 94.3507 103.929 93.5923 103.048ZM133.391 84.6955C133.406 83.6225 133.424 82.5494 133.438 81.4762C133.446 80.8367 133.731 79.6002 133.174 79.1433C132.829 78.8602 131.804 78.6431 131.368 78.4493C130.506 78.0671 129.573 77.8966 128.706 77.517C125.31 76.0296 121.777 74.7909 118.281 73.5922C117.527 73.3336 116.757 73.122 115.998 72.8675C115.589 72.7302 114.071 71.9231 113.692 72.1343C113.36 72.319 113.11 74.5197 113.004 74.9765C112.752 76.0582 112.511 77.1426 112.28 78.229C111.383 82.4466 110.63 86.6938 109.93 90.9482C111.79 90.2421 113.572 89.0187 115.329 88.0728C117.154 87.0904 118.973 86.1102 120.81 85.1504C121.329 84.8793 123.154 83.6339 123.581 84.1227C124.266 84.9071 122.634 85.8271 122.205 86.1631C120.548 87.463 118.797 88.5961 117.025 89.7298C115.188 90.9051 113.277 91.9432 111.431 93.0968C110.765 93.5132 109.701 94.0202 109.439 94.7236C109.102 95.6284 109.345 96.7281 109.652 97.5925C110.405 99.7167 111.23 101.815 112.103 103.893C112.5 104.837 112.906 105.778 113.321 106.715C113.815 107.831 114.462 108.067 115.538 108.58C120.12 110.768 124.879 112.845 129.28 115.377C128.544 116.225 126.748 114.831 126.022 114.479C124.675 113.825 123.328 113.173 121.983 112.517C119.477 111.296 116.984 110.05 114.463 108.858C116.079 112.531 117.985 116.071 120.098 119.481C119.564 119.661 119.695 119.671 119.36 119.35C119.078 119.08 118.888 118.55 118.697 118.211C118.302 117.51 117.912 116.806 117.514 116.107C116.689 114.655 115.833 113.226 115.079 111.735C114.512 110.614 114.073 108.654 112.907 108.089C111.455 107.384 109.983 106.698 108.531 105.984C108.531 111.569 108.933 117.03 109.522 122.581C109.552 122.861 109.82 123.687 109.279 123.606C109.035 123.569 108.953 122.038 108.91 121.718C108.713 120.252 108.546 118.782 108.41 117.309C108.138 114.371 107.99 111.42 107.971 108.468C107.622 111.338 107.274 114.207 106.925 117.077L106.43 121.156C106.343 121.87 106.256 122.584 106.17 123.298C106.13 123.627 106.155 124.056 106.04 124.368C105.858 124.861 105.919 124.823 105.351 125.048C105.894 121.311 106.396 117.568 106.841 113.818C107.057 111.989 107.261 110.157 107.448 108.325C107.498 107.832 107.548 107.339 107.596 106.845C107.62 106.594 107.837 105.786 107.717 105.577C107.597 105.37 106.808 105.154 106.58 105.049C106.082 104.818 105.584 104.587 105.087 104.354C103.472 103.6 101.858 102.839 100.261 102.047C99.5624 101.701 98.8296 101.166 98.0698 100.981C97.3133 100.797 96.7632 101.323 96.1163 101.658C95.6129 101.919 94.4269 102.265 94.0907 102.708C93.7777 103.12 94.7496 104.768 95.005 105.375C95.725 107.089 96.4453 108.803 97.1656 110.517C98.6259 113.992 100.086 117.468 101.547 120.943C101.904 121.793 102.261 122.642 102.618 123.492C102.846 124.036 103.228 125.588 103.783 125.648C104.029 125.675 104.432 125.408 104.67 125.331C105.024 125.217 105.351 125.218 105.707 125.158C106.358 125.048 107.034 124.712 107.674 124.476C109.318 123.87 111.022 123.479 112.679 122.913C114.344 122.344 115.982 121.705 117.64 121.136C119.146 120.62 120.666 120.032 122.113 119.359C123.641 118.649 125.208 118.023 126.697 117.235C129.409 115.801 132.091 114.461 134.487 112.702C135.051 112.288 135.651 111.873 136.208 111.43C136.697 111.041 137.629 110.561 137.962 110.05C138.088 109.855 138.197 109.473 138.049 109.242C137.89 108.993 137.186 109.016 136.858 108.972C135.821 108.833 134.784 108.693 133.747 108.554C133.826 109.236 133.907 109.917 133.965 110.602C134.005 111.085 134.291 112.362 133.906 112.74C133.376 112.237 133.546 110.732 133.499 110.062C133.474 109.704 133.565 109.003 133.404 108.685C133.229 108.336 132.743 108.341 132.302 108.246C130.435 107.842 128.585 107.503 126.778 106.863C123.726 105.782 120.077 103.956 119.395 100.435C118.685 96.7647 121.808 93.5843 124.437 91.5371C126.012 90.3115 127.687 89.2504 129.419 88.2652C130.229 87.8049 131.038 87.3445 131.853 86.894C132.15 86.7302 133.123 86.3927 133.279 86.1062C133.439 85.8131 133.357 85.0294 133.391 84.6955ZM68.0874 141.067C67.9393 141.139 67.791 141.211 67.6431 141.284C69.2904 136.589 70.9224 131.916 72.2997 127.134C72.9646 124.825 73.6381 122.519 74.3256 120.218C74.6225 119.225 75.3514 117.857 75.1489 116.829C74.9297 115.716 74.4041 114.531 73.9974 113.473C71.3941 115.109 68.7362 116.662 66.0895 118.224C63.7168 119.625 61.304 120.871 58.9146 122.257C57.6903 122.967 56.4272 123.447 55.1494 124.027C54.1111 124.499 54.5142 125.94 54.5292 126.903C54.5817 130.303 54.5791 133.715 54.7854 137.111C54.8605 138.347 54.7636 139.767 55.551 140.797C56.558 142.113 57.492 143.455 58.4103 144.84C58.7544 145.359 60.1998 148.17 60.7388 148.108C61.0907 148.068 61.4146 146.93 61.5907 146.66C61.9701 146.079 62.5247 145.578 63.0295 145.11C65.2099 143.087 67.6293 141.662 70.1437 140.184C72.6984 138.682 75.3127 137.284 77.9156 135.859C78.5036 135.538 79.1369 135.305 79.7211 134.977C79.952 134.847 80.4097 134.64 80.5551 134.408C80.7724 134.061 80.6987 133.098 80.744 132.683C80.8367 131.834 81.0032 130.953 81.0121 130.098C81.0208 129.254 80.5132 128.528 80.1452 127.792C78.5298 124.559 76.9604 121.318 75.555 117.988C74.4468 121.855 73.2834 125.705 72.1965 129.578C71.629 131.601 70.9449 133.59 70.2787 135.581C69.9387 136.598 69.5965 137.615 69.2569 138.632C68.9924 139.424 68.8551 140.584 68.0874 141.067ZM91.2874 68.1776C90.431 68.1871 89.6549 68.0612 88.8174 67.8824C88.5101 67.817 88.2401 67.7893 87.9287 67.7618C87.5755 67.7307 87.2547 67.5394 86.9452 67.502C86.7111 67.4738 86.3025 67.572 86.0791 67.6469C85.5611 67.8204 85.5776 67.7328 85.556 68.3342C85.5221 69.2633 85.4967 70.1927 85.4458 71.1209C85.2449 74.7751 84.8569 78.3936 84.3251 82.0124C84.2174 82.7439 83.9161 83.7033 84.0818 84.4297C84.2312 85.0846 84.797 85.7841 85.1707 86.3335C85.9394 87.4632 87.7499 88.0214 89.0235 88.3418C90.3665 88.6797 91.7609 88.8041 93.0369 89.1054C93.3905 89.189 93.7963 89.0417 94.1732 89.1255C94.5217 89.203 94.7923 89.3942 95.1144 89.5326C95.9034 89.8714 96.785 89.9338 97.5998 90.1954C99.2156 90.714 100.946 90.6829 102.563 91.181C102.976 91.3082 103.334 91.629 103.731 91.7388C104.095 91.8391 104.47 91.721 104.85 91.7771C105.657 91.8958 106.409 92.1715 106.595 93.0374C107.088 92.647 107.157 92.7496 107.071 92.1457C107.017 91.7584 106.801 91.287 106.683 90.9137C106.382 89.962 106.08 89.0108 105.779 88.0591C105.184 86.1756 104.593 84.2907 104.045 82.3933C103.554 80.696 103.108 78.9859 102.718 77.2626C102.52 76.3864 102.354 75.5063 102.184 74.6255C102.135 74.3698 102.184 73.9636 101.927 73.7934C101.694 73.6392 101.15 74.1927 100.904 74.3711C99.1853 75.6162 95.243 79.2986 93.094 77.1264C91.9368 75.9566 92.0045 73.9001 92.1302 72.3888C92.2072 71.4599 92.3704 70.5431 92.5527 69.6298C92.5982 69.4019 92.8769 68.6698 92.7749 68.5075C92.6647 68.3329 91.5174 68.2288 91.2874 68.1776ZM151.682 88.5028C152.14 88.554 152.597 88.6054 153.054 88.6568C153.012 88.2872 153.05 87.7313 152.91 87.387C152.717 86.9111 152.243 86.858 151.722 86.6608C150.897 86.3491 150.057 86.0781 149.241 85.7425C147.472 85.0144 145.711 84.2759 143.94 83.5478C143.164 83.2285 142.253 82.706 141.41 82.9667C140.501 83.2481 139.605 83.8211 138.755 84.2407C137.794 84.716 136.832 85.1923 135.871 85.6686C135.42 85.8921 134.97 86.1153 134.519 86.3388C133.811 86.6896 133.716 86.7251 133.661 87.5265C133.376 91.6256 133.397 95.8838 133.521 99.9884C133.585 102.083 133.514 104.189 133.664 106.28C133.675 106.441 133.663 107.348 133.764 107.472C133.906 107.647 134.904 107.705 135.142 107.749C136.072 107.919 137.009 107.976 137.948 108.06C137.727 103.292 136.914 97.6555 139.362 93.2944C141.822 88.9131 147.079 87.9641 151.682 88.5028ZM108.927 41.5975C109.203 40.9695 109.677 40.4392 110.083 39.8882C110.303 39.5903 110.682 39.2342 110.823 38.8857C111.023 38.3897 111.022 38.4959 110.723 38.0615C110.441 37.651 110.446 37.6201 110.009 37.5467C109.642 37.4849 109.25 37.5898 108.874 37.5226C108.495 37.4544 107.451 37.1345 107.69 36.5302C107.68 36.5566 108.284 36.2589 108.331 36.2073C108.482 36.042 108.53 35.6897 108.605 35.4899C108.847 34.8496 108.931 34.4351 108.662 33.7533C108.261 32.7353 106.673 32.434 105.685 32.7766C105.191 32.9476 104.91 33.3102 104.688 33.766C104.546 34.0555 104.514 34.4738 104.331 34.7258C104.056 35.1052 104.039 35.0631 103.469 34.9961C102.743 34.9108 102.148 34.6319 101.46 34.4374C100.71 34.2254 100.223 34.6567 99.5683 35.0043C98.3863 35.6323 97.2448 35.8503 95.9208 35.9499C94.4464 36.061 93.0798 35.7055 91.62 35.6139C91.9988 37.3586 92.9783 38.775 93.7612 40.3548C93.8987 40.6326 94.1211 40.9166 94.1264 41.238C94.1319 41.5408 93.6935 41.9528 93.7428 42.2033C93.8484 42.7378 95.0247 43.1657 95.4703 43.3161C96.7308 43.7412 98.1661 44.5735 99.5533 44.2391C100.314 44.0559 100.723 42.8549 101.439 42.7666C102.399 42.6477 101.681 43.8843 101.503 44.3096C102.865 44.5168 104.593 44.3411 105.897 43.879C106.551 43.6475 107.105 43.302 107.702 42.9594C108.445 42.5328 108.6 42.4156 108.927 41.5975ZM85.0765 67.5629C82.6467 67.6033 80.1814 67.2535 77.7461 67.575C77.182 67.6492 76.6252 67.769 76.0708 67.8964C75.6724 67.988 74.4068 68.0655 74.1411 68.3617C73.899 68.6319 73.8973 69.8759 73.8474 70.2265C73.7363 71.0073 73.7659 71.2769 74.2638 71.8806C75.902 73.8671 77.6081 75.7943 79.2224 77.8028C80.773 79.7322 82.0458 81.888 83.6131 83.79C84.4502 81.3535 84.5003 78.4294 84.7301 75.8745C84.8526 74.5122 84.9642 73.1489 85.0689 71.7854C85.1686 70.4866 85.5075 68.8012 85.0765 67.5629ZM53.6267 93.242C53.9077 93.242 54.3559 93.33 54.629 93.242C55.0046 93.3615 55.1301 93.2206 55.0059 92.8194C55.0118 92.6791 55.0178 92.5386 55.0239 92.3981C55.063 91.4931 55.1062 90.5883 55.1481 89.6833C55.1866 88.8559 55.2241 88.0284 55.2567 87.2008C55.2791 86.6358 55.5645 85.2353 55.3362 84.7251C55.1828 84.3821 54.8195 84.46 54.3775 84.4098C53.957 84.3622 53.5353 84.3182 53.1172 84.253C52.5865 84.1703 51.9982 83.9803 51.4582 84.0992C50.9157 84.2187 50.5213 84.7196 50.0955 85.0383C49.4218 85.5421 48.7335 86.0273 48.054 86.5233C46.8191 87.4251 45.5967 88.3434 44.3722 89.259C43.8665 89.637 43.7693 89.5058 44.0159 90.0491C44.1684 90.3848 44.5152 90.7646 44.7264 91.0678C45.1469 91.6717 45.5656 92.5871 46.105 93.0771C46.8898 93.7902 49.0674 93.3374 50.1099 93.3323C51.2987 93.3264 52.4447 93.3448 53.6267 93.242ZM56.7038 93.1829C57.7347 93.082 58.7762 93.1256 59.8008 92.987C60.9146 92.8361 62.0204 92.6129 63.1322 92.4455C64.2405 92.279 67.6124 91.605 67.2795 89.9508C66.9278 88.2021 64.3465 87.1547 62.9182 86.5669C60.6876 85.6487 58.3587 85.1572 56.0123 84.6381C55.7179 86.2057 55.7603 87.8885 55.7065 89.477C55.6773 90.3397 55.6517 91.2034 55.6521 92.067C55.6521 92.2748 55.5808 92.706 55.6657 92.8992C55.865 93.3539 56.0969 93.1829 56.7038 93.1829ZM53.3135 93.9341H46.7336C47.7074 95.9498 48.6279 98.0032 49.6776 99.9808C50.7231 101.951 52.0693 103.807 53.2556 105.698C53.556 105.371 54.0353 105.016 54.2395 104.627C54.4657 104.197 54.4594 103.563 54.4964 103.065C54.5924 101.772 54.6362 100.467 54.6688 99.1708C54.6974 98.0355 54.7473 96.9079 54.8345 95.7755C54.8536 95.527 55.1276 94.2369 54.9708 94.0249C54.8309 93.8361 53.6013 93.936 53.3135 93.9341ZM80.412 54.357C81.5221 54.3568 82.6334 54.3428 83.7432 54.3614C84.7504 54.3786 86.0628 54.2031 86.9854 54.7218C88.865 55.7781 85.1076 58.491 84.3456 59.1738C85.5776 59.6203 87.5004 58.7341 88.7065 58.3281C90.1979 57.8262 91.7186 57.4891 93.2398 57.0959C93.6199 56.9977 95.2513 56.8054 95.4574 56.5142C95.6618 56.2254 95.2039 54.4829 95.158 54.1153C95.115 53.7698 95.1512 53.2311 95.0073 52.906C95.0955 52.5156 94.9584 52.3787 94.596 52.496C94.4707 52.4955 94.3458 52.4949 94.2206 52.4945C93.295 52.5019 92.3687 52.5448 91.4438 52.5755C88.2647 52.6813 85.1628 52.8225 82.0109 53.3187C80.5455 53.5493 79.0673 53.8331 77.6096 54.1162C76.3825 54.3544 76.5891 54.5544 77.7351 54.5574C78.6314 54.5597 79.5201 54.4266 80.412 54.357ZM171.607 30.9795C171.796 30.7626 171.985 30.5455 172.174 30.3284C171.713 30.197 171.253 30.0654 170.793 29.934C170.303 29.7943 170.04 29.8263 170.258 29.2795C170.53 28.5945 171.775 28.516 172.374 28.4902C174.434 28.4011 176.598 29.0567 178.556 29.6341C179.511 29.916 180.259 30.3521 181.067 30.9321C181.42 31.1854 181.827 31.4232 182.136 31.7275C182.457 32.0436 182.59 32.4486 182.904 32.7656C183.418 33.2853 184.077 33.5441 184.329 34.2942C184.618 35.1552 184.273 36.1408 183.844 36.8916C183.41 37.6535 182.764 38.2297 182.24 38.9221C181.824 39.4714 180.955 40.9723 182.313 40.7983C183.031 40.7063 183.962 39.4815 184.479 38.9936C185.22 38.2938 185.949 37.578 186.733 36.9263C187.429 36.3484 188.231 35.7559 189.161 35.6543C190.142 35.5473 190.631 36.1749 191.109 36.9381C191.56 37.658 191.632 38.3607 191.949 39.0975C192.102 39.4528 192.297 39.6508 192.387 40.038C192.525 40.6337 192.54 41.2835 192.61 41.8908C192.721 42.8445 192.825 43.5944 192.641 44.5288C192.467 45.4034 192.42 46.3323 192.274 47.2221C192.109 48.2297 191.972 49.242 191.809 50.25C191.672 51.1041 191.148 52.3203 191.662 53.1145C192.897 55.0229 194.379 52.2135 194.769 51.1639C195.455 49.3196 195.804 47.3035 196.41 45.4213C196.734 44.4148 197.017 43.3987 197.203 42.3565C197.356 41.4947 197.281 40.4447 197.753 39.6771C198.12 39.0808 198.773 38.6279 199.49 38.8099C200.387 39.0378 200.731 40.3341 200.995 41.1221C201.691 43.2004 201.435 45.0722 201.152 47.1918C201.02 48.1732 200.895 49.1561 200.67 50.1212C200.518 50.7723 199.888 52.0901 200.824 52.4441C202.152 52.9465 203.559 49.1372 203.938 48.2771C204.928 46.0242 205.308 43.7899 205.716 41.376C205.81 40.821 205.882 40.2541 206.022 39.7086C206.144 39.2338 206.509 38.7538 206.542 38.279C206.574 37.8038 206.26 37.4722 206.582 37.0056C206.851 36.6173 207.335 36.5938 207.773 36.5905C208.802 36.5824 209.786 37.0342 210.743 37.3619C211.633 37.6669 212.952 38.3359 213.912 38.1205C210.899 35.0614 207.893 32.0371 204.3 29.6547C202.631 28.5482 200.961 27.4849 199.158 26.5826C197.331 25.6688 195.237 25.0515 193.28 24.4986C192.216 24.1977 191.158 23.8568 190.107 23.5117C189.172 23.2045 188.23 23.1463 187.314 22.7978C185.324 22.0409 183.1 21.7476 181.04 21.211C180.13 20.9742 179.21 20.7711 178.298 20.5516C177.34 20.321 175.993 19.9204 175.016 19.9594C174.182 19.9926 173.901 20.9484 173.5 21.6132C172.917 22.5783 172.421 23.5811 171.962 24.6105C171.024 26.7198 170.034 28.8988 169.363 31.1024C168.994 32.3123 168.63 33.5235 168.268 34.7354C167.955 35.7845 167.171 37.2978 167.38 38.3745C168.923 35.9963 170.36 33.5265 171.607 30.9795ZM99.7619 52.4534C98.9433 52.4907 98.1244 52.5277 97.3057 52.5649C98.122 55.248 98.0082 58.105 98.0082 60.8861C101.823 60.4364 105.669 60.3598 109.506 60.391C108.801 59.0308 109.075 57.2663 109.275 55.8098C109.393 54.9573 109.459 54.1361 109.442 53.2759C109.425 52.4691 109.658 51.7907 108.803 51.5412C108.125 51.3434 107.696 51.6731 107.05 51.8235C106.276 52.0036 105.434 52.0254 104.646 52.1233C103.006 52.3271 101.425 52.4467 99.7619 52.4534ZM77.7791 57.6787C80.2377 56.9967 82.8503 57.2481 85.3211 56.7296C84.7591 56.2167 83.7003 56.5206 82.954 56.5633C82.1054 56.6116 81.2576 56.6469 80.4091 56.6882C79.5815 56.7286 77.2861 56.666 76.9875 57.7189C77.2511 57.7055 77.5152 57.692 77.7791 57.6787ZM167.738 19.6585C164.521 19.9408 161.152 19.897 157.958 20.4583C154.3 21.1012 150.487 21.5045 146.941 22.6374C143.462 23.7489 139.914 24.527 136.484 25.8321C133.15 27.1009 129.939 28.4507 126.799 30.1477C125.262 30.9782 123.767 31.8587 122.302 32.8126C120.872 33.7438 119.305 34.5073 117.919 35.4944C116.685 36.3731 115.621 37.1791 114.546 38.2557C113.396 39.4068 112.277 40.5891 111.126 41.7383C110.165 42.697 110.774 45.0411 110.835 46.317C110.919 48.086 111.065 49.83 111.282 51.5874C111.488 53.262 111.7 55.0618 111.428 56.7328C111.313 57.4353 110.918 58.6489 111.107 59.3501C111.258 59.9117 112.259 60.3234 112.77 60.5065C113.395 60.7304 114.034 60.636 114.675 60.9208C115.391 61.2393 115.995 61.6362 116.756 61.8036C117.694 62.0099 118.748 62.1834 119.711 62.1898C120.602 62.1955 121.496 62.4841 122.385 62.6618C123.83 62.9513 125.241 63.0414 125.151 64.7844C125.047 66.7954 124.249 68.521 123.774 70.4301C124.416 70.4301 124.864 70.4711 125.453 70.2432C126.14 69.9775 126.872 69.9068 127.594 69.7921C129.189 69.5384 130.743 69.4571 132.348 69.2953C135.289 68.9986 138.28 69.0342 141.223 69.0655C142.713 69.0811 144.329 69.1962 145.798 69.4282C147.306 69.6662 148.867 69.815 150.328 70.2714C151.56 70.6565 152.833 70.9189 154.09 71.2591C154.657 71.4123 155.335 71.5367 155.87 71.7081C156.646 71.9568 157.061 72.4868 157.956 72.4748C157.704 70.8158 157.112 69.2769 156.755 67.6317C156.382 65.9135 155.638 64.3934 154.817 62.7725C154.451 62.0495 154.18 61.2822 153.827 60.553C153.434 59.742 152.882 59.0701 152.408 58.3118C151.438 56.7605 150.402 55.2683 149.449 53.7061C148.617 52.3421 147.667 51.0347 146.756 49.7181C145.754 48.2705 144.363 47.178 143.226 45.85C142.747 45.2891 142.29 44.7679 141.753 44.2531C141.258 43.7791 140.556 42.73 139.798 42.6809C139.362 42.6526 138.608 42.8976 138.192 43.029C137.423 43.2726 136.608 43.4313 135.813 43.6456C134.944 43.8803 134.09 44.1856 133.22 44.4086C132.872 44.4977 132.458 44.4554 132.128 44.5563C131.782 44.6621 131.507 44.8951 131.129 45.002C129.265 45.5305 127.413 46.1306 125.536 46.6118C123.604 47.1074 121.642 47.5293 119.769 48.2312C119.411 48.3651 119.014 48.6817 118.74 48.4737C118.535 48.3184 118.403 47.8797 118.457 47.6237C118.637 46.7714 120 46.4635 120.656 46.1213C122.415 45.2042 124.163 44.5576 126.053 43.9349C126.985 43.6285 127.913 43.3013 128.857 43.0366C129.646 42.8155 130.467 42.4414 131.274 42.3282C131.992 42.2275 132.502 41.9448 133.214 41.6944C134.264 41.3256 135.343 41.0228 136.41 40.7078C138.233 40.169 140.165 39.9426 142.03 39.5814C146.352 38.7445 150.838 38.3256 155.248 38.3774C157.471 38.4037 159.796 38.3387 161.993 38.7043C162.523 38.7924 163.637 38.7754 164.002 39.2509C164.198 39.5061 164.092 39.8859 164.142 40.1625C164.227 40.6293 164.482 40.8468 164.703 41.2721C165.172 38.9707 165.711 36.7183 166.316 34.4506C166.864 32.3982 167.371 30.3087 168.102 28.2852C168.877 26.1442 169.815 23.8742 170.973 21.9148C171.211 21.5115 171.805 20.8707 171.856 20.4196C171.909 19.9541 171.256 19.5935 170.808 19.5417C169.803 19.4255 168.726 19.6244 167.738 19.6585ZM189.351 52.5421C189.678 49.3497 190.635 46.0104 190.1 42.8053C189.874 41.4486 189.697 40.1534 189.019 38.9286C188.676 38.3093 188.538 37.8543 187.883 38.2196C187.22 38.5892 186.609 39.5023 186.06 40.0315C185.049 41.0042 183.991 42.0059 182.781 42.7283C181.828 43.2971 179.935 43.8363 179.219 42.6058C178.536 41.4331 179.446 39.7966 180.1 38.8292C180.848 37.7223 182.265 36.6971 181.47 35.3314C181.128 34.7436 180.635 34.5896 180.118 34.2038C179.67 33.8699 179.294 33.4374 178.846 33.0976C177.548 32.1126 176.124 31.6907 174.625 31.1278C173.932 30.8677 173.841 30.6231 173.442 31.2175C173.007 31.8631 172.769 32.7679 172.455 33.4818C171.827 34.912 171.156 36.2671 170.345 37.6006C169.527 38.9464 168.802 40.3523 168.028 41.7247C167.736 42.2425 167.462 42.7687 167.117 43.2548C166.929 43.5193 166.697 43.755 166.544 44.0445C166.318 44.4725 166.419 44.8627 166.278 45.2889C165.672 47.1277 164.787 44.5608 164.618 43.9607C164.426 43.2781 163.962 42.7459 163.662 42.1092C163.414 41.5834 163.245 40.8019 162.645 40.5544C162.154 40.3516 161.522 40.6299 161.021 40.657C160.1 40.7069 159.173 40.6324 158.249 40.69C157.384 40.7437 156.522 40.8267 155.658 40.8796C154.793 40.9327 153.929 40.7865 153.075 40.8775C151.543 41.0408 149.977 41.0146 148.449 41.241C146.655 41.5063 144.88 41.7895 143.082 42.0104C143.5 42.8007 144.366 43.1435 145.051 43.7074C145.663 44.2114 146.148 44.7931 146.764 45.2726C147.39 45.7593 147.762 46.4791 148.28 47.064C148.787 47.6368 149.257 48.1171 149.701 48.7581C151.847 51.8529 154.06 54.8335 155.829 58.1785C156.725 59.8715 157.58 61.6828 158.192 63.4991C158.849 65.4473 159.171 67.5367 159.561 69.5511C159.755 70.5551 159.857 71.4026 159.644 72.4123C159.588 72.6527 159.53 72.8927 159.469 73.132C159.283 73.4185 159.352 73.6043 159.677 73.6896C159.867 73.9665 160.126 74.0704 160.143 74.4492C160.155 74.737 159.995 75.0704 159.747 75.2327C159.269 75.5459 159.269 75.1229 158.776 75.2167C158.591 75.3168 158.406 75.4166 158.221 75.5165C158.124 75.368 158.023 75.2211 157.92 75.0764C157.606 74.7774 157.355 74.8047 156.945 74.7319C157.153 77.1371 156.82 79.2847 156.291 81.6309C156.036 82.7591 155.6 83.8635 155.38 84.9936C155.134 86.2562 155.671 86.8314 156.502 87.6735C156.291 87.7836 155.921 87.9031 155.748 88.0675C155.471 88.3297 155.541 88.3619 155.542 88.7721C155.542 89.5233 155.398 90.2637 155.28 91.0024C155.062 92.3704 154.862 93.786 154.391 95.0958C153.536 97.4748 152.153 99.9454 150.744 102.041C149.955 103.214 149.165 104.546 148.177 105.558C147.185 106.573 146.202 107.598 145.213 108.616C143.265 110.621 141.137 112.006 138.804 113.506C137.881 114.101 136.907 114.752 136.113 115.493C135.305 116.245 134.231 116.771 133.266 117.317C132.836 117.561 132.529 117.911 132.064 118.111C131.628 118.299 131.323 118.36 130.956 118.607C130.048 119.218 129.066 119.74 128.065 120.201C126.845 120.763 125.644 121.417 124.39 121.897C123.819 122.115 123.282 122.353 122.729 122.609C122.13 122.886 121.484 123.067 120.87 123.362C120.351 123.611 119.826 123.756 119.298 123.959C118.867 124.126 118.528 124.395 118.088 124.569C117.175 124.929 116.343 125.124 115.456 125.549C114.277 126.114 112.879 126.378 111.637 126.785C110.25 127.239 108.812 127.691 107.388 128.013C106.783 128.15 106.267 128.329 105.682 128.537C105.301 128.672 104.864 128.746 104.442 128.874C103.275 129.23 102.109 129.573 100.937 129.875C98.6455 130.466 96.3048 131.176 94.0828 131.978C92.9178 132.399 91.736 132.905 90.6183 133.44C89.3548 134.046 87.9934 134.395 86.7253 134.994C84.2756 136.151 81.8342 137.343 79.4128 138.558C78.1413 139.196 76.8876 139.853 75.6462 140.547C75.1957 140.799 74.7031 140.903 74.2555 141.15C73.6702 141.473 73.1899 141.947 72.5905 142.267C70.2798 143.501 67.9215 144.664 65.7992 146.225C64.6885 147.043 63.4951 147.879 62.5353 148.874C62.2185 149.203 61.6696 149.711 61.6123 150.187C61.5278 150.892 61.607 150.243 61.8509 150.678C62.1889 150.719 62.2653 150.849 62.0809 151.067C61.9959 151.17 61.8869 151.222 61.7542 151.224C61.3274 151.311 60.5291 150.858 60.1861 150.669C59.5917 150.342 59.2762 149.928 58.8945 149.378C58.0654 148.185 57.2565 146.981 56.4027 145.805C55.6348 144.747 54.8832 143.582 54.0095 142.611C53.417 141.952 53.3726 142.24 52.7136 142.611C52.2234 142.887 51.654 143.005 51.1459 143.265C49.21 144.257 47.0819 144.989 45.0963 145.68C44.6441 145.838 44.4031 146.087 44.0057 146.305C43.4996 146.582 42.8584 146.717 42.3171 146.914C40.826 147.456 39.3423 148.019 37.8617 148.589C36.7186 149.03 35.6202 149.377 34.7254 150.191C34.3692 150.514 33.9382 150.746 33.5705 151.074C33.1422 151.454 32.563 152.074 32.0239 152.289L31.6955 152.546C31.4733 152.391 31.2509 152.237 31.0281 152.083C30.8072 151.93 30.5861 151.778 30.3656 151.624C29.8118 151.239 29.2621 150.849 28.7117 150.459C27.4635 149.575 26.2072 148.699 25.0462 147.7C22.9837 145.926 20.8435 144.248 18.6869 142.587C16.4234 140.844 14.2167 139.019 11.8755 137.381C9.75361 135.895 7.4385 134.641 5.38112 133.073C4.34555 132.284 3.31252 131.49 2.25516 130.726C2.1976 130.684 1.33725 130.157 1.32921 130.098C1.31397 129.99 1.59709 129.708 1.68067 129.618C2.07636 129.188 2.51479 128.805 2.909 128.37C4.74632 126.344 7.14522 126.414 9.68082 126.319C10.8307 126.275 12.0776 126.806 13.1697 127.167C14.5051 127.608 15.7933 128.256 17.0832 128.815C19.7415 129.968 22.4852 130.954 25.1704 132.022C26.2263 132.441 27.2781 132.646 28.3516 132.935C29.4407 133.228 30.5626 132.949 31.7274 132.97C32.332 132.98 32.9035 133.016 33.5123 132.981C33.8737 132.961 34.2901 132.893 34.6471 132.899C34.9363 132.904 35.2366 133.023 35.5028 132.993C36.6681 132.861 37.8989 132.676 39.1008 132.524C40.294 132.374 41.5253 132.299 42.7029 132.063C43.2958 131.945 43.8809 131.777 44.4513 131.576C44.9465 131.402 45.8466 131.204 46.2529 130.85C46.6164 130.534 46.4575 130.529 46.2548 130.013C46.1746 129.809 46.0916 129.5 45.9727 129.303C45.6513 128.772 45.3407 128.605 45.5277 127.941C45.8572 126.769 46.9802 126.021 47.9414 125.444C50.107 124.145 52.0875 122.479 54.3677 121.376C59.0661 119.106 63.348 116.156 67.93 113.662C72.9665 110.92 77.7308 107.704 82.8374 105.078C87.5907 102.634 92.3223 100.176 97.115 97.8093C99.4553 96.654 102.102 95.5967 104.226 94.0818C103.049 93.9358 101.869 93.7473 100.689 93.6427C100.141 93.5943 99.587 93.6391 99.0425 93.5522C98.4335 93.4548 97.8578 93.2085 97.25 93.1061C96.205 92.9296 95.2652 92.5714 94.2193 92.4394C93.0978 92.2976 91.9994 91.9679 90.8727 91.8757C88.5156 91.6825 86.3884 90.8132 84.3222 89.7178C83.8107 89.4465 83.3905 89.6016 82.9004 89.4171C82.6304 89.3158 82.3437 88.9103 82.0405 88.6926C81.2053 88.0929 80.4884 87.3849 79.6947 86.7298C78.026 90.4747 74.7494 93.0217 71.6226 95.5338C70.0388 96.8059 68.3197 97.8845 66.7196 99.1327C65.4792 100.101 64.3527 100.967 63.0285 101.736C61.757 102.475 60.5625 103.472 59.3503 104.36C58.5286 104.961 57.5656 105.415 56.6919 105.937C55.978 106.364 54.5842 107 54.3895 107.774C54.2302 108.406 54.541 109.158 53.5761 108.868C52.7122 108.608 52.0858 107.649 51.5826 106.973C50.2813 105.225 49.0674 103.417 47.8591 101.605C47.2102 102.871 46.0908 103.783 45.0561 104.723C44.4274 105.293 43.7748 105.823 43.0958 106.332C42.7666 106.579 42.4335 106.821 42.1036 107.068C41.9737 107.165 41.6792 107.315 41.5949 107.452C41.3982 107.773 41.5177 107.627 41.5484 108.015C41.5962 108.623 41.7989 109.101 41.4551 109.683C41.1322 110.229 40.4282 110.463 39.9347 110.836C38.7608 111.725 37.5263 112.669 36.2239 113.363C35.9283 113.52 35.6488 113.657 35.3735 113.849C34.9139 114.171 34.9979 114.287 34.5347 113.979C33.8104 113.497 33.1847 112.697 32.5311 112.115C31.1616 110.897 29.7769 109.694 28.3744 108.514C25.7017 106.264 22.9501 104.127 20.3105 101.838C17.8022 99.6619 15.1132 97.789 12.5237 95.7206C11.8133 95.1534 11.1117 94.5744 10.4106 93.9955C9.78641 93.4802 8.77348 92.9123 8.31177 92.253C7.64121 91.2953 10.2642 89.9865 11.0556 89.7916C12.4202 89.4558 14.1847 89.648 15.5514 89.9232C16.9861 90.2121 18.447 91.1782 19.7866 91.78C21.2966 92.4582 22.8345 93.0446 24.3557 93.6849C25.0341 93.9703 25.7533 94.1982 26.3831 94.5829C27.0513 94.9911 27.6478 95.4564 28.3583 95.7987C29.1772 96.1927 30.0281 96.5605 30.8893 96.8521C31.2795 96.9841 31.6995 97.1168 32.1096 97.1701C32.6902 97.2457 32.6115 96.9782 33.0937 96.8288C33.5036 96.7018 33.6009 97.0372 33.9695 97.1305C34.3166 97.2186 34.576 97.1295 34.8764 96.9428C35.5464 96.5271 36.1427 95.9536 36.8128 95.5207C37.4345 95.1189 38.1198 94.7435 38.7026 94.2885C38.9624 94.0858 39.1546 93.808 39.4106 93.6021C39.8209 93.272 39.9836 93.403 40.4627 93.1757C40.8544 92.9897 41.2096 92.6436 41.5823 92.4142C41.8135 92.2718 42.3745 92.0919 42.5237 91.8615C42.9155 91.2565 42.2467 90.8363 41.6476 91.0147C41.5579 90.4922 41.0973 89.2518 41.2962 88.762C41.4722 88.3286 41.9344 88.4097 42.3231 88.1803C43.7839 87.3178 44.862 85.7507 46.2288 84.7374C47.5172 83.782 48.6539 82.6415 49.9303 81.6685C51.0236 80.8351 52.2185 80.0212 53.2141 79.1224C54.3912 78.0597 55.8982 77.233 57.178 76.2844C58.5 75.3047 59.7286 74.2145 61.0365 73.2236C62.2949 72.2704 63.5308 71.2746 64.8239 70.367C65.986 69.5513 67.2042 68.8065 68.3422 67.9795C68.9655 67.5267 69.6471 67.1289 70.3587 66.8316C71.0663 66.5358 71.6852 66.189 72.3761 65.8705C73.7492 65.2376 75.5372 64.8003 77.0302 64.6189C78.6718 64.4196 80.3202 64.2408 81.9774 64.2393C82.8602 64.2387 83.7176 64.4067 84.5951 64.46C85.4013 64.5087 86.2731 64.7127 87.0736 64.6858C87.4361 64.6737 87.7511 64.5203 88.1022 64.5698C88.3952 64.6111 88.6502 64.788 88.9647 64.8189C89.6648 64.8879 90.3688 64.8191 91.0768 64.9097C92.7034 65.1174 94.3321 65.4137 95.962 65.5787C97.6986 65.7546 99.4202 65.7878 101.148 66.084C102.836 66.3733 104.535 66.6731 106.213 67.0077C109.78 67.7186 113.384 68.4129 116.895 69.4686C117.715 69.7153 118.541 69.95 119.329 70.2883C119.712 70.4523 120.08 70.6512 120.479 70.7739C121.051 70.9496 121.164 71.0162 121.458 70.5365C121.965 69.7108 122.244 68.6188 122.612 67.7205C122.976 66.8316 123.418 65.9357 123.629 65.0074C123.015 64.9103 122.242 65.099 121.609 65.1206C120.835 65.1473 120.07 65.1306 119.297 65.1259C117.739 65.1166 116.52 64.6564 115.046 64.1733C113.804 63.766 112.149 63.5324 111.202 62.5996C110.693 62.0996 110.524 62.0116 109.76 62.1013C108.99 62.1917 108.229 62.3474 107.451 62.3732C104.518 62.4705 101.599 62.9822 98.6536 63.0833C97.8567 63.1106 95.8636 63.4883 95.9942 62.1369C96.0213 61.8563 96.2363 61.6129 96.2782 61.3241C96.323 61.0145 96.2456 60.7003 96.1971 60.3977C96.0818 59.6819 95.9614 58.9665 95.8465 58.2504C93.1605 59.1125 90.4406 59.811 87.7033 60.4938C86.5683 60.7769 84.7447 61.428 83.5718 61.071C82.4379 60.7259 83.0947 59.1283 83.4478 58.3636C81.1949 58.8778 78.792 59.7187 76.4947 59.9117C75.7958 59.9705 75.1155 60.1252 74.9528 59.2803C74.8233 58.607 75.3095 57.7836 75.5575 57.1922C73.7945 57.0348 71.9688 57.0498 72.3006 54.7899C72.6046 52.7165 74.327 52.3036 76.161 51.9249C78.4245 51.457 80.7362 51.3011 83.0145 50.9225C84.9967 50.593 87.1595 50.2257 89.1839 50.392C90.2556 50.4798 91.3337 50.5 92.4051 50.5992C92.9106 50.646 93.3966 50.7242 93.8858 50.8622C94.3372 50.9892 94.9684 51.383 95.4309 51.3899C96.1292 51.4009 96.9709 50.4568 97.7219 50.2386C98.6521 49.9682 99.6544 49.9191 100.616 49.8529C101.705 49.7782 102.796 49.7365 103.884 49.6483C104.133 49.6282 105.071 49.6895 105.266 49.5442C105.552 49.3323 105.362 48.246 105.342 47.7997C105.323 47.3869 105.403 46.6137 105.117 46.4518C104.848 46.2999 104.065 46.5083 103.8 46.5507C102.704 46.7263 101.662 46.7062 100.57 46.6615C100.066 46.641 99.581 46.7754 99.0814 46.7091C98.5455 46.6383 98.0059 46.458 97.472 46.3577C96.3156 46.1404 95.2621 45.8699 94.2656 45.222C93.3909 44.6535 92.3558 44.2686 91.867 43.2728C91.5089 42.5436 91.3633 41.1365 92.4161 40.9291C91.6992 39.895 91.2044 38.7333 90.8244 37.5384C90.7554 37.3217 90.7097 36.9955 90.6067 36.8065C90.2427 36.1383 90.5804 36.731 90.0612 36.4637C89.548 36.1998 89.1782 35.991 88.7772 35.532C88.1379 34.8001 87.8688 33.8993 87.7879 32.9457C87.6783 31.6505 87.4735 30.19 87.6627 28.9014C87.99 26.6692 89.6215 24.9921 91.2791 23.6421C92.1791 22.9091 93.3638 22.6361 94.4193 22.1913C95.4381 21.7618 96.5763 21.3115 97.6498 21.2108C98.6187 21.1198 99.5632 20.8034 100.533 20.6759C101.866 20.5002 103.201 20.5658 104.54 20.5125C105.157 20.488 105.772 20.401 106.386 20.3348C106.733 20.2973 107.319 20.3373 107.636 20.2C108.156 19.9748 107.875 20.4475 108.061 19.759C108.414 18.4492 108.702 17.2209 109.237 15.9481C109.735 14.7623 110.34 13.6286 111.139 12.6148C111.889 11.6639 112.862 10.9683 113.745 10.156C114.4 9.55421 115.142 9.01061 115.889 8.52393C116.316 8.24568 116.792 8.09523 117.209 7.84956C117.727 7.54486 118.184 7.31379 118.767 7.12716C120.017 6.72681 121.258 6.30171 122.586 6.32266C124.018 6.34509 125.454 6.01182 126.848 6.43438C129.436 7.21921 130.705 10.0246 130.661 12.6008C131.547 12.3799 132.32 11.9546 133.258 11.9182C134.122 11.8848 135.148 11.9597 135.997 12.1201C137.643 12.4313 139.337 13.3467 140.319 14.7339C141.255 16.0571 141.395 17.8138 140.82 19.3148C140.544 20.0334 140.107 20.6727 139.642 21.2798C139.301 21.725 138.539 22.2178 138.503 22.8143C144.877 20.8877 151.277 19.5296 157.87 18.6506C161.212 18.2052 164.56 18.4282 167.905 18.1737C169.335 18.0649 170.888 18.2171 172.365 18.2228C172.989 18.2253 173.474 18.1386 173.926 17.7348C174.384 17.3264 174.75 16.8262 175.284 17.4157C175.42 17.5662 175.449 17.9301 175.632 18.0433C175.854 18.1805 176.5 18.0863 176.766 18.1026C177.695 18.1593 178.602 18.3169 179.514 18.4985C181.188 18.8318 182.851 19.1686 184.505 19.5916C187.654 20.3972 190.761 21.1763 193.864 22.1325C197.031 23.1082 200.231 24.312 203.151 25.8914C204.566 26.6563 205.978 27.6112 207.279 28.5575C207.883 28.9976 208.425 29.4737 208.951 30.0044C209.513 30.5717 210.2 30.9545 210.757 31.526C211.968 32.7692 213.174 34.0879 214.272 35.4347C214.845 36.1378 215.372 36.8795 215.882 37.629C216.242 38.1548 217.186 39.1176 216.968 39.7968C216.853 40.1595 216.447 40.4132 216.077 40.3243C215.952 40.2947 215.85 40.1339 215.745 40.1187C215.385 40.0679 215.711 39.9418 215.294 40.1113C214.462 40.4483 214.198 41.1244 213.142 40.9706C211.348 40.7088 209.661 39.8616 208.029 39.1229C207.563 40.9045 207.497 42.7516 207.089 44.5546C206.691 46.3137 206.028 47.9912 205.227 49.6047C204.525 51.0203 203.623 52.529 202.379 53.5406C201.43 54.3125 199.088 55.2715 198.391 53.628C198.095 52.93 198.536 51.8453 198.66 51.1269C198.828 50.1629 199.012 49.1961 199.113 48.2223C199.195 47.4311 199.236 46.6353 199.312 45.8433C199.378 45.1619 199.56 43.6991 199.177 43.0974C198.946 42.7347 198.926 43.0906 198.791 43.4526C198.628 43.8917 198.493 44.3272 198.374 44.7794C198.12 45.7402 197.892 46.7077 197.652 47.6719C197.224 49.3948 196.752 51.0799 195.86 52.6291C195.067 54.0047 193.951 55.5138 192.256 55.7391C191.462 55.8445 190.428 55.4816 189.822 54.9469C189.142 54.347 189.345 53.3576 189.351 52.5421Z" fill="black"/>
<path fill-rule="evenodd" clip-rule="evenodd" d="M150.639 122.895C151.571 122.711 152.355 121.967 153.116 121.409C154.086 120.696 155.007 119.92 155.949 119.171C157.725 117.761 159.336 116.214 160.868 114.532C163.89 111.213 166.166 106.941 167.2 102.577C167.724 100.368 168.371 97.7806 168.074 95.4983C167.971 94.7054 167.813 94.56 167.036 94.4699C166.685 94.4293 165.794 94.3283 165.478 94.4663C164.658 94.8243 164.216 96.3476 163.973 97.1132C163.255 99.3735 162.833 101.714 162.184 103.993C161.549 106.227 160.524 108.493 159.511 110.582C157.257 115.23 154.123 119.118 150.639 122.895ZM169.121 97.2355C168.563 103.564 166.806 109.594 162.867 114.691C160.994 117.113 158.792 119.221 156.405 121.135C153.94 123.112 151.423 124.974 148.626 126.449C147.882 126.841 147.136 127.232 146.383 127.607C145.965 127.814 144.911 128.578 144.429 128.458C144.043 128.361 143.942 128.062 143.882 127.673C143.747 126.801 144.314 126.366 144.886 125.806C147.187 123.557 149.496 121.299 151.647 118.906C155.896 114.179 159.088 108.52 160.863 102.413C161.409 100.533 161.897 98.6314 162.487 96.7645C162.846 95.6271 163.356 93.6025 164.55 93.0355C165.19 92.7314 165.937 93.0272 166.61 92.845C167.242 92.674 167.66 92.3253 168.198 92.9102C169.143 93.9364 169.185 95.9494 169.121 97.2355Z" fill="black"/>
<path fill-rule="evenodd" clip-rule="evenodd" d="M0.785064 133.752C0.313408 133.919 0.29373 134.084 0.0776876 133.599C-0.0310745 133.355 -0.0016622 133.02 0.0239414 132.766C0.0853052 132.157 0.405666 131.595 0.668895 131.055C3.14629 133.099 5.71871 134.941 8.37513 136.746C11.2161 138.677 13.9286 140.824 16.6154 142.963C19.0215 144.878 21.4566 146.737 23.8375 148.677C24.9859 149.612 26.295 150.337 27.3867 151.301C28.2688 152.08 29.7318 152.429 30.4839 153.346C29.2921 154.058 27.7011 154.632 26.3805 154.015C24.9237 153.336 23.8062 152.45 22.5097 151.529C21.8417 151.054 21.1471 150.623 20.4685 150.164C19.872 149.76 19.4507 149.171 18.8468 148.792C17.5776 147.996 16.2756 147.118 15.0714 146.209C13.8344 145.275 12.467 144.532 11.2736 143.54C10.0501 142.522 8.68068 141.848 7.40325 140.922C4.69605 138.959 2.31217 136.751 0.785064 133.752Z" fill="black"/>
<path fill-rule="evenodd" clip-rule="evenodd" d="M73.8257 29.5125C73.792 29.6932 73.7584 29.8739 73.7247 30.0548C73.7453 30.0594 75.3653 26.9299 75.6336 26.552C76.5439 25.2707 77.7284 24.2047 78.8704 23.1346C81.2894 20.868 84.1206 19.0385 86.4912 16.7314C87.2711 15.9724 88.6685 14.8224 88.36 13.539C88.0534 12.2635 85.4651 12.5227 84.5787 12.8917C83.1892 13.4705 82.0605 14.6808 81.0249 15.7354C79.8954 16.8859 78.7568 18.0234 77.7995 19.3254C76.7673 20.7294 75.7874 22.2499 75.1549 23.8792C74.4463 25.7045 74.1695 27.5935 73.8257 29.5125ZM74.3576 35.1122C73.2584 35.4512 74.6365 35.6802 74.2059 36.2676C73.7336 36.9117 72.9397 34.9271 72.821 34.5523C72.1212 32.3384 72.4342 29.6487 72.8163 27.4009C73.0093 26.2669 73.134 25.1144 73.3942 23.9927C73.6481 22.8989 74.201 21.8595 74.7118 20.8646C75.7345 18.8739 77.0887 17.0192 78.6256 15.396C80.1671 13.7675 81.8853 12.1382 83.9194 11.1357C85.6001 10.3077 88.2642 10.8822 89.0509 12.6907C89.8548 14.5388 88.7676 16.552 87.4819 17.8514C85.8047 19.5461 83.9774 21.2294 82.0935 22.6907C81.1254 23.4419 80.3139 24.3503 79.3734 25.134C78.3723 25.9684 77.5062 26.8076 76.7661 27.8865C76.0492 28.932 75.3113 29.9767 74.8454 31.1636C74.3352 32.4632 74.3576 33.7372 74.3576 35.1122Z" fill="black"/>
<path fill-rule="evenodd" clip-rule="evenodd" d="M30.3881 114.81C27.862 113.183 25.3275 111.755 23.1277 109.681C20.9558 107.633 19.0582 105.323 16.6408 103.546C15.4347 102.659 14.1899 101.827 13.0051 100.912C11.8807 100.043 10.5883 99.2981 9.57194 98.307C8.21728 96.9854 5.68105 94.5298 7.41172 92.5593C9.55988 95.1142 12.5072 97.128 15.1944 99.0675C18.0277 101.113 20.6282 103.498 23.3158 105.727C25.9048 107.873 28.485 110.039 31.0113 112.242C31.6746 112.821 32.3145 113.429 32.9857 113.998C33.0678 114.068 33.7636 114.509 33.7636 114.626C33.7638 114.907 33.2244 115.083 33.0323 115.161C32.729 115.285 31.9089 115.592 31.565 115.488C31.3848 115.433 31.3816 115.287 31.2517 115.199C31.177 115.058 31.0898 114.926 30.9908 114.801C30.7897 114.804 30.5889 114.807 30.3881 114.81Z" fill="black"/>
<path fill-rule="evenodd" clip-rule="evenodd" d="M179.096 86.4496C177.296 86.4033 174.554 86.398 174.655 88.857C174.705 90.0745 175.366 90.9688 175.908 92.0103C176.477 93.1046 176.899 94.2352 177.067 95.4621C177.743 100.428 175.929 105.279 174.288 109.869C177.812 107.026 180.356 103.069 181.692 98.7315C182.34 96.6282 182.592 93.9248 182.383 91.7347C182.278 90.6389 181.874 89.6564 181.387 88.6801C181.143 88.1896 180.898 87.6295 180.508 87.2325C180.118 86.8347 179.577 86.7023 179.096 86.4496ZM172.815 112.713C171.651 110.8 173.483 107.983 174.082 106.118C174.798 103.888 175.458 101.566 175.764 99.2395C176.085 96.803 175.671 94.9085 174.542 92.7563C173.532 90.8323 172.932 88.2698 174.055 86.234C174.507 85.4147 175.175 85.314 175.969 84.9871C176.943 84.5861 177.211 83.9077 178.407 84.0152C180.54 84.2067 181.527 86.2298 182.32 87.9535C184.17 91.9717 183.667 97.1574 182.09 101.192C181.181 103.514 180.146 105.925 178.604 107.902C177.848 108.871 176.959 109.711 176.037 110.52C175.039 111.395 174.145 112.449 172.815 112.713Z" fill="black"/>
<path fill-rule="evenodd" clip-rule="evenodd" d="M51.0018 42.949C48.1897 43.5142 45.6234 44.7817 45.1729 47.9421C44.7635 50.8144 46.7199 53.4717 49.1224 54.8162C51.7208 56.2707 54.9767 56.5123 57.5659 54.9004C60.2915 53.2033 60.9098 49.8025 59.2508 47.1345C57.3998 44.157 54.2988 43.2783 51.0018 42.949ZM52.8091 41.5711C56.1579 42.0618 59.2665 44.445 60.3945 47.6548C61.5575 50.9636 60.4889 54.6014 57.4101 56.4144C51.188 60.0786 42.872 53.9721 44.3737 46.9533C44.755 45.1712 45.8378 43.7912 47.3088 42.7478C48.9328 41.5956 50.8967 41.5643 52.8091 41.5711Z" fill="black"/>
<path fill-rule="evenodd" clip-rule="evenodd" d="M171.872 7.96989C167.837 6.14548 163.802 4.32107 159.767 2.49666C159.602 4.32573 159.436 6.15458 159.271 7.98365C159.226 8.47858 159.042 9.15189 159.121 9.64026C159.204 10.1614 159.026 10.1058 159.705 10.0317C160.574 9.93671 161.446 9.72215 162.306 9.56874C163.852 9.29281 165.496 9.2141 167.009 8.80825C167.781 8.60109 168.521 8.57507 169.304 8.4498C170.165 8.31226 171.003 8.0575 171.872 7.96989ZM158.223 11.5057C158.223 9.44538 158.452 7.41275 158.64 5.36193C158.81 3.51678 158.875 1.75797 159.478 0C160.04 1.02181 161.598 1.4302 162.562 1.95603C163.891 2.68054 165.306 3.21398 166.665 3.87396C168.001 4.52209 169.287 5.26629 170.625 5.91294C171.302 6.24091 171.991 6.54689 172.668 6.87741C173.091 7.08435 174.096 7.41741 174.359 7.80167C175.159 8.96801 172.421 9.08079 171.892 9.18363C170.307 9.49277 168.704 9.66692 167.122 9.98474C165.647 10.2814 164.169 10.5567 162.688 10.8256C161.223 11.0918 159.714 11.5057 158.223 11.5057Z" fill="black"/>
<path fill-rule="evenodd" clip-rule="evenodd" d="M33.8064 62.5116C35.3951 62.3463 36.9773 62.1085 38.5642 61.9515C40.067 61.8027 41.3963 61.6445 42.7691 60.9559C40.8942 60.3905 39.015 59.8552 37.1241 59.3444C36.1863 59.0911 35.2504 58.823 34.3083 58.5864C33.5796 58.4032 32.9444 58.2978 32.6642 57.5024C32.3381 56.5764 33.2448 56.7167 33.81 56.952C34.5896 57.2764 35.4387 57.4781 36.2466 57.7479C38.0498 58.3499 39.8641 58.9036 41.6843 59.451C42.2501 59.6211 45.5286 60.2504 44.3473 61.3442C43.8417 61.8125 42.7137 62.0696 42.0956 62.4058C41.3028 62.837 40.4397 63.0089 39.5577 63.1805C37.7195 63.5381 35.812 63.6754 33.9512 63.9856C33.0009 64.1441 32.0508 64.3026 31.1007 64.4611C30.544 64.5537 30.3296 64.5446 30.1843 63.9238C30.0785 63.4727 30.2164 63.0213 30.318 62.5844C30.5757 61.4741 30.8624 60.3696 31.1462 59.2659C31.2541 58.8448 31.4452 56.9937 31.8208 56.7912C32.6729 56.3318 32.0155 58.8945 31.9522 59.2083C31.7131 60.392 31.4291 61.5674 31.3013 62.7687C32.1382 62.6929 32.9727 62.6144 33.8064 62.5116Z" fill="black"/>
<path fill-rule="evenodd" clip-rule="evenodd" d="M56.3329 71.9354C56.6482 72.727 56.1247 72.9041 55.4895 73.1783C54.6655 73.534 53.8551 73.9094 53.0161 74.2298C51.2512 74.9033 49.4735 75.5288 47.7507 76.3081C44.4647 77.7942 41.1344 79.2212 37.8994 80.8124C37.0956 81.2079 36.2911 81.6019 35.48 81.9828C34.6412 82.3768 33.6793 83.0397 32.7819 83.2649C31.9992 83.4612 31.9175 82.9039 32.3814 82.3905C32.9793 81.7284 33.9038 81.2341 34.6548 80.7739C37.7454 78.8795 41.1185 77.3373 44.4942 76.0341C48.3958 74.5275 52.3081 73.0821 56.3329 71.9354Z" fill="black"/>
<path fill-rule="evenodd" clip-rule="evenodd" d="M64.9121 27.0283C64.7991 24.6216 65.1209 22.2083 64.929 19.8079C61.6289 22.7334 63.2548 27.2547 65.1533 30.4291L64.9121 27.0283ZM66.3406 26.8907C66.3615 28.0664 66.4282 29.2414 66.3139 30.4111C66.194 31.639 66.7699 32.2715 67.5207 33.1759C66.8831 33.823 65.4201 32.3142 65.0162 31.8695C64.1844 30.9537 63.5655 29.737 63.0147 28.6373C61.8416 26.2947 61.0337 23.7866 61.9726 21.2146C62.3206 20.2613 62.7464 18.9653 63.6679 18.4103C64.6798 17.8009 65.4538 18.6604 65.8736 19.5444C66.8986 21.7015 66.1171 24.5754 66.3406 26.8907Z" fill="black"/>
<path fill-rule="evenodd" clip-rule="evenodd" d="M101.301 146.525C102.823 146.645 104.322 146.764 105.844 146.86C105.581 144.775 105.318 142.688 105.056 140.602C104.175 140.806 103.295 141.01 102.414 141.213C101.998 141.31 101.36 141.335 100.991 141.543C100.853 141.575 100.715 141.607 100.578 141.639C100.574 141.909 100.571 142.18 100.569 142.451C100.558 143.252 100.535 144.052 100.502 144.853C100.488 145.188 100.371 145.679 100.451 146.012C100.309 146.348 100.399 146.49 100.724 146.44C100.916 146.468 101.109 146.496 101.301 146.525ZM100.253 148.033C99.0607 147.439 99.3868 145.624 99.3887 144.469C99.3902 143.734 99.442 143.004 99.4613 142.27C99.4746 141.766 99.3593 141.142 99.5328 140.654C99.8415 139.787 101.352 139.811 102.129 139.872C102.705 139.916 103.187 139.887 103.777 139.85C104.068 139.831 104.393 139.886 104.679 139.8C104.74 139.782 105.322 139.376 105.296 139.375C106.34 139.415 106.354 141.917 106.421 142.552C106.589 144.116 106.74 145.684 106.877 147.252C106.913 147.667 107.067 148.136 106.673 148.373C106.317 148.586 105.375 148.375 104.982 148.363C103.397 148.315 101.821 148.068 100.253 148.033Z" fill="black"/>
<path fill-rule="evenodd" clip-rule="evenodd" d="M174.712 55.0739C175.401 55.6945 175.07 56.3348 174.844 57.1101C174.708 57.5754 173.962 59.1031 174.168 59.5384C174.406 60.0416 175.524 60.1654 176.002 60.3243C176.834 60.6011 177.671 60.8791 178.458 61.2693C178.808 61.4426 180.069 61.8408 180.305 62.1641C180.441 62.3495 180.49 62.4947 180.388 62.7336C180.209 63.1529 179.954 62.931 179.519 62.841C177.528 62.4297 175.554 61.9037 173.707 61.0361C173.192 62.231 172.757 63.4513 172.321 64.6773C172.193 65.0366 172.072 65.853 171.587 65.9111C170.996 65.9818 170.988 65.19 171.027 64.7628C171.084 64.139 171.407 63.4739 171.602 62.8834C171.764 62.3958 172.328 61.3808 172.259 60.8785C172.211 60.5327 172 60.5568 171.625 60.421C171.27 60.2928 170.915 60.1652 170.56 60.0355C169.992 59.8274 169.425 59.6188 168.872 59.3721C168.568 59.2367 167.933 59.0784 167.713 58.7974C167.585 58.6345 167.443 58.0473 167.604 57.8848C167.981 57.5041 170.484 58.5287 170.999 58.6685C171.341 58.7614 171.684 58.8323 172.015 58.954C172.141 59.0003 172.289 59.1882 172.425 59.1952C173.001 59.2244 173.047 58.7815 173.225 58.3065C173.64 57.2026 174.091 56.0764 174.712 55.0739Z" fill="black"/>
<path fill-rule="evenodd" clip-rule="evenodd" d="M31.1667 77.0368C30.8597 76.2842 34.1185 75.3749 34.7235 75.1214C36.2 74.5034 37.7819 74.1295 39.3108 73.6574C40.8142 73.1931 42.311 72.6933 43.7897 72.1561C44.2469 71.9898 47.5399 70.3865 47.7121 70.6209C48.2828 71.3967 41.3728 73.8334 40.6995 74.0759C37.5729 75.2016 34.3445 76.066 31.1667 77.0368Z" fill="black"/>
<path fill-rule="evenodd" clip-rule="evenodd" d="M171.33 18.1771C170.485 18.1855 169.267 18.4251 168.491 18.0823C169.438 18.1138 170.384 18.1455 171.33 18.1771Z" fill="black"/>
<path fill-rule="evenodd" clip-rule="evenodd" d="M52.809 41.5711L50.9307 41.5643C51.5574 41.4189 52.1838 41.3311 52.809 41.5711Z" fill="black"/>
<path fill-rule="evenodd" clip-rule="evenodd" d="M150.626 41.0694C151.069 41.067 151.512 41.0647 151.952 41.0622C151.508 41.0647 151.067 41.067 150.626 41.0694Z" fill="black"/>
<path fill-rule="evenodd" clip-rule="evenodd" d="M189.351 52.5421C189.347 53.0159 189.344 53.4896 189.34 53.9615C189.343 53.4871 189.347 53.0146 189.351 52.5421Z" fill="black"/>
<path fill-rule="evenodd" clip-rule="evenodd" d="M102.129 139.872C101.659 139.906 101.188 139.939 100.718 139.973C101.189 139.939 101.659 139.905 102.129 139.872Z" fill="black"/>
<path fill-rule="evenodd" clip-rule="evenodd" d="M104.78 49.5755C104.302 49.6142 103.824 49.6531 103.347 49.6918C103.825 49.6529 104.302 49.6142 104.78 49.5755Z" fill="black"/>
<path fill-rule="evenodd" clip-rule="evenodd" d="M154.215 40.9134C154.553 40.9128 154.891 40.9121 155.226 40.9115C154.887 40.9124 154.551 40.913 154.215 40.9134Z" fill="black"/>
<path fill-rule="evenodd" clip-rule="evenodd" d="M86.1944 50.4999C85.7743 50.5378 85.3539 50.5757 84.9341 50.6136C85.3541 50.5757 85.7743 50.5378 86.1944 50.4999Z" fill="black"/>
<path fill-rule="evenodd" clip-rule="evenodd" d="M104.751 20.5112C104.33 20.5138 103.91 20.5163 103.49 20.5188C103.909 20.2967 104.33 20.354 104.751 20.5112Z" fill="black"/>
<path fill-rule="evenodd" clip-rule="evenodd" d="M28.0522 93.1849C27.7026 93.1662 27.4178 93.3359 27.2206 93.0025C27.5433 92.7509 27.7295 93.0408 28.0522 93.1849Z" fill="black"/>
<path fill-rule="evenodd" clip-rule="evenodd" d="M92.8831 65.1238L91.7921 65.0011L92.8831 65.1238Z" fill="black"/>
<path fill-rule="evenodd" clip-rule="evenodd" d="M100.254 148.033C100.495 148.038 100.735 148.044 100.974 148.049C100.732 148.043 100.493 148.038 100.254 148.033Z" fill="black"/>
<path fill-rule="evenodd" clip-rule="evenodd" d="M156.238 18.8631C155.863 18.8967 155.487 18.9304 155.111 18.964C155.487 18.9301 155.863 18.8967 156.238 18.8631Z" fill="black"/>
<path fill-rule="evenodd" clip-rule="evenodd" d="M37.2137 132.797C36.853 132.798 36.4924 132.8 36.1318 132.801C36.4926 132.8 36.8532 132.798 37.2137 132.797Z" fill="black"/>
<path fill-rule="evenodd" clip-rule="evenodd" d="M8.21621 126.402C7.85205 126.403 7.4881 126.403 7.12415 126.404C7.48831 126.403 7.85205 126.403 8.21621 126.402Z" fill="black"/>
<path fill-rule="evenodd" clip-rule="evenodd" d="M100.225 49.8759C99.8554 49.9123 99.4858 49.9485 99.1161 49.9849C99.486 49.9485 99.8554 49.9123 100.225 49.8759Z" fill="black"/>
<path fill-rule="evenodd" clip-rule="evenodd" d="M89.9109 50.4758C89.5471 50.4339 89.1836 50.392 88.8201 50.3501C89.1804 50.4206 89.5808 50.1423 89.9109 50.4758Z" fill="black"/>
<path fill-rule="evenodd" clip-rule="evenodd" d="M122.851 65.0755C123.078 65.0499 123.395 64.9706 123.629 65.0076C123.598 65.1409 122.938 65.0751 122.851 65.0755Z" fill="black"/>
<path fill-rule="evenodd" clip-rule="evenodd" d="M99.7797 93.607C100.024 93.6116 100.268 93.6163 100.509 93.6203C100.264 93.6159 100.022 93.6114 99.7797 93.607Z" fill="black"/>
<path fill-rule="evenodd" clip-rule="evenodd" d="M77.7426 64.5499C77.3863 64.5844 77.0302 64.6189 76.6738 64.6532C77.0304 64.6187 77.3863 64.5844 77.7426 64.5499Z" fill="black"/>
<path fill-rule="evenodd" clip-rule="evenodd" d="M37.8486 63.3356C38.0429 63.3408 38.2371 63.3461 38.4288 63.3514C38.2337 63.3461 38.0412 63.3408 37.8486 63.3356Z" fill="black"/>
<path fill-rule="evenodd" clip-rule="evenodd" d="M90.3614 64.8182C90.0567 64.8121 89.7518 64.806 89.4473 64.8C89.752 64.806 90.0567 64.8121 90.3614 64.8182Z" fill="black"/>
<path fill-rule="evenodd" clip-rule="evenodd" d="M33.8064 62.5116C33.4983 62.5497 33.1902 62.5876 32.8826 62.6255C33.1909 62.5874 33.4985 62.5495 33.8064 62.5116Z" fill="black"/>
<path fill-rule="evenodd" clip-rule="evenodd" d="M76.0681 59.8943C76.2583 59.9019 76.4486 59.9096 76.6365 59.9178C76.4452 59.9106 76.2567 59.9026 76.0681 59.8943Z" fill="black"/>
<path fill-rule="evenodd" clip-rule="evenodd" d="M90.5834 91.8945C90.7766 91.8818 90.9695 91.8693 91.1602 91.8564C90.9664 91.8689 90.7749 91.8818 90.5834 91.8945Z" fill="black"/>
<path fill-rule="evenodd" clip-rule="evenodd" d="M105.362 66.8367C105.051 66.798 104.74 66.7592 104.43 66.7205C104.741 66.7592 105.051 66.798 105.362 66.8367Z" fill="black"/>
<path fill-rule="evenodd" clip-rule="evenodd" d="M30.3879 114.81C30.5896 114.807 30.7912 114.804 30.9906 114.801C30.7883 114.804 30.5879 114.807 30.3879 114.81Z" fill="black"/>
<path fill-rule="evenodd" clip-rule="evenodd" d="M13.831 89.7523C13.5098 89.7199 13.1886 89.6873 12.8672 89.6549C13.1884 89.6873 13.5096 89.7199 13.831 89.7523Z" fill="black"/>
<path fill-rule="evenodd" clip-rule="evenodd" d="M6.97724 126.446C6.66153 126.483 6.34583 126.519 6.02991 126.556C6.34604 126.519 6.66153 126.483 6.97724 126.446Z" fill="black"/>
<path fill-rule="evenodd" clip-rule="evenodd" d="M179.08 41.018C179.056 41.2909 179.031 41.5639 179.005 41.8358C179.03 41.5624 179.055 41.2903 179.08 41.018Z" fill="black"/>
<path fill-rule="evenodd" clip-rule="evenodd" d="M39.1006 132.524C38.783 132.561 38.4653 132.597 38.1479 132.634C38.4656 132.597 38.7832 132.561 39.1006 132.524Z" fill="black"/>
<path fill-rule="evenodd" clip-rule="evenodd" d="M35.9845 132.839C35.6631 133.063 35.3419 133.076 35.0203 132.84C35.3417 132.839 35.6631 132.839 35.9845 132.839Z" fill="black"/>
<path fill-rule="evenodd" clip-rule="evenodd" d="M29.8906 133.108C29.5789 133.108 29.2674 133.108 28.9559 133.108C29.2676 133.108 29.5791 133.108 29.8906 133.108Z" fill="black"/>
<path fill-rule="evenodd" clip-rule="evenodd" d="M66.3406 26.8907C66.3139 26.6142 66.2873 26.3378 66.2606 26.0623C66.2873 26.3393 66.3139 26.615 66.3406 26.8907Z" fill="black"/>
<path fill-rule="evenodd" clip-rule="evenodd" d="M100.378 20.7152C100.065 20.7539 99.7516 20.7924 99.4386 20.831C99.7518 20.7924 100.065 20.7539 100.378 20.7152Z" fill="black"/>
<path fill-rule="evenodd" clip-rule="evenodd" d="M101.488 20.5688C101.169 20.6043 100.851 20.6401 100.533 20.6759C100.851 20.6401 101.169 20.6043 101.488 20.5688Z" fill="black"/>
<path fill-rule="evenodd" clip-rule="evenodd" d="M52.0582 57.4199C52.2542 57.4169 52.4501 57.414 52.6433 57.411C52.4465 57.414 52.2525 57.4169 52.0582 57.4199Z" fill="black"/>
<path fill-rule="evenodd" clip-rule="evenodd" d="M80.4121 54.357C81.4515 54.1856 82.4907 54.1284 83.5296 54.3563L80.4121 54.357Z" fill="black"/>
<path fill-rule="evenodd" clip-rule="evenodd" d="M108.129 42.6668C108.345 42.1018 108.399 41.8898 108.927 41.5973C108.707 42.1464 108.673 42.4401 108.129 42.6668Z" fill="black"/>
<path fill-rule="evenodd" clip-rule="evenodd" d="M133.471 98.5798C133.492 99.1672 133.513 99.7546 133.534 100.341C133.513 99.7537 133.492 99.1667 133.471 98.5798Z" fill="black"/>
<path fill-rule="evenodd" clip-rule="evenodd" d="M171.16 19.5338C170.689 19.5444 170.22 19.5552 169.751 19.5658C170.222 19.5552 170.691 19.5444 171.16 19.5338Z" fill="black"/>
<path fill-rule="evenodd" clip-rule="evenodd" d="M108.531 109.02C108.548 109.51 108.564 109.999 108.58 110.489C108.564 109.999 108.547 109.509 108.531 109.02Z" fill="black"/>
<path fill-rule="evenodd" clip-rule="evenodd" d="M50.921 93.3311C51.3958 93.3344 51.8709 93.3378 52.3457 93.3412C51.8707 93.3378 51.3958 93.3344 50.921 93.3311Z" fill="black"/>
<path fill-rule="evenodd" clip-rule="evenodd" d="M91.2874 68.1776C91.0011 68.1803 90.7152 68.1829 90.4319 68.1865C90.7188 68.1839 91.003 68.1808 91.2874 68.1776Z" fill="black"/>
<path fill-rule="evenodd" clip-rule="evenodd" d="M90.3554 52.6117C90.1201 52.6037 89.8846 52.5956 89.6519 52.5884C89.8882 52.5967 90.1218 52.6041 90.3554 52.6117Z" fill="black"/>
<path fill-rule="evenodd" clip-rule="evenodd" d="M56.7037 93.1829C57.0751 93.1468 57.4462 93.1104 57.8176 93.074C57.4462 93.1104 57.0751 93.1468 56.7037 93.1829Z" fill="black"/>
<path fill-rule="evenodd" clip-rule="evenodd" d="M48.6133 93.3497C48.977 93.3442 49.3408 93.3385 49.7043 93.3328C49.3408 93.3385 48.977 93.3442 48.6133 93.3497Z" fill="black"/>
<path fill-rule="evenodd" clip-rule="evenodd" d="M52.4966 93.3404C52.8732 93.3076 53.2499 93.2748 53.6267 93.242C53.2501 93.2746 52.8732 93.3076 52.4966 93.3404Z" fill="black"/>
<path fill-rule="evenodd" clip-rule="evenodd" d="M53.87 93.9375C53.6828 93.9364 53.4955 93.9352 53.3108 93.9341C53.4989 93.9354 53.6845 93.9364 53.87 93.9375Z" fill="black"/>
<path fill-rule="evenodd" clip-rule="evenodd" d="M133.307 85.5218C133.335 85.2456 133.363 84.9697 133.391 84.6946C133.363 84.971 133.335 85.2463 133.307 85.5218Z" fill="black"/>
<path fill-rule="evenodd" clip-rule="evenodd" d="M77.07 57.6181C77.3061 57.6382 77.5425 57.6583 77.779 57.6787C77.5152 57.6922 77.2511 57.7055 76.9874 57.7191C76.9889 57.6649 77.0164 57.6313 77.07 57.6181Z" fill="black"/>
<path fill-rule="evenodd" clip-rule="evenodd" d="M137.762 104.047C137.747 103.795 137.732 103.544 137.717 103.294C137.732 103.546 137.747 103.796 137.762 104.047Z" fill="black"/>
<path fill-rule="evenodd" clip-rule="evenodd" d="M81.3103 56.659C81.1207 56.6628 80.9309 56.6664 80.7437 56.67C80.9343 56.6662 81.1222 56.6626 81.3103 56.659Z" fill="black"/>
<path fill-rule="evenodd" clip-rule="evenodd" d="M150.734 88.3919C151.05 88.4289 151.366 88.466 151.682 88.5028C151.366 88.466 151.05 88.4289 150.734 88.3919Z" fill="black"/>
<path fill-rule="evenodd" clip-rule="evenodd" d="M85.0764 67.5629C84.8817 67.5659 84.6872 67.5686 84.4951 67.572C84.6904 67.5692 84.8834 67.5661 85.0764 67.5629Z" fill="black"/>
<path fill-rule="evenodd" clip-rule="evenodd" d="M73.8255 29.5125C74.0297 29.6214 73.9237 30.1005 73.7246 30.0548C73.7583 29.8739 73.7919 29.6932 73.8255 29.5125Z" fill="black"/>
<path fill-rule="evenodd" clip-rule="evenodd" d="M179.096 86.4496C178.909 86.4448 178.721 86.4399 178.536 86.435C178.724 86.4401 178.91 86.445 179.096 86.4496Z" fill="black"/>
<path fill-rule="evenodd" clip-rule="evenodd" d="M64.9122 27.0283C64.8923 26.6062 64.8726 26.1842 64.8529 25.7634C64.8726 26.1859 64.8925 26.607 64.9122 27.0283Z" fill="black"/>
<path fill-rule="evenodd" clip-rule="evenodd" d="M100.435 146.398C100.724 146.44 101.013 146.482 101.302 146.525C101.012 146.482 100.724 146.44 100.435 146.398Z" fill="black"/>
<path fill-rule="evenodd" clip-rule="evenodd" d="M98.5248 37.7234C97.5059 37.933 96.4596 38.0427 95.4646 38.3514C95.2164 38.4284 94.4018 38.9015 94.1045 38.7769C93.6527 38.5871 93.8812 38.1002 94.0715 37.8404C94.5806 37.1455 95.4913 36.7561 96.3265 36.7648C97.16 36.7737 98.3043 36.7432 98.5248 37.7234Z" fill="black"/>
<path fill-rule="evenodd" clip-rule="evenodd" d="M95.694 39.5877C96.8159 40.373 97.6728 40.7598 97.7679 38.9948C98.9837 39.1605 98.4388 41.1187 97.5188 41.2664C96.5175 41.427 95.8495 40.4267 95.694 39.5877Z" fill="black"/>
</svg>
