<svg width="150" height="141" viewBox="0 0 150 141" fill="none" xmlns="http://www.w3.org/2000/svg">
<path fill-rule="evenodd" clip-rule="evenodd" d="M77.7713 8.70066C77.1106 10.4491 76.4504 12.1979 75.7897 13.9464C75.3662 15.0669 74.9431 16.1872 74.5198 17.3077C74.3695 17.705 74.286 18.1125 73.9957 18.3883C73.3113 19.0377 72.083 19.451 71.2605 19.9078C70.7095 20.2139 70.1583 20.52 69.6074 20.8262C69.3232 20.9841 68.6933 21.1824 68.4941 21.4446C68.2751 21.7334 68.3786 22.2639 68.3786 22.6633V26.1117V32.6093C71.2248 32.2535 74.0712 31.8978 76.9175 31.542C73.1254 35.9175 69.3335 40.2928 65.5414 44.6683C64.6068 45.7465 63.4722 46.7844 62.7759 48.039C61.294 50.7095 59.8453 53.3992 58.3805 56.0792C57.0169 58.5736 55.6532 61.0682 54.2896 63.5626L66.5575 63.0404C69.7337 62.9053 72.9966 63.1085 76.057 62.2083C78.5798 61.4663 81.1023 60.7245 83.6251 59.9825C83.9607 59.8836 85.0059 59.772 85.2437 59.5019C85.4663 59.249 85.4616 58.2933 85.5246 57.9697C86.7153 51.8495 88.2312 45.1051 91.7065 39.8368C94.1981 36.0603 97.5603 32.7538 100.639 29.4606C101.841 28.1753 103.064 26.9054 104.223 25.581C104.52 25.2418 104.949 24.8569 105.145 24.4449C105.272 24.1787 105.449 23.6715 105.371 23.4352C105.336 23.3327 104.544 22.9651 104.431 22.8921C103.628 22.3762 102.832 21.8493 102.034 21.325C99.7934 19.8517 97.5545 18.3747 95.3007 16.9209C93.5436 15.7874 91.7915 14.5856 89.9381 13.6115C88.0171 12.6018 85.9014 11.8911 83.8873 11.0934C81.8521 10.2871 79.813 9.49008 77.7713 8.70066Z" fill="#FF5678"/>
<path fill-rule="evenodd" clip-rule="evenodd" d="M146.849 102.112C145.871 103.033 144.092 104.269 142.685 103.707C141.978 103.425 141.375 102.805 140.731 102.405C139.975 101.936 139.264 101.466 138.623 100.84C137.344 99.5907 136.376 97.7657 134.866 96.7878C134.358 96.4591 133.367 96.3886 133.015 95.8637C132.857 95.6283 132.842 95.2711 132.871 94.9989C132.934 94.4128 133.251 94.4473 132.722 94.017H133.544C133.56 93.6995 133.243 93.6733 133.007 93.7143C133.116 93.2111 133.228 91.2423 132.311 92.1346C131.516 92.908 131.914 94.1912 131.351 95.0288C130.92 95.6703 129.776 95.1509 129.622 94.4452C129.552 94.1282 129.902 93.6332 129.943 93.3223C130.035 92.633 129.727 92.037 129.28 91.5151C128.299 92.1685 128.855 93.5209 128.296 94.3794C127.79 95.1563 126.664 94.7938 125.894 94.6572C124.971 94.4932 123.927 94.6591 123.044 94.4411C121.711 94.112 122.209 92.5464 122.077 91.5358C121.935 90.4533 120.841 88.9509 121.17 87.8588C121.523 86.6862 123.587 86.4328 124.574 86.1482C126.829 85.4978 130.045 85.3727 131.722 83.5518C133.055 85.0388 134.127 86.7415 135.526 88.173C137.036 89.7192 138.65 91.1467 140.1 92.7552C141.609 94.4292 143.167 96.071 144.621 97.7935C145.256 98.5449 145.813 99.3546 146.47 100.088C147.053 100.74 147.668 101.34 146.849 102.112ZM79.8268 73.1925C80.5197 72.824 80.6078 73.055 80.6076 73.8139C80.4083 73.4495 80.2104 73.3519 79.8268 73.1925ZM73.952 87.9446V86.607C74.62 86.5895 74.2093 87.7337 73.952 87.9446ZM73.7887 89.9367C73.7887 89.3443 73.7727 88.7803 73.9435 88.2042C74.0332 88.832 74.2044 89.3755 73.7887 89.9367ZM76.6608 130.629C77.2743 130.686 78.2198 130.264 78.7357 130.745C79.2658 131.24 79.2233 132.679 79.3488 133.347C79.5563 134.452 79.7401 135.56 79.9149 136.669C80.0296 137.397 80.1713 138.136 79.3488 138.414C78.1333 138.825 76.3965 138.238 75.1296 138.185C72.6268 138.08 70.1252 137.933 67.6203 137.882C65.1925 137.833 62.7591 137.872 60.3424 138.125C59.2507 138.239 58.1832 138.44 57.1026 138.623C56.533 138.719 55.0069 139.121 54.4925 138.641C53.5246 137.737 55.1338 135.627 55.8258 135.031C57.1103 133.925 58.9369 133.128 60.5476 132.647C61.4083 132.39 62.8432 131.67 63.5212 132.476C64.0415 133.094 64.0207 133.92 64.7662 134.388C66.4934 135.474 65.4828 132.36 64.4035 131.976C65.1282 130.28 66.5096 132.675 67.0826 133.25C67.2864 133.455 67.9495 134.13 68.2374 133.791C68.453 133.537 68.0225 132.626 67.9426 132.379C67.8214 132.003 67.5146 131.431 67.6028 131.023C67.7625 130.284 68.7978 130.083 69.4179 130.022C70.3796 129.927 71.3229 130.231 72.2737 130.333C73.7318 130.49 75.2011 130.492 76.6608 130.629ZM67.0051 61.0991C65.1067 61.2503 63.1963 60.96 61.3024 61.1975C59.5105 61.4225 57.822 62.0805 56.1328 62.6848C58.6441 56.7949 61.8931 51.4332 65.8532 46.4104C67.8252 43.9088 69.9463 41.4244 72.0771 39.0568C73.0687 37.9553 74.0942 36.8903 75.118 35.8197C76.0312 34.8646 76.6855 33.2427 77.7815 32.5295C78.7169 31.9207 80.3517 32.3549 81.3883 32.3927C82.5601 32.4354 83.986 32.5419 85.1287 32.1519C85.9568 31.8692 86.1846 31.115 85.148 31.0901C83.9254 31.0604 82.7229 31.1878 81.4844 31.0732C78.2753 30.7767 75.1819 30.2893 71.9467 30.5658C71.2055 30.629 70.23 30.9447 69.5027 30.8499C68.9797 30.7814 69.3236 31.0444 68.96 30.6247C68.8209 30.4642 68.6531 30.0867 68.6119 29.8735C68.3802 28.6757 69.038 26.9641 69.1953 25.7582C69.3409 24.6422 69.2119 23.4156 69.4843 22.3288C69.7324 21.3398 70.4885 21.2079 71.4196 21.1022C73.967 20.8129 76.5666 20.659 79.1255 20.4411C84.9652 19.9437 90.9904 19.1933 96.7904 20.4225C98.8848 20.8663 101.439 21.5526 103.309 22.6516C103.895 22.995 104.485 23.3996 104.272 24.1113C104.051 24.8501 102.969 25.6305 102.433 26.1173C98.4711 29.7138 94.6446 33.3823 91.8616 37.9971C88.3124 43.8819 86.2757 50.2375 85.0807 56.9809C84.8237 58.4316 84.585 59.1909 83.0924 59.6085C81.4901 60.057 79.9435 60.3484 78.2821 60.4848C74.5263 60.7932 70.759 60.7996 67.0051 61.0991ZM68.2771 22.1279C67.9894 24.2701 67.5998 26.4076 67.5614 28.5666C67.5469 29.3821 67.4696 29.7907 66.6025 29.9725C65.5801 30.1869 64.5408 30.3465 63.5138 30.569C58.5572 31.6432 53.6943 32.9624 48.8451 34.4473C44.1323 35.8908 39.497 37.5147 34.6783 38.584C32.6055 39.044 30.1801 39.3539 28.2921 40.3724C26.2612 41.4684 26.5284 43.2652 26.3461 45.2387C26.1026 47.8755 25.3206 50.4286 25.0457 53.0643C24.9142 54.3238 24.7944 55.5907 24.8143 56.8581C24.8311 57.9385 24.9859 59.1331 24.2597 60.0422C22.8027 58.0945 22.1122 55.6448 21.825 53.2575C21.6854 52.0971 21.7407 50.9273 21.7008 49.7615C21.6686 48.8229 21.6895 47.3299 21.0781 46.546C19.749 44.8425 18.0206 51.6693 17.8562 52.3983C17.5798 53.6253 17.3518 54.8626 17.0764 56.0898C16.9543 56.6338 16.7976 58.6111 16.0688 58.8082C14.5585 59.2168 14.89 54.9727 14.8661 54.3266C14.8183 53.0223 14.7858 51.7165 14.8164 50.4111C14.8386 49.4688 15.0209 48.4463 14.9126 47.5036C14.6469 45.1889 13.3453 47.6276 12.9795 48.4892C12.0549 50.6643 11.6367 52.9924 10.8076 55.2022C10.6697 55.5698 10.3457 56.8073 9.83225 56.8304C9.26101 56.8558 9.26549 55.5777 9.23283 55.2044C9.04327 53.04 8.40307 50.8908 8.59626 48.704C8.79137 46.4958 9.56542 44.2258 10.6607 42.3052C12.9765 38.2445 17.1584 35.913 21.1639 33.7892C25.748 31.359 30.5876 29.4391 35.5305 27.875C41.4752 25.9939 47.5792 24.4718 53.7199 23.3887C56.8441 22.8377 60.0165 22.4436 63.1726 22.1277C64.2818 22.0167 65.3914 21.9518 66.4863 21.7407C66.8996 21.6608 68.3907 21.2815 68.2771 22.1279ZM71.4705 15.1954C69.9042 15.2078 68.3042 14.4485 66.7784 14.1347C64.9617 13.7607 63.1876 13.2196 61.3741 12.8291C57.8231 12.0647 54.27 11.3192 50.7222 10.5379C49.182 10.1987 47.6343 9.90351 46.1001 9.53918C44.4587 9.14938 42.6854 8.71475 41.0054 9.13465C38.4589 9.77122 37.3832 12.5572 36.4482 14.7314C35.7877 16.2671 35.2703 17.9789 34.2403 19.3152C33.8736 19.7917 33.3522 20.3599 32.6873 20.2056C31.4519 19.9191 31.6481 18.2844 31.8054 17.3808C32.0334 16.0694 32.3564 14.7734 32.6149 13.468C32.7191 12.9412 33.5264 9.49307 32.0851 10.0269C31.0158 10.4229 30.4501 13.0311 30.0454 13.9627C29.7446 14.6549 29.4259 15.3427 29.0884 16.018C28.638 16.9186 27.3529 19.9279 25.9301 19.5398C23.894 18.9843 25.847 13.6316 26.1939 12.5034C26.3843 11.8841 28.454 7.18758 26.7071 7.5714C25.9632 7.73514 25.2384 9.11693 24.8591 9.68967C24.1865 10.7055 23.5159 11.7287 22.8828 12.7696C22.2315 13.8401 21.8989 15.0586 21.2529 16.1136C20.9131 16.6688 20.2195 17.4087 19.5424 16.8947C18.4868 16.094 19.1125 13.3086 19.2973 12.2553C19.6412 10.2971 20.4956 8.28973 21.6677 6.68891C23.4291 4.28353 26.7526 3.50628 29.5473 3.03899C33.1548 2.43572 36.8124 2.60074 40.435 2.95766C44.5091 3.3592 48.5211 3.78913 52.5369 4.61014C56.5841 5.43755 60.6334 6.25834 64.6183 7.3526C66.4955 7.86813 68.3997 8.32517 70.2503 8.93036C72.2176 9.57355 74.1376 10.374 76.1598 10.8374C75.4485 12.6125 74.737 14.3875 74.0257 16.1627C73.3449 15.4892 72.4157 15.1878 71.4705 15.1954ZM106.335 20.0867C106.959 19.7456 107.648 19.5846 107.876 18.8306C108.077 18.1644 107.733 17.4096 107.569 16.77C107.109 14.9794 106.988 13.1246 107.395 11.3128C107.784 11.9065 109.239 14.19 110.125 12.8076C110.659 11.9737 109.228 10.7743 108.81 10.1881C109.727 9.62243 111.036 8.10423 112.092 9.0198C112.775 9.61176 113.064 10.1817 113.984 10.4694C115.1 10.8189 116.152 10.7388 117.292 10.6423C118.091 10.5749 118.283 10.4684 118.595 11.0831C118.84 11.5664 118.966 12.1646 119.109 12.6835C119.391 13.7067 120.043 15.7227 119.271 16.6812C118.594 17.5208 115.967 16.801 115.602 17.8848C115.403 18.4759 116.353 18.497 116.716 18.7894C117.165 19.1515 117.537 19.7276 117.781 20.2423C117.962 20.6229 118.237 21.2518 117.929 21.641C117.504 22.1794 116.715 21.771 116.373 21.3797C115.917 20.8599 115.77 20.1493 115.39 19.5831C114.693 18.5444 114.651 19.3707 114.462 20.1166C114.265 20.8915 113.798 20.8381 113.084 20.9376C111.831 21.1124 110.565 21.359 109.346 21.6948C108.72 21.8668 108.115 22.0861 107.519 22.3422C107.136 22.507 106.471 23.0063 106.055 23.011C105.283 23.0198 104.749 21.7298 104.351 21.1916C105.011 20.8225 105.671 20.45 106.335 20.0867ZM147.755 99.0758C145.828 96.7635 144.16 94.2514 142.259 91.9188C140.385 89.6182 138.216 87.6067 136.113 85.523C135.12 84.5395 134.169 83.4606 133.073 82.5892C132.255 81.939 131.626 81.929 130.642 82.217C127.848 83.0354 125.003 84.0206 122.358 85.2418C119.896 86.3792 117.653 87.8396 114.982 88.4738C112.257 89.1212 109.422 89.3292 106.629 89.1686C103.763 89.004 101.06 88.4078 98.3351 87.5315C95.7542 86.7015 93.0632 85.9768 90.8559 84.3318C88.5419 82.6074 86.7541 80.1271 85.0976 77.7943C84.2588 76.6133 83.4263 75.3731 82.8613 74.0346C82.3709 72.8731 82.0505 71.5022 81.1706 70.5555C80.9547 70.8614 80.6862 71.1237 80.5765 71.483C80.5265 71.6463 80.8207 71.6412 80.7906 71.771C80.7336 72.0154 80.4083 72.2647 80.2191 72.3977C79.5396 72.8759 79.5356 72.4953 79.7138 73.3895C79.8176 73.9108 79.6212 75.0868 78.7712 74.7026C79.0841 75.0772 78.5869 75.55 78.4245 75.8587C78.3128 75.7304 78.1739 75.6858 78.0078 75.7245C78.3186 76.3435 78.135 76.36 77.8338 76.8516C77.7787 76.9415 77.5838 77.4117 77.6118 77.372C77.304 77.8105 76.9483 77.9209 76.7688 78.4669C76.6213 78.9154 76.6591 79.4085 76.4947 79.8564C76.296 79.5817 76.0972 79.3069 75.8985 79.0324C75.939 79.2484 76.0202 79.5682 76.1145 79.7642C76.1739 79.8867 76.4283 80.1728 76.4249 80.2396C76.411 80.4893 76.0993 80.4293 76.0106 80.6447C75.8438 81.0488 76.0848 81.1084 75.9939 81.5027C75.8897 81.9552 75.6101 81.7742 75.4771 82.16C75.4519 82.2332 75.6483 82.5214 75.6171 82.6793C75.5734 82.9026 75.371 83.0275 75.2995 83.226C75.1176 83.7311 75.1838 84.1008 74.9312 84.5852C74.8335 84.7731 74.6911 84.8981 74.6221 85.1116C74.5617 85.2995 74.6917 85.6993 74.5752 85.8675C74.012 86.6785 74.0912 85.2815 74.1339 84.9351C74.4923 82.0261 75.6423 79.0239 76.6947 76.3049C77.2177 74.954 77.7266 73.5609 78.3824 72.2671C78.6463 71.746 78.9509 71.2083 79.387 70.8097C79.9386 70.3055 80.7212 70.1038 81.2207 69.5406C81.142 69.6294 81.7623 69.0424 81.663 69.2354C81.7518 69.0629 81.5969 68.8293 81.6519 68.6624C81.7205 68.4551 81.85 68.4116 81.9943 68.2301C82.2537 67.9044 82.5618 67.7421 82.1544 67.3271C82.759 67.1935 83.048 66.9973 83.1689 66.3499C83.257 65.8762 83.079 65.9071 83.3898 65.5914C83.7017 65.2742 83.8597 65.5218 84.0563 64.9726C84.2913 64.3153 84.4473 63.4215 84.5882 62.7337C84.7112 62.1332 84.4128 61.2501 84.9189 60.8261C85.56 60.2892 86.1335 60.5166 86.0187 59.4368C85.9066 58.3842 86.2337 57.7466 86.5624 56.7505C87.2184 54.762 87.472 52.6626 88.0471 50.6504C89.2748 46.3562 91.4434 42.4845 93.7754 38.7046C95.9301 35.2118 98.9426 32.236 101.852 29.3701C102.648 28.5852 103.436 27.7889 104.151 26.9284C104.767 26.1875 105.048 25.1786 105.641 24.4752C106 24.0481 106.67 23.8654 107.172 23.6389C108.01 23.261 109.008 22.7681 109.953 22.8445C109.578 24.1111 109.455 25.5911 110.564 26.5408C111.909 27.6929 113.128 26.496 114.361 25.8391C116.609 24.6417 119.823 25.7409 121.783 23.9463C122.249 23.5189 122.38 22.836 122.865 22.4368C123.221 22.1441 123.727 22.0698 124.128 21.8517C125.346 21.1889 125.937 19.9755 125.463 18.6351C125.029 17.4098 124.356 16.9848 125.855 16.3638C127.072 15.86 127.535 15.1009 126.984 13.7494C126.459 12.4609 125.496 12.3125 124.586 11.4693C123.705 10.6526 124.718 9.70206 125.378 9.08897C126.23 8.29806 126.392 7.58528 125.405 6.76278C124.371 5.90163 122.895 5.93174 121.689 6.35761C120.326 6.83899 119.428 7.63929 118.851 8.93612C118.264 10.2564 116.808 9.88793 115.629 9.51997C114.501 9.16817 114.207 8.40906 113.467 7.59168C112.643 6.68251 110.965 7.45997 109.993 7.87539C107.601 8.89791 105.223 10.5117 105.128 13.3703C105.072 15.0748 105.792 16.5237 106.167 18.1236C106.51 19.5868 104.16 19.4715 103.753 20.8868C99.4104 18.5881 94.5746 17.8848 89.7207 17.7283C84.5618 17.5618 79.3285 17.4284 74.2136 18.2421C75.4009 16.1736 76.0278 13.9052 77.0608 11.7801C77.3582 11.1683 77.4863 11.2206 78.1425 11.4055C79.403 11.7605 80.6542 12.1578 81.9122 12.5234C86.5078 13.8593 91.0131 15.4689 95.4567 17.2317C95.8885 17.4032 96.8528 17.879 97.2313 17.3615C97.668 16.7649 96.6574 16.0293 96.2486 15.7291C94.4593 14.4165 92.242 13.6198 90.2382 12.6989C85.8571 10.6861 81.0058 9.73066 76.4345 8.23573C66.566 5.00783 56.3565 2.55633 46.1009 0.937158C43.5982 0.542024 41.0688 0.484173 38.5552 0.190864C36.3287 -0.06893 34.0981 -0.0629526 31.8718 0.20538C27.76 0.701273 22.9929 1.77119 20.6706 5.53511C18.5741 8.93356 17.1746 12.7544 17.7095 16.7856C17.8703 17.9964 18.383 19.4303 19.8771 19.1182C20.9135 18.9017 21.4639 18.0212 21.945 17.1617C22.6721 15.8634 23.3902 14.5651 24.1781 13.3015C24.4704 15.1961 23.4084 17.059 23.5753 18.989C23.6889 20.2987 24.4125 22.3679 26.1128 21.9971C28.4433 21.489 29.4024 17.8482 30.5229 16.1016C30.5797 17.4469 30.1081 18.7728 30.2524 20.1211C30.3948 21.4529 31.4355 22.7103 32.8971 22.5277C34.2757 22.3557 35.1717 20.8787 35.7572 19.7667C36.572 18.2193 37.1574 16.5602 37.9532 15.0025C38.6991 13.5423 39.5826 11.804 41.3634 11.5297C42.9527 11.2847 44.774 11.8519 46.3439 12.0858C50.6985 12.7348 54.9653 13.8397 59.2723 14.7324C63.8903 15.6894 68.6174 16.2707 73.093 17.8149C71.5193 19.9569 67.4011 19.4941 65.0567 19.724C61.514 20.0716 57.9257 20.333 54.403 20.8458C50.9239 21.3522 47.5175 22.2511 44.0655 22.9037C40.6316 23.5528 37.2037 24.2031 33.881 25.3101C27.7119 27.3656 21.4399 29.967 16.0045 33.5535C13.4756 35.2224 11.229 37.1298 9.66681 39.764C8.0946 42.4147 7.33913 45.412 7.05094 48.461C6.87163 50.3596 7.17625 52.0027 7.54406 53.8505C7.81047 55.1884 7.89671 57.4283 8.9694 58.4079C11.0168 60.2777 12.7167 52.6935 13.0947 51.7775C13.3669 53.2786 12.9218 61.7355 16.2069 61.0477C17.673 60.7409 18.0056 58.7285 18.2488 57.5165C18.6924 55.3068 19.0896 53.0528 19.8483 50.9247C20.3352 53.792 20.5382 56.7793 21.5872 59.518C22.284 61.3367 24.2721 64.564 25.6581 61.4503C26.6977 59.1151 26.341 56.435 26.4657 53.9558C26.6038 51.2084 27.3926 48.5584 27.6718 45.8379C27.78 44.784 27.682 43.5962 28.7411 43.0212C29.6502 42.5276 30.9797 42.3669 31.9724 42.0913C34.9125 41.275 37.8719 40.5246 40.7981 39.6586C43.7257 38.7919 46.6126 37.7794 49.5011 36.7912C52.2636 35.8462 55.0842 35.3089 57.8803 34.4996C59.47 34.0394 61.0405 33.558 62.6524 33.1737C63.4025 32.9951 64.1619 32.8559 64.9103 32.6708C65.4651 32.5338 66.196 32.0165 66.7664 32.0257C67.3535 32.0353 67.574 32.5323 68.2473 32.5713C68.972 32.6132 69.7089 32.4533 70.4296 32.398C72.1854 32.2633 74.0517 32.0456 75.8035 32.2889C74.7506 33.5377 73.3287 34.401 72.0825 35.4355C70.6452 36.6286 69.2542 37.9169 68.0265 39.3258C65.5562 42.1607 63.2215 45.1571 61.0524 48.2283C58.9128 51.2581 57.1901 54.5736 55.6924 57.9609C54.9461 59.6488 54.2216 61.3737 53.7061 63.1478C53.4943 63.8766 53.3214 64.6082 52.9391 65.271C52.5883 65.879 52.0941 66.403 52.5087 67.1372C52.7941 66.9585 53.0505 66.7365 53.3086 66.5219C53.0103 68.6227 52.3667 70.6549 52.0359 72.7493C51.7097 74.8127 51.7229 76.9348 51.744 79.0187C51.7884 83.3829 52.1129 87.6483 52.9982 91.929C53.8935 96.2576 55.0437 100.553 56.494 104.729C57.8901 108.749 59.2911 112.966 61.2399 116.755C63.3212 120.802 65.7972 125.058 68.81 128.484C66.842 129.29 64.3375 129.139 62.2536 129.464C60.0754 129.803 58.1911 130.444 56.3347 131.649C54.4566 132.869 53.4371 134.439 53.1775 136.663C52.9931 138.246 52.4451 140.438 54.5217 140.853C56.0154 141.152 57.6851 140.661 59.1818 140.54C61.7998 140.328 64.4214 140.195 67.0454 140.081C69.6624 139.966 72.2799 139.866 74.8977 139.785C76.129 139.746 77.361 139.727 78.5918 139.683C79.1434 139.663 79.478 139.655 79.9726 139.814C80.3636 139.941 80.335 140.202 80.7705 139.879C81.4728 139.356 81.3283 137.709 81.3087 136.985C81.2788 135.868 81.1729 134.737 80.955 133.641C80.8256 132.99 79.2553 128.79 80.4764 128.613C79.0578 127.054 78.4913 124.828 77.8541 122.875C77.0557 120.427 76.3549 117.986 75.8048 115.469C74.6296 110.091 74.1102 104.655 74.1102 99.1529C79.5576 102.511 85.3211 104.329 91.7372 104.532C98.1161 104.734 105.124 104.21 111.181 102.088C113.986 101.105 116.499 99.8144 118.904 98.0757C119.766 97.4526 120.689 96.0411 121.821 96.0652C123.171 96.0943 124.683 96.6053 126.024 96.8239C128.588 97.2419 131.935 97.4778 134.106 99.0639C135.285 99.9254 136.13 101.131 137.183 102.124C137.983 102.879 139.042 103.289 139.836 104.045C140.693 104.859 140.353 105.924 141.775 105.99C142.99 106.046 144.322 105.557 145.37 104.983C147.461 103.839 149.687 101.395 147.755 99.0758Z" fill="black"/>
<path fill-rule="evenodd" clip-rule="evenodd" d="M127.659 44.622C130.719 46.7953 134.228 48.28 137.426 50.2373C138.226 50.7272 140.719 51.7444 140.695 52.6532C140.681 53.1845 139.932 53.8507 139.604 54.219C139.042 54.8498 138.513 55.4872 137.994 56.1545C135.62 59.2104 133.384 62.295 130.811 65.1974C130.424 65.6339 129.256 67.7185 128.88 66.6831C128.709 66.2137 128.85 65.6862 128.404 65.2486C128.175 65.0232 127.29 64.8989 127.548 64.4154C127.72 64.4927 127.892 64.5702 128.064 64.6472C127.93 64.2609 127.94 63.8375 127.74 63.4723C127.616 63.2454 127.372 63.138 127.288 62.8825C127.171 62.5294 127.369 62.1191 127.336 61.7551C127.303 61.3922 127.115 61.0492 127.003 60.7068C126.337 58.6771 126.098 56.631 125.757 54.5368C125.42 52.4647 124.895 50.4574 124.689 48.3622C124.471 46.1491 124.204 43.9406 123.847 41.7452C124.483 41.8345 124.972 42.5255 125.422 42.9161C126.129 43.5301 126.897 44.0802 127.659 44.622ZM125.261 66.0474C125.115 65.9328 125 65.7919 124.918 65.6249C126.418 64.8821 125.513 66.1494 125.261 66.0474ZM124.349 64.463C123.695 64.6432 123.225 64.6797 122.721 64.4107C122.674 64.3853 122.729 64.1887 122.642 64.1484C122.567 64.1134 122.452 64.1567 122.388 64.1238C122.168 64.0122 121.784 64.2568 121.747 63.8294C122.581 63.5741 123.401 63.103 124.282 63.0236C125.506 62.9134 125.449 64.1595 124.349 64.463ZM121.485 61.9996C120.593 62.2081 119.858 62.6953 118.911 62.568C118.021 62.4489 117.248 61.9876 116.546 61.4561C118.302 60.9591 120.143 60.8695 121.896 60.3887C122.467 60.2322 123.218 59.8196 123.833 59.9859C124.517 60.1708 124.56 60.8112 124.765 61.3939C123.671 61.5908 122.568 61.7464 121.485 61.9996ZM115.907 59.5267C115.05 59.7314 114.174 60.1791 113.457 59.4065C113.342 59.2819 113.241 59.4063 113.254 59.0223C113.269 58.6173 113.636 58.3565 113.952 58.2139C114.696 57.8787 115.738 58.0954 116.527 58.0461C117.786 57.9677 119.068 57.706 120.314 57.5045C121.176 57.3651 122.067 57.0556 122.948 57.1166C123.629 57.1638 124.45 57.7438 123.458 58.1669C122.555 58.5524 121.2 58.4933 120.222 58.6602C118.775 58.907 117.334 59.1856 115.907 59.5267ZM115.07 55.4955C115.125 55.5521 115.181 55.6087 115.236 55.6652C115.227 55.6631 115.565 55.3897 115.654 55.3818C116.089 55.344 116.525 55.3739 116.961 55.3493C117.963 55.2927 118.973 55.1181 119.958 54.9258C120.76 54.7691 121.577 54.4991 122.402 54.5667C123.117 54.6252 123.192 54.7717 123.239 55.4614C121.415 55.4614 119.535 55.423 117.742 55.8091C116.575 56.0604 115.289 56.8088 114.704 55.4597C114.826 55.4716 114.948 55.4836 115.07 55.4955ZM116.21 52.5755C116.663 52.92 117.896 52.3471 118.438 52.2898C119.027 52.2275 119.581 52.1628 120.151 52.0162C120.657 51.886 122.331 51.2357 122.719 51.8576C123.314 52.8103 120.905 52.9851 120.523 53.0323C118.921 53.2302 117.26 53.4057 115.701 53.8258C115.871 53.4091 116.04 52.9924 116.21 52.5755ZM118.407 49.3395C118.524 49.7799 122.146 48.1571 122.212 49.3365C122.263 50.2414 118.629 50.6922 117.975 50.6128C118.128 50.1961 118.535 49.823 118.407 49.3395ZM119.623 46.5714C119.7 45.6831 119.82 45.6883 120.532 45.6046C121.075 45.5408 121.822 45.2223 121.681 46.1906C121.56 47.0197 119.546 47.4678 119.623 46.5714ZM120.918 43.5151C121.089 43.0382 121.475 43.6801 121.483 43.9226C121.505 44.568 121.016 44.4284 120.545 44.4284C120.676 44.1269 120.8 43.8221 120.918 43.5151ZM126.88 39.9354C126.784 39.8197 126.244 39.7755 126.091 39.7194C125.713 39.5811 125.767 39.2863 125.284 39.577C125.26 39.5527 125.306 39.3341 125.28 39.3241C125.266 39.3189 124.928 39.1913 124.818 39.1208C124.553 38.9509 124.314 38.7846 124.07 38.5714C123.811 38.3449 123.551 38.0161 123.255 37.8357C123.13 37.7597 123.028 37.6519 122.878 37.6287C122.487 37.5685 122.599 37.8404 122.258 37.8944C122.048 37.9277 121.894 37.6823 121.62 37.7881C121.382 37.8795 121.244 38.2127 121.138 38.411C120.753 39.1328 120.456 39.9096 120.08 40.639C118.153 44.369 115.963 47.9575 114.096 51.7222C113.197 53.5359 112.259 55.3621 111.627 57.2895C111.171 58.6797 110.14 60.7104 111.027 62.0995C111.671 63.1094 112.962 63.5455 113.991 64.0335C115.54 64.7679 116.968 65.7276 118.535 66.4395C120.402 67.2885 122.216 68.1766 124.036 69.1246C124.813 69.5289 125.513 70.1112 126.287 70.4942C126.761 70.7284 127.491 70.3288 127.646 70.8656C128.239 70.1471 129.199 70.6261 129.885 70.1202C130.289 69.8226 130.584 69.2364 130.921 68.8699C131.426 68.3204 131.974 67.8107 132.489 67.2708C134.535 65.1265 136.423 62.8932 138.284 60.59C140.061 58.3906 142.138 56.3127 143.639 53.9052C144.235 52.9495 144.343 51.9472 143.95 50.8914C143.663 50.1212 142.97 48.9582 141.982 49.4682C142.357 48.8457 140.911 48.181 140.472 48.0593C140.465 48.0576 140.379 48.5357 140.257 48.5238C140.3 48.5281 139.889 47.4643 139.708 47.3279C139.172 46.9221 138.52 46.4486 137.935 46.1146C137.398 45.8082 136.832 45.6565 136.312 45.3136C135.682 44.8982 135.103 44.4055 134.471 43.9929C133.86 43.5945 133.179 43.1236 132.504 42.8497C131.919 42.6121 131.393 42.5656 130.867 42.1762C130.215 41.6944 129.647 41.3676 128.895 41.0357C128.245 40.7485 127.345 40.4977 126.88 39.9354Z" fill="black"/>
<path fill-rule="evenodd" clip-rule="evenodd" d="M38.1493 97.6244C38.2689 97.3437 38.388 97.063 38.5075 96.7825C38.6552 97.2718 38.6967 97.5151 38.1493 97.6244ZM38.3083 98.921C38.0494 98.9674 38.1514 98.1551 38.1514 98.0136C38.5987 98.2668 38.2283 98.5703 38.3083 98.921ZM37.9047 96.5778C38.1254 96.4473 38.3461 96.3171 38.5669 96.1867C38.2595 96.7562 38.3801 96.4004 38.5069 96.7808C38.275 96.8474 38.0496 96.7697 37.9047 96.5778ZM36.5965 101.029C35.7691 104.031 33.1411 106.399 30.3653 107.625C28.7703 108.33 27.2021 108.506 25.4796 108.427C24.8153 108.397 24.0335 108.181 23.3942 108.221C22.9019 108.252 22.9241 108.274 22.5164 108.69C22.336 108.358 22.4667 108.125 22.1048 107.932C21.6534 107.69 21.4659 107.971 21.242 108.305C20.9489 108.002 20.8289 107.843 20.4492 107.663C20.4611 107.668 20.0856 107.654 20.101 107.659C20.0331 107.638 19.6247 107.375 19.4969 107.328C18.9722 107.131 18.3655 107.05 17.8813 106.767C17.4578 106.521 17.109 105.829 16.6244 106.361C16.624 105.472 15.4266 105.103 14.8654 104.637C13.9885 103.91 13.2913 102.833 12.8541 101.791C12.3879 100.68 12.2322 99.6144 12.0141 98.4693C11.8617 97.6693 10.8635 96.5127 11.4629 95.7053C11.6057 96.0439 11.5387 96.3906 11.7758 96.6975C11.9893 96.2862 12.1067 95.8259 12.2032 95.3757C12.2506 95.1552 12.5251 94.508 12.494 94.3158C12.4306 93.9226 11.9438 93.9013 12.2137 93.4193C12.7734 94.0283 13.2251 92.9588 12.8022 92.5325C12.5934 92.768 12.5168 93.0354 12.4205 93.327C11.8702 92.2161 13.3933 92.5739 13.0601 91.571C13.616 91.4641 13.9355 91.324 14.1469 90.7748C14.3819 90.1636 14.209 90.0304 14.7427 89.6265C14.9262 89.4878 15.4454 89.2882 15.5404 89.0598C15.7242 88.6185 15.2565 88.4877 15.6661 88.0742C15.8045 88.3169 16.3437 88.7974 16.6389 88.3402C16.6981 88.249 16.4498 88.1843 16.6304 87.9743C16.8979 87.6635 17.1971 87.3586 17.6495 87.4239C17.2913 86.5284 19.5801 86.4576 20.1663 86.2462C20.7538 86.0347 21.2522 85.8957 21.8751 85.8466C22.4974 85.7975 22.5284 85.6152 23.0552 85.2406C23.0998 85.7766 23.2288 85.6587 23.6098 85.7533C23.7014 85.5962 23.7953 85.5785 23.8914 85.7004C23.987 85.7913 24.104 85.834 24.2419 85.8289C24.4511 85.8398 24.6885 85.8124 24.9077 85.8169C25.4224 85.827 25.9533 85.7841 26.4581 85.7949C26.5884 85.7732 26.71 85.7279 26.824 85.659C26.8716 85.7486 26.9195 85.8385 26.9669 85.9284C27.2343 85.9619 27.255 86.297 27.584 85.9305C27.6813 86.3965 27.961 86.154 28.2564 86.2804C28.5258 86.3959 28.5687 86.5803 28.8174 86.709C28.9809 86.8416 29.1562 86.8591 29.3436 86.762C29.5219 86.8941 29.7029 87.0224 29.8865 87.1469C30.2248 87.3379 30.6236 87.4549 30.9801 87.6058C31.2173 87.7036 31.4529 87.8054 31.6867 87.9109C31.6937 88.1931 31.8203 88.2928 32.0662 88.2097C32.2885 88.3957 32.351 88.3884 32.5666 88.705C33.055 89.4224 33.4884 89.9798 34.1053 90.6211C36.7867 93.409 37.6105 97.3505 36.5965 101.029ZM37.4195 89.1742C36.2089 87.5531 34.4953 85.6967 32.9556 84.6729C32.1751 84.1538 31.0796 83.222 30.1252 82.9475C29.8989 82.8823 29.6647 82.8781 29.4423 82.8098C29.2704 82.757 29.1769 82.5807 28.981 82.5489C28.8439 82.5267 28.8287 82.8335 28.6832 82.8053C28.3787 82.7459 28.1858 82.4439 27.9708 82.255C27.5091 83.0506 27.2585 81.7125 26.5805 82.6121C25.7736 81.3468 23.8779 81.6235 22.5894 81.6873C22.2073 81.7061 22.0278 81.8421 21.689 81.9429C21.3737 82.0366 21.3425 82.0125 20.9982 82.0099C20.1407 82.0033 19.3795 82.1111 18.5868 82.4876C17.2552 83.1201 16.0329 84.1057 14.7681 84.868C13.3545 85.72 12.0803 86.8044 10.9988 88.0505C7.0893 92.556 6.04394 99.1324 9.16125 104.356C14.1127 112.651 26.8849 113.538 34.1222 107.909C39.7136 103.56 41.8415 95.0946 37.4195 89.1742Z" fill="black"/>
<path fill-rule="evenodd" clip-rule="evenodd" d="M98.7045 65.8297C98.5656 66.1612 97.2679 66.0495 97.2395 65.6587C97.1972 65.0746 98.946 65.2535 98.7045 65.8297ZM100.083 65.6128C100.818 65.6725 102.027 66.1721 102.735 65.8702C103.817 65.4096 102.681 64.7025 102.101 64.4912C101.51 64.2762 100.631 64.3904 100.327 63.7731C100.099 63.3088 100.663 62.0126 99.9632 62.2209C99.2284 62.4395 99.4421 64.2963 98.2891 63.6704C97.7392 63.3718 97.9636 61.5526 97.0424 62.482C96.7903 62.7363 96.7683 63.2031 96.4345 63.3927C96.0938 63.5863 95.6664 63.3846 95.3067 63.4014C94.3544 63.446 94.0511 64.3369 95.016 64.6902C95.3731 64.821 96.7192 64.9807 95.9038 65.5643C95.39 65.9319 94.2485 65.1604 93.8073 65.8004C93.2008 66.6795 94.8253 66.6993 95.2617 66.9623C96.0011 67.4076 95.3904 68.4479 95.4493 69.1886C95.5396 70.3204 96.1971 70.0839 96.436 69.1261C96.6386 68.3134 96.3875 67.1436 97.6126 67.4666C99.6077 67.9925 96.5032 70.5254 97.9646 71.1735C98.8964 71.5868 99.0284 69.3528 99.1007 68.9681C99.3686 67.5483 100.166 67.8796 101.374 67.9232C102.786 67.974 103.127 66.9299 101.632 66.6308C101.155 66.5354 100.499 66.656 100.085 66.3522C99.8398 66.1727 99.5029 65.5658 100.083 65.6128Z" fill="black"/>
<path fill-rule="evenodd" clip-rule="evenodd" d="M47.9691 111.999C46.8268 111.59 44.9158 111.678 44.6332 113.153C44.5149 113.771 44.7452 114.424 45.1717 114.873C45.6663 115.393 46.4541 115.441 46.412 114.535C46.3828 113.908 45.7861 113.364 46.8351 113.237C47.4879 113.159 48.4534 113.647 48.4859 114.368C48.5593 115.994 45.7458 116.121 44.7089 115.84C42.6511 115.282 43.2102 113.127 44.6233 112.143C44.9884 111.889 46.0359 111.497 46.0837 110.97C46.1473 110.269 45.2815 110.412 44.8571 110.505C41.7376 111.184 41.0577 116.409 44.3172 117.395C45.7974 117.842 47.882 117.38 48.7741 116.039C49.6104 114.783 49.6217 112.59 47.9691 111.999Z" fill="black"/>
<path fill-rule="evenodd" clip-rule="evenodd" d="M6.60844 75.005C5.6333 75.4745 4.65817 75.9439 3.68325 76.4133C3.36091 75.7236 2.81634 73.8393 1.99875 73.5987C0.675232 73.2091 1.51801 75.2631 1.74643 75.7328C1.93407 76.1185 2.36934 76.7162 2.26367 77.176C2.12192 77.7955 1.24797 78.015 0.790506 78.3345C-0.34153 79.1257 -0.332566 80.7871 1.30689 80.0831C2.23463 79.6845 3.38332 78.5794 4.09439 79.8342C4.42271 80.4131 5.2006 83.6476 6.01307 81.5323C6.51579 80.2227 4.0961 78.862 5.28898 77.7541C5.67301 77.3976 6.12258 77.3675 6.50619 77.1626C7.43265 76.6676 6.91029 75.7528 6.60844 75.005Z" fill="black"/>
<path fill-rule="evenodd" clip-rule="evenodd" d="M149.567 28.1397C148.986 27.9271 148.266 27.5119 147.62 27.6534C146.933 27.8037 146.657 28.4915 146.158 28.905C144.8 30.0293 144.01 28.3536 143.264 27.4352C142.559 26.5681 141.7 26.3576 140.706 26.8904C140.31 27.1029 138.642 28.0761 138.933 28.6996C139.142 29.1483 139.966 28.7455 140.247 28.6475C140.857 28.4351 141.424 28.2492 142.048 28.5589C143.219 29.1396 143.523 30.7319 144.94 30.9801C146.404 31.2369 146.452 29.843 147.498 29.3183C148.199 28.9667 148.687 29.5891 149.363 29.4651C150.007 29.3471 150.305 28.4095 149.567 28.1397Z" fill="black"/>
<path fill-rule="evenodd" clip-rule="evenodd" d="M137.741 33.7576C138.259 33.8701 138.597 32.8653 138.921 32.6104C139.459 32.1879 140.392 32.1028 140.939 32.528C142.009 33.358 141.64 35.1498 143.164 35.6169C144.525 36.0345 145.166 34.2415 146.312 33.7952C146.978 33.5356 147.71 33.3657 147.45 32.4343C147.27 31.7902 146.741 31.6248 146.166 31.8722C145.178 32.297 144.842 34.0276 143.67 34.0586C142.458 34.0906 142.327 32.3429 141.806 31.5817C141.013 30.4215 139.381 30.1412 138.455 31.2506C138.175 31.5853 136.754 33.5439 137.741 33.7576Z" fill="black"/>
<path fill-rule="evenodd" clip-rule="evenodd" d="M113.777 13.9454C114.498 14.4385 115.934 14.4214 116.598 13.8098C117.274 13.1875 116.372 13.0919 115.821 13.1109C115.398 13.1256 114.606 13.3355 114.847 12.6043C115.061 11.9556 116.238 12.2858 116.336 11.5737C115.45 11.4149 114.475 11.4721 113.82 12.1682C113.346 12.6714 113.103 13.4836 113.777 13.9454Z" fill="black"/>
</svg>
